<?xml version="1.0" encoding="UTF-8"?><svg xmlns="http://www.w3.org/2000/svg" xmlns:xlink="http://www.w3.org/1999/xlink" contentScriptType="text/ecmascript" width="75" zoomAndPan="magnify" contentStyleType="text/css" viewBox="0 0 75 74.999997" height="74.999997" preserveAspectRatio="xMidYMid meet" version="1.0"><defs><clipPath id="clip-0"><path d="M 15 0.410156 L 32 0.410156 L 32 21 L 15 21 Z M 15 0.410156 " clip-rule="nonzero"/></clipPath><clipPath id="clip-1"><path d="M 2.171875 6 L 48.542969 6 L 48.542969 47.660156 L 2.171875 47.660156 Z M 2.171875 6 " clip-rule="nonzero"/></clipPath><clipPath id="clip-2"><path d="M 22.011719 31 L 44 31 L 44 72 L 22.011719 72 Z M 22.011719 31 " clip-rule="nonzero"/></clipPath><clipPath id="clip-3"><path d="M 31 34 L 71.511719 34 L 71.511719 72.410156 L 31 72.410156 Z M 31 34 " clip-rule="nonzero"/></clipPath></defs><g clip-path="url(#clip-0)"><path fill="rgb(44.309998%, 59.999084%, 54.899597%)" d="M 27.984375 11.109375 C 24.265625 13.316406 19.890625 17.683594 17.304688 20.441406 C 16.777344 19.617188 16.203125 18.78125 15.566406 18.039062 C 15.597656 16.167969 15.820312 14.058594 16.476562 11.996094 C 17.929688 7.351562 23.101562 0.96875 23.308594 0.695312 C 23.433594 0.535156 23.625 0.4375 23.820312 0.4375 C 24.027344 0.421875 24.21875 0.5 24.359375 0.648438 C 24.570312 0.839844 28.765625 5 31.175781 9.433594 C 30.09375 9.929688 29.007812 10.496094 27.984375 11.109375 Z M 27.984375 11.109375 " fill-opacity="1" fill-rule="nonzero"/></g><g clip-path="url(#clip-1)"><path fill="rgb(44.309998%, 59.999084%, 54.899597%)" d="M 7.410156 32.289062 C 7.410156 32.222656 7.410156 32.144531 7.410156 32.078125 C 7.390625 31.742188 7.390625 31.402344 7.410156 31.078125 C 7.425781 30.5625 7.441406 30.082031 7.472656 29.613281 C 7.519531 28.855469 7.550781 28.164062 7.503906 27.597656 C 7.488281 27.40625 7.457031 27.226562 7.425781 27.066406 C 7.042969 25.550781 5.8125 23.808594 4.664062 22.421875 C 4.519531 22.246094 4.375 22.085938 4.230469 21.925781 C 3.960938 21.601562 3.6875 21.3125 3.449219 21.070312 C 2.859375 20.441406 2.445312 20.039062 2.429688 20.039062 C 2.269531 19.875 2.171875 19.652344 2.203125 19.425781 C 2.21875 19.199219 2.363281 18.992188 2.554688 18.878906 C 2.554688 18.878906 2.570312 18.863281 2.585938 18.863281 C 2.585938 18.863281 2.605469 18.863281 2.605469 18.84375 C 2.621094 18.84375 2.636719 18.828125 2.652344 18.8125 C 2.652344 18.8125 2.667969 18.796875 2.683594 18.796875 C 2.699219 18.78125 2.714844 18.78125 2.730469 18.765625 C 2.746094 18.765625 2.761719 18.75 2.761719 18.75 C 2.777344 18.734375 2.8125 18.714844 2.828125 18.714844 C 2.84375 18.699219 2.859375 18.699219 2.875 18.683594 C 2.90625 18.667969 2.921875 18.652344 2.953125 18.636719 C 2.972656 18.621094 2.988281 18.621094 3.003906 18.605469 C 3.035156 18.585938 3.066406 18.570312 3.113281 18.539062 C 3.128906 18.523438 3.144531 18.523438 3.164062 18.507812 C 3.210938 18.472656 3.273438 18.441406 3.339844 18.410156 C 3.402344 18.378906 3.464844 18.34375 3.53125 18.3125 C 3.546875 18.296875 3.578125 18.296875 3.59375 18.28125 C 3.640625 18.25 3.6875 18.234375 3.738281 18.199219 C 3.769531 18.183594 3.800781 18.167969 3.816406 18.152344 C 3.863281 18.136719 3.914062 18.105469 3.960938 18.085938 C 3.992188 18.070312 4.023438 18.054688 4.054688 18.039062 C 4.105469 18.023438 4.152344 17.992188 4.199219 17.957031 C 4.230469 17.941406 4.265625 17.925781 4.296875 17.910156 C 4.34375 17.878906 4.40625 17.863281 4.457031 17.828125 C 4.488281 17.8125 4.519531 17.796875 4.550781 17.78125 C 4.613281 17.75 4.679688 17.734375 4.726562 17.699219 C 4.757812 17.683594 4.789062 17.667969 4.824219 17.652344 C 4.917969 17.621094 5 17.570312 5.09375 17.539062 C 5.09375 17.539062 5.109375 17.539062 5.109375 17.539062 C 5.207031 17.492188 5.300781 17.460938 5.398438 17.410156 C 5.429688 17.394531 5.460938 17.378906 5.492188 17.378906 C 5.558594 17.347656 5.636719 17.3125 5.699219 17.296875 C 5.730469 17.28125 5.78125 17.265625 5.8125 17.25 C 5.875 17.21875 5.941406 17.199219 6.003906 17.167969 C 6.050781 17.152344 6.082031 17.136719 6.132812 17.121094 C 6.195312 17.105469 6.257812 17.070312 6.324219 17.054688 C 6.371094 17.039062 6.402344 17.023438 6.449219 17.007812 C 6.515625 16.992188 6.578125 16.960938 6.660156 16.941406 C 6.707031 16.925781 6.738281 16.910156 6.785156 16.894531 C 6.867188 16.878906 6.929688 16.847656 7.007812 16.832031 C 7.042969 16.8125 7.089844 16.8125 7.121094 16.796875 C 7.21875 16.765625 7.328125 16.734375 7.425781 16.71875 C 7.441406 16.71875 7.441406 16.71875 7.457031 16.703125 C 7.566406 16.667969 7.679688 16.636719 7.792969 16.621094 C 7.824219 16.605469 7.855469 16.605469 7.886719 16.589844 C 7.96875 16.574219 8.046875 16.554688 8.125 16.539062 C 8.175781 16.523438 8.207031 16.523438 8.253906 16.507812 C 8.320312 16.492188 8.398438 16.476562 8.460938 16.460938 C 8.511719 16.445312 8.558594 16.445312 8.589844 16.445312 C 8.652344 16.425781 8.71875 16.425781 8.796875 16.410156 C 8.84375 16.410156 8.894531 16.394531 8.925781 16.394531 C 8.988281 16.378906 9.070312 16.378906 9.132812 16.363281 C 9.179688 16.363281 9.210938 16.347656 9.261719 16.347656 C 9.339844 16.347656 9.402344 16.332031 9.46875 16.332031 C 9.5 16.332031 9.546875 16.332031 9.578125 16.332031 C 9.675781 16.332031 9.769531 16.332031 9.867188 16.332031 C 9.882812 16.332031 9.882812 16.332031 9.898438 16.332031 C 9.960938 16.332031 10.027344 16.332031 10.089844 16.332031 C 10.136719 16.332031 10.1875 16.332031 10.234375 16.332031 C 10.296875 16.332031 10.363281 16.347656 10.441406 16.347656 C 10.488281 16.347656 10.519531 16.347656 10.570312 16.363281 C 10.632812 16.378906 10.710938 16.378906 10.777344 16.394531 C 10.808594 16.394531 10.839844 16.410156 10.886719 16.410156 C 10.984375 16.425781 11.078125 16.460938 11.175781 16.476562 C 11.175781 16.476562 11.191406 16.476562 11.191406 16.476562 C 11.289062 16.507812 11.382812 16.539062 11.480469 16.574219 C 11.511719 16.589844 11.527344 16.589844 11.558594 16.605469 C 11.621094 16.636719 11.703125 16.667969 11.765625 16.683594 C 11.796875 16.703125 11.8125 16.71875 11.847656 16.71875 C 11.941406 16.765625 12.023438 16.8125 12.117188 16.863281 C 12.214844 16.910156 12.292969 16.976562 12.390625 17.023438 C 12.421875 17.039062 12.4375 17.054688 12.46875 17.070312 C 12.53125 17.121094 12.597656 17.167969 12.675781 17.21875 C 12.707031 17.234375 12.722656 17.25 12.757812 17.28125 C 12.835938 17.347656 12.933594 17.410156 13.011719 17.476562 C 13.011719 17.476562 13.011719 17.476562 13.027344 17.476562 C 13.125 17.554688 13.203125 17.621094 13.296875 17.699219 C 13.316406 17.71875 13.347656 17.75 13.363281 17.765625 C 13.425781 17.828125 13.492188 17.894531 13.570312 17.957031 C 13.585938 17.976562 13.617188 18.007812 13.632812 18.023438 C 13.808594 18.183594 13.96875 18.363281 14.144531 18.554688 C 14.160156 18.570312 14.175781 18.585938 14.191406 18.605469 C 14.257812 18.683594 14.335938 18.765625 14.398438 18.828125 C 14.417969 18.84375 14.433594 18.863281 14.449219 18.894531 C 14.609375 19.085938 14.765625 19.28125 14.925781 19.488281 C 14.941406 19.507812 14.941406 19.507812 14.957031 19.523438 C 15.023438 19.617188 15.101562 19.699219 15.167969 19.796875 C 15.183594 19.8125 15.183594 19.828125 15.199219 19.828125 C 15.359375 20.039062 15.5 20.246094 15.644531 20.457031 C 16.234375 21.328125 16.714844 22.164062 17.050781 22.777344 C 18.964844 20.652344 24.378906 14.863281 28.71875 12.285156 C 29.726562 11.6875 30.777344 11.140625 31.832031 10.640625 C 31.910156 10.59375 32.007812 10.558594 32.085938 10.511719 C 32.101562 10.496094 32.136719 10.496094 32.152344 10.480469 C 32.230469 10.445312 32.3125 10.398438 32.40625 10.367188 C 32.4375 10.351562 32.453125 10.351562 32.484375 10.335938 C 32.566406 10.300781 32.644531 10.253906 32.742188 10.222656 C 32.757812 10.207031 32.789062 10.207031 32.804688 10.1875 C 32.886719 10.15625 32.980469 10.109375 33.0625 10.078125 C 33.078125 10.078125 33.078125 10.078125 33.09375 10.058594 C 33.492188 9.882812 33.890625 9.707031 34.304688 9.542969 C 34.304688 9.542969 34.320312 9.542969 34.320312 9.527344 C 34.417969 9.496094 34.511719 9.449219 34.59375 9.414062 C 34.609375 9.414062 34.625 9.398438 34.640625 9.398438 C 34.738281 9.367188 34.816406 9.335938 34.914062 9.285156 C 34.929688 9.285156 34.945312 9.269531 34.960938 9.269531 C 35.054688 9.238281 35.152344 9.191406 35.230469 9.15625 C 35.230469 9.15625 35.246094 9.15625 35.246094 9.15625 C 35.757812 8.964844 36.253906 8.769531 36.75 8.609375 C 36.75 8.609375 36.765625 8.609375 36.765625 8.59375 C 36.859375 8.5625 36.957031 8.527344 37.035156 8.496094 C 37.050781 8.496094 37.050781 8.496094 37.066406 8.480469 C 37.164062 8.449219 37.257812 8.417969 37.355469 8.382812 C 37.851562 8.222656 38.328125 8.0625 38.792969 7.917969 C 38.886719 7.882812 38.96875 7.851562 39.0625 7.835938 C 39.0625 7.835938 39.078125 7.835938 39.078125 7.835938 C 39.175781 7.804688 39.253906 7.789062 39.351562 7.753906 C 39.894531 7.59375 40.417969 7.433594 40.929688 7.289062 C 40.929688 7.289062 40.929688 7.289062 40.945312 7.289062 C 41.027344 7.273438 41.105469 7.238281 41.1875 7.222656 C 41.1875 7.222656 41.1875 7.222656 41.203125 7.222656 C 41.695312 7.09375 42.144531 6.964844 42.574219 6.851562 C 42.574219 6.851562 42.589844 6.851562 42.589844 6.851562 C 42.65625 6.835938 42.71875 6.820312 42.78125 6.804688 C 42.78125 6.804688 42.796875 6.804688 42.796875 6.804688 C 43.148438 6.722656 43.46875 6.644531 43.757812 6.5625 C 43.804688 6.546875 43.867188 6.53125 43.914062 6.53125 C 43.933594 6.53125 43.933594 6.53125 43.949219 6.53125 C 43.996094 6.515625 44.042969 6.515625 44.089844 6.5 C 44.105469 6.5 44.105469 6.5 44.125 6.5 C 44.171875 6.480469 44.21875 6.480469 44.265625 6.464844 C 44.265625 6.464844 44.28125 6.464844 44.28125 6.464844 C 44.492188 6.417969 44.683594 6.386719 44.839844 6.335938 C 44.839844 6.335938 44.839844 6.335938 44.859375 6.335938 C 44.890625 6.335938 44.9375 6.320312 44.96875 6.320312 C 44.984375 6.320312 44.984375 6.320312 45 6.320312 C 45.03125 6.320312 45.066406 6.304688 45.097656 6.304688 C 45.113281 6.304688 45.128906 6.304688 45.144531 6.289062 C 45.175781 6.289062 45.191406 6.273438 45.226562 6.273438 C 45.242188 6.273438 45.257812 6.273438 45.257812 6.273438 C 45.273438 6.273438 45.304688 6.257812 45.320312 6.257812 C 45.335938 6.257812 45.335938 6.257812 45.351562 6.257812 C 45.433594 6.238281 45.511719 6.222656 45.574219 6.207031 C 45.574219 6.207031 45.59375 6.207031 45.59375 6.207031 C 45.609375 6.207031 45.625 6.207031 45.640625 6.191406 C 45.640625 6.191406 45.65625 6.191406 45.65625 6.191406 C 45.671875 6.191406 45.6875 6.191406 45.703125 6.175781 C 45.703125 6.175781 45.71875 6.175781 45.71875 6.175781 C 45.734375 6.175781 45.734375 6.175781 45.75 6.175781 C 45.765625 6.175781 45.765625 6.175781 45.785156 6.175781 C 45.785156 6.175781 45.800781 6.175781 45.800781 6.175781 C 45.816406 6.175781 45.816406 6.175781 45.816406 6.175781 C 45.816406 6.175781 45.832031 6.175781 45.832031 6.175781 C 45.847656 6.175781 45.847656 6.175781 45.847656 6.175781 C 45.894531 6.160156 45.941406 6.160156 45.992188 6.160156 C 46.007812 6.160156 46.007812 6.160156 46.023438 6.160156 C 46.054688 6.160156 46.085938 6.160156 46.117188 6.175781 C 46.132812 6.175781 46.152344 6.175781 46.167969 6.191406 C 46.199219 6.207031 46.230469 6.207031 46.261719 6.222656 C 46.277344 6.222656 46.292969 6.238281 46.292969 6.238281 C 46.34375 6.257812 46.375 6.289062 46.40625 6.304688 C 46.566406 6.417969 46.660156 6.609375 46.691406 6.804688 C 46.773438 7.464844 48.527344 23.230469 41.777344 30.046875 C 41.171875 30.660156 40.417969 31.242188 39.574219 31.773438 C 39.144531 32.046875 38.710938 32.304688 38.25 32.5625 C 37.097656 33.191406 35.839844 33.773438 34.59375 34.269531 C 34.339844 34.367188 34.097656 34.464844 33.859375 34.5625 C 33.238281 34.804688 32.644531 35.027344 32.054688 35.222656 C 31.816406 35.304688 31.59375 35.382812 31.367188 35.464844 C 31.257812 35.496094 31.144531 35.542969 31.035156 35.578125 C 34.179688 35.753906 38.136719 36.078125 39.84375 36.542969 C 42.78125 37.367188 48.003906 39.589844 48.226562 39.6875 C 48.464844 39.800781 48.640625 40.027344 48.65625 40.300781 C 48.671875 40.574219 48.546875 40.832031 48.320312 40.976562 L 42.796875 44.425781 C 42.6875 44.492188 42.558594 44.539062 42.414062 44.539062 L 40.148438 44.539062 C 39.75 45.554688 38.695312 47.648438 36.875 47.648438 C 35.789062 47.648438 34.640625 46.84375 33.410156 45.988281 C 32.328125 45.230469 31.097656 44.378906 30.21875 44.378906 C 29.789062 44.378906 28.992188 44.605469 28.066406 44.878906 C 27.96875 44.910156 27.871094 44.925781 27.777344 44.957031 C 27.746094 44.972656 27.714844 44.972656 27.679688 44.992188 C 27.617188 45.007812 27.539062 45.039062 27.457031 45.054688 C 27.425781 45.070312 27.378906 45.070312 27.347656 45.085938 C 27.28125 45.101562 27.21875 45.121094 27.136719 45.136719 C 27.089844 45.152344 27.042969 45.167969 26.996094 45.167969 C 26.929688 45.183594 26.867188 45.199219 26.804688 45.214844 C 26.753906 45.230469 26.707031 45.25 26.660156 45.25 C 26.597656 45.265625 26.53125 45.28125 26.453125 45.296875 C 26.40625 45.3125 26.355469 45.328125 26.308594 45.328125 C 26.246094 45.34375 26.164062 45.359375 26.101562 45.378906 C 26.054688 45.394531 26.003906 45.410156 25.941406 45.410156 C 25.878906 45.425781 25.796875 45.441406 25.734375 45.457031 C 25.6875 45.472656 25.636719 45.472656 25.574219 45.488281 C 25.496094 45.507812 25.414062 45.523438 25.351562 45.539062 C 25.304688 45.554688 25.253906 45.554688 25.207031 45.570312 C 25.113281 45.585938 25.03125 45.601562 24.9375 45.621094 C 24.902344 45.621094 24.855469 45.636719 24.824219 45.636719 C 24.695312 45.652344 24.570312 45.683594 24.425781 45.699219 C 24.410156 45.699219 24.378906 45.699219 24.359375 45.714844 C 24.25 45.730469 24.136719 45.75 24.027344 45.765625 C 23.976562 45.765625 23.929688 45.78125 23.882812 45.78125 C 23.785156 45.796875 23.707031 45.796875 23.609375 45.8125 C 23.5625 45.8125 23.5 45.828125 23.453125 45.828125 C 23.371094 45.84375 23.292969 45.84375 23.195312 45.859375 C 23.132812 45.859375 23.085938 45.878906 23.019531 45.878906 C 22.941406 45.878906 22.859375 45.894531 22.78125 45.894531 C 22.71875 45.894531 22.652344 45.894531 22.605469 45.910156 C 22.523438 45.910156 22.445312 45.925781 22.367188 45.925781 C 22.300781 45.925781 22.238281 45.925781 22.191406 45.925781 C 22.109375 45.925781 22.03125 45.925781 21.933594 45.925781 C 21.871094 45.925781 21.808594 45.925781 21.742188 45.925781 C 21.695312 45.925781 21.632812 45.925781 21.582031 45.925781 C 21.503906 45.925781 21.425781 45.925781 21.34375 45.925781 C 21.296875 45.925781 21.230469 45.925781 21.183594 45.925781 C 21.105469 45.925781 21.023438 45.910156 20.945312 45.910156 C 20.898438 45.910156 20.832031 45.910156 20.785156 45.894531 C 20.707031 45.894531 20.625 45.878906 20.546875 45.878906 C 20.5 45.878906 20.433594 45.859375 20.386719 45.859375 C 20.304688 45.84375 20.210938 45.84375 20.132812 45.828125 C 20.082031 45.828125 20.035156 45.8125 19.988281 45.8125 C 19.875 45.796875 19.765625 45.78125 19.652344 45.765625 C 19.621094 45.765625 19.605469 45.75 19.570312 45.75 C 19.445312 45.714844 19.300781 45.699219 19.171875 45.667969 C 19.140625 45.652344 19.09375 45.652344 19.0625 45.636719 C 18.964844 45.621094 18.871094 45.585938 18.773438 45.570312 C 18.726562 45.554688 18.679688 45.539062 18.613281 45.523438 C 18.535156 45.507812 18.4375 45.472656 18.359375 45.441406 C 18.3125 45.425781 18.246094 45.410156 18.199219 45.394531 C 18.121094 45.359375 18.039062 45.34375 17.960938 45.3125 C 17.894531 45.296875 17.847656 45.265625 17.785156 45.25 C 17.703125 45.214844 17.625 45.183594 17.546875 45.152344 C 17.480469 45.136719 17.433594 45.101562 17.371094 45.085938 C 17.289062 45.054688 17.210938 45.023438 17.128906 44.992188 C 17.066406 44.957031 17.019531 44.941406 16.953125 44.910156 C 16.875 44.878906 16.792969 44.828125 16.699219 44.78125 C 16.652344 44.75 16.585938 44.734375 16.539062 44.699219 C 16.445312 44.652344 16.363281 44.605469 16.269531 44.554688 C 16.21875 44.523438 16.171875 44.507812 16.140625 44.476562 C 16.011719 44.394531 15.867188 44.3125 15.742188 44.234375 C 8.859375 40.027344 7.550781 35.722656 7.410156 32.289062 Z M 21.597656 26.097656 C 21.710938 26.179688 21.855469 26.210938 21.984375 26.210938 C 22.222656 26.210938 22.445312 26.097656 22.589844 25.875 C 26.019531 20.410156 39.09375 13.347656 39.222656 13.269531 C 39.574219 13.074219 39.703125 12.640625 39.527344 12.285156 C 39.335938 11.929688 38.902344 11.800781 38.550781 11.980469 C 37.992188 12.269531 25 19.296875 21.375 25.082031 C 21.167969 25.4375 21.265625 25.890625 21.597656 26.097656 Z M 21.597656 26.097656 " fill-opacity="1" fill-rule="nonzero"/></g><g clip-path="url(#clip-2)"><path fill="rgb(28.239441%, 43.139648%, 38.42926%)" d="M 40.269531 34.484375 C 37.371094 31.480469 32.617188 30.414062 28.710938 31.882812 C 26.078125 32.875 23.945312 34.933594 23.011719 37.390625 C 22.007812 40.023438 22.429688 43.082031 24.085938 45.183594 C 25.390625 46.84375 27.828125 47.652344 30.019531 47.652344 C 30.191406 47.652344 30.363281 47.644531 30.535156 47.636719 C 31.890625 46.132812 33.542969 43.355469 32.1875 39.574219 C 32.113281 39.367188 32.21875 39.140625 32.429688 39.066406 C 32.636719 38.992188 32.863281 39.101562 32.9375 39.308594 C 34.472656 43.585938 32.441406 46.738281 30.929688 48.351562 C 30.453125 49.183594 29.933594 49.992188 29.425781 50.785156 C 28.652344 51.984375 27.851562 53.226562 27.210938 54.542969 C 25.859375 57.320312 25.328125 60.214844 25.675781 62.910156 C 26.066406 65.949219 27.597656 68.636719 29.875 70.285156 C 31.40625 71.394531 33.257812 71.972656 35.0625 71.972656 C 35.539062 71.972656 36.011719 71.929688 36.476562 71.851562 C 36.480469 70.917969 36.902344 70.394531 37.273438 70.113281 C 37.292969 70.101562 37.308594 70.089844 37.324219 70.078125 C 36.550781 69.488281 35.46875 68.484375 33.976562 66.613281 C 32.015625 64.152344 31.355469 61.382812 31.148438 59.492188 C 30.882812 57.054688 31.21875 54.628906 32.070312 52.832031 C 32.855469 51.175781 34.191406 49.402344 35.742188 47.960938 C 36.984375 46.804688 38.921875 45.335938 41.117188 44.910156 C 41.636719 44.808594 42.214844 44.75 42.835938 44.730469 C 43.832031 41.160156 42.871094 37.179688 40.269531 34.484375 " fill-opacity="1" fill-rule="nonzero"/></g><path fill="rgb(28.239441%, 43.139648%, 38.42926%)" d="M 68.765625 57.214844 C 68.707031 57.132812 68.648438 57.058594 68.585938 56.984375 C 68.363281 56.703125 68.109375 56.445312 67.828125 56.21875 C 67.777344 56.238281 67.726562 56.257812 67.671875 56.277344 C 67.058594 56.5 66.421875 56.636719 65.792969 56.714844 C 66.492188 56.964844 67.132812 57.472656 67.585938 58.527344 C 67.882812 59.210938 67.996094 59.890625 67.9375 60.515625 C 68.183594 60.496094 68.429688 60.417969 68.644531 60.269531 C 69.113281 59.9375 69.382812 59.335938 69.339844 58.695312 C 69.308594 58.214844 69.117188 57.71875 68.765625 57.214844 " fill-opacity="1" fill-rule="nonzero"/><g clip-path="url(#clip-3)"><path fill="rgb(28.239441%, 43.139648%, 38.42926%)" d="M 60.65625 41.121094 C 60.613281 41.199219 60.53125 41.246094 60.445312 41.246094 C 60.40625 41.246094 60.367188 41.234375 60.332031 41.214844 C 59.410156 40.707031 58.8125 39.660156 58.84375 38.609375 C 58.851562 38.476562 58.960938 38.367188 59.09375 38.378906 C 59.226562 38.382812 59.328125 38.492188 59.324219 38.625 C 59.296875 39.5 59.792969 40.371094 60.5625 40.796875 C 60.679688 40.863281 60.71875 41.007812 60.65625 41.121094 Z M 71.492188 53.71875 C 71.484375 53.621094 71.25 51.351562 71.011719 50.160156 C 70.773438 48.972656 68.726562 44.871094 67.570312 43.589844 C 66.527344 42.4375 62.679688 40.410156 61.976562 40.097656 C 61.355469 39.289062 60.027344 37.210938 60.433594 36.117188 L 60.878906 34.933594 L 59.835938 35.648438 C 59.699219 35.742188 56.546875 37.953125 56.914062 41.804688 C 56.375 42.320312 54.574219 44.128906 54.242188 45.6875 C 53.816406 45.949219 52.453125 46.710938 51.21875 46.535156 C 50.859375 46.484375 50.320312 46.371094 49.699219 46.238281 C 47.386719 45.753906 43.894531 45.019531 41.238281 45.535156 C 39.195312 45.933594 37.359375 47.328125 36.175781 48.425781 C 34.6875 49.816406 33.398438 51.519531 32.648438 53.101562 C 31.066406 56.4375 31.316406 62.253906 34.476562 66.21875 C 36.707031 69.019531 37.976562 69.792969 38.660156 70.210938 C 38.683594 70.226562 38.703125 70.238281 38.726562 70.25 C 38.117188 70.328125 37.027344 70.574219 37.117188 72.027344 L 37.144531 72.402344 L 51.710938 72.402344 C 51.691406 72.21875 51.613281 71.890625 51.3125 71.558594 C 50.894531 71.105469 49.953125 70.566406 47.839844 70.566406 L 45.910156 70.566406 L 47.683594 69.804688 C 50.5625 68.5625 52.507812 64.894531 51.929688 61.789062 C 51.347656 58.6875 48.414062 56.160156 45.25 56.039062 C 45.03125 56.027344 44.859375 55.84375 44.867188 55.625 C 44.875 55.402344 45.058594 55.230469 45.28125 55.242188 C 48.804688 55.378906 52.066406 58.191406 52.714844 61.644531 C 53.28125 64.683594 51.761719 68.09375 49.21875 69.855469 C 50.449219 70.015625 51.355469 70.414062 51.921875 71.046875 C 52.386719 71.566406 52.492188 72.105469 52.511719 72.402344 L 57.421875 72.402344 L 57.542969 72.230469 C 57.578125 72.175781 57.886719 71.703125 57.632812 71.085938 C 57.335938 70.355469 56.378906 69.789062 54.785156 69.398438 C 55.480469 68.570312 56.632812 66.820312 56.542969 64.375 C 56.542969 64.320312 56.527344 64.273438 56.503906 64.226562 C 56.535156 64.226562 56.566406 64.226562 56.597656 64.226562 C 58.960938 64.226562 60.644531 62.839844 61.664062 62.003906 C 61.953125 61.761719 62.3125 61.464844 62.445312 61.429688 C 62.625 61.4375 62.964844 61.65625 63.265625 61.847656 C 63.859375 62.230469 64.601562 62.707031 65.429688 62.578125 C 66.136719 62.46875 66.742188 62.050781 67.089844 61.429688 C 67.503906 60.6875 67.496094 59.734375 67.074219 58.746094 C 66.367188 57.101562 65.222656 57.058594 63.902344 57.007812 C 63.484375 56.992188 63.050781 56.972656 62.574219 56.910156 C 61.820312 56.8125 61.4375 56.503906 61.242188 56.1875 C 60.574219 55.355469 60.265625 54.292969 60.507812 53.566406 C 60.5625 53.398438 60.742188 53.308594 60.910156 53.363281 C 61.078125 53.421875 61.167969 53.601562 61.113281 53.765625 C 60.949219 54.261719 61.179688 55.210938 61.921875 56 C 61.945312 56.023438 61.960938 56.046875 61.972656 56.074219 C 63.402344 56.308594 65.660156 56.484375 67.671875 55.753906 C 70.695312 54.660156 71.296875 54.128906 71.386719 54.03125 L 71.511719 53.898438 L 71.492188 53.71875 " fill-opacity="1" fill-rule="nonzero"/></g></svg>