<?xml version="1.0" encoding="UTF-8"?><svg xmlns="http://www.w3.org/2000/svg" xmlns:xlink="http://www.w3.org/1999/xlink" contentScriptType="text/ecmascript" width="75" zoomAndPan="magnify" contentStyleType="text/css" viewBox="0 0 75 74.999997" height="74.999997" preserveAspectRatio="xMidYMid meet" version="1.0"><defs><clipPath id="clip-0"><path d="M 23 27 L 55.921875 27 L 55.921875 73 L 23 73 Z M 23 27 " clip-rule="nonzero"/></clipPath><clipPath id="clip-1"><path d="M 25 1.207031 L 50 1.207031 L 50 36 L 25 36 Z M 25 1.207031 " clip-rule="nonzero"/></clipPath><clipPath id="clip-2"><path d="M 19.171875 70 L 37 70 L 37 72 L 19.171875 72 Z M 19.171875 70 " clip-rule="nonzero"/></clipPath><clipPath id="clip-3"><path d="M 29 72 L 42 72 L 42 73.957031 L 29 73.957031 Z M 29 72 " clip-rule="nonzero"/></clipPath></defs><path fill="rgb(28.239441%, 43.139648%, 38.42926%)" d="M 33.683594 34.230469 L 31.246094 35.472656 C 31.363281 36.085938 31.5 36.617188 31.632812 37.066406 L 33.457031 37.691406 L 34.566406 37.125 L 35.171875 37.253906 L 35.207031 34.214844 L 34.671875 34.097656 C 34.339844 34.027344 33.988281 34.074219 33.683594 34.230469 Z M 33.683594 34.230469 " fill-opacity="1" fill-rule="nonzero"/><g clip-path="url(#clip-0)"><path fill="rgb(28.239441%, 43.139648%, 38.42926%)" d="M 35.480469 69.707031 L 41.09375 66.199219 L 42.128906 66.863281 L 37.328125 69.863281 L 37.570312 69.851562 L 38.96875 70.382812 L 44.679688 72.550781 L 54.582031 71.523438 L 54.179688 71.125 L 46.765625 63.828125 L 47.789062 63.425781 L 53.808594 69.078125 L 55.914062 68.976562 L 55.667969 66.75 L 49.625 61.644531 L 49.175781 56.789062 C 46.027344 57.777344 42.210938 58.199219 42.210938 58.199219 L 49.035156 55.296875 L 47.960938 43.734375 C 46.351562 44.382812 44.605469 44.664062 44.605469 44.664062 L 47.957031 42.601562 L 48.140625 30.976562 L 48.15625 27.800781 C 44.226562 30.082031 39.714844 31.890625 35.816406 33.21875 L 35.757812 38.476562 L 35.949219 38.542969 C 36.371094 38.6875 36.730469 38.960938 36.988281 39.328125 L 41.21875 45.417969 C 41.535156 45.875 41.65625 46.429688 41.558594 46.976562 C 41.457031 47.523438 41.152344 48.003906 40.695312 48.320312 C 40.34375 48.5625 39.929688 48.691406 39.503906 48.691406 C 38.820312 48.691406 38.179688 48.359375 37.789062 47.796875 L 35.5 44.503906 L 33.601562 62.589844 L 33.609375 63.425781 L 33.015625 63.671875 L 24.898438 67.03125 L 23.875 69.785156 L 25.007812 69.777344 Z M 35.480469 69.707031 " fill-opacity="1" fill-rule="nonzero"/></g><g clip-path="url(#clip-1)"><path fill="rgb(28.239441%, 43.139648%, 38.42926%)" d="M 26.382812 34.722656 C 26.339844 34.734375 26.3125 34.738281 26.304688 34.742188 C 26.144531 34.773438 26.042969 34.933594 26.078125 35.09375 C 26.101562 35.214844 26.195312 35.296875 26.308594 35.324219 C 26.304688 35.328125 26.304688 35.335938 26.304688 35.339844 C 27.503906 35.070312 39.4375 32.28125 48.195312 27.085938 C 48.273438 27.039062 48.367188 27.035156 48.449219 27.0625 C 48.5 27.035156 48.546875 27.007812 48.597656 26.976562 C 48.738281 26.894531 48.785156 26.710938 48.703125 26.570312 C 48.617188 26.425781 48.433594 26.378906 48.292969 26.464844 C 48.25 26.492188 48.203125 26.515625 48.160156 26.542969 L 48.191406 18.621094 L 48.734375 10.324219 L 49.429688 1.253906 L 35.507812 1.253906 L 35.601562 8.011719 L 36.109375 12.015625 L 39.925781 13.125 C 39.925781 13.125 37.785156 13.125 36.199219 12.917969 L 36.019531 18.585938 L 36.011719 18.585938 L 36.011719 18.929688 L 35.914062 24.347656 L 35.902344 25.511719 L 37.503906 24.007812 C 37.738281 23.789062 38.023438 23.648438 38.335938 23.601562 C 38.847656 23.523438 39.363281 23.699219 39.71875 24.078125 C 40.003906 24.382812 40.15625 24.78125 40.140625 25.199219 C 40.128906 25.617188 39.953125 26.003906 39.648438 26.289062 L 35.851562 29.851562 L 35.828125 32 C 35.628906 32.066406 35.429688 32.136719 35.230469 32.203125 C 33.6875 32.71875 32.253906 33.15625 31.007812 33.515625 C 30.808594 33.574219 30.609375 33.628906 30.421875 33.683594 C 30.40625 33.449219 30.394531 33.203125 30.386719 32.953125 C 30.375 32.378906 30.382812 31.765625 30.429688 31.101562 C 31.070312 31.039062 31.421875 30.75 31.582031 30.378906 L 28.632812 30.316406 C 28.28125 30.308594 27.957031 30.164062 27.714844 29.914062 C 27.46875 29.660156 27.339844 29.328125 27.347656 28.976562 C 27.363281 28.339844 27.828125 27.804688 28.457031 27.707031 C 28.535156 27.695312 28.609375 27.691406 28.6875 27.691406 L 29.476562 27.710938 C 29.390625 27.644531 29.300781 27.566406 29.214844 27.480469 L 33.191406 26.164062 C 33.351562 26.109375 33.496094 26.015625 33.613281 25.886719 L 35.324219 23.945312 L 35.371094 20.964844 L 32.332031 24.40625 L 27.167969 26.117188 C 27.042969 26.144531 26.925781 26.1875 26.808594 26.234375 C 26.722656 26.265625 26.640625 26.304688 26.566406 26.355469 C 25.984375 26.691406 25.53125 27.3125 25.375 28.238281 C 25.632812 28.753906 25.796875 29.296875 25.734375 29.863281 C 25.71875 30 25.699219 30.125 25.671875 30.246094 C 25.992188 31.023438 26.421875 31.902344 26.445312 33.460938 C 26.449219 33.839844 26.433594 34.257812 26.382812 34.722656 Z M 26.382812 34.722656 " fill-opacity="1" fill-rule="nonzero"/></g><path fill="rgb(28.239441%, 43.139648%, 38.42926%)" d="M 38.277344 47.457031 C 38.566406 47.875 39.03125 48.097656 39.503906 48.097656 C 39.796875 48.097656 40.09375 48.011719 40.355469 47.832031 C 41.03125 47.359375 41.199219 46.433594 40.726562 45.757812 L 36.496094 39.667969 C 36.316406 39.40625 36.054688 39.210938 35.757812 39.109375 L 31.148438 37.53125 C 30.945312 36.871094 30.699219 35.984375 30.542969 34.859375 C 28.023438 35.570312 26.378906 35.933594 26.332031 35.945312 C 26.3125 35.949219 26.292969 35.949219 26.269531 35.949219 C 26.246094 35.949219 26.222656 35.949219 26.203125 35.941406 C 26.160156 36.171875 26.113281 36.40625 26.054688 36.65625 C 25.679688 38.320312 26.414062 39.125 27.445312 39.414062 L 34.328125 41.769531 Z M 38.277344 47.457031 " fill-opacity="1" fill-rule="nonzero"/><path fill="rgb(28.239441%, 43.139648%, 38.42926%)" d="M 23.429688 25.234375 C 23.277344 25.089844 23.132812 24.929688 23.003906 24.753906 C 22.898438 24.609375 22.804688 24.460938 22.722656 24.304688 C 21.980469 25.183594 21.421875 26.542969 23.019531 28.523438 C 24.589844 30.46875 24.160156 31.296875 23.605469 31.683594 C 23.050781 32.074219 25.144531 32.089844 25.394531 29.828125 C 25.585938 28.085938 23.226562 26.398438 23.429688 25.234375 Z M 23.429688 25.234375 " fill-opacity="1" fill-rule="nonzero"/><path fill="rgb(28.239441%, 43.139648%, 38.42926%)" d="M 27.9375 20.210938 C 28.261719 20.484375 28.523438 20.8125 28.714844 21.191406 C 28.910156 21.566406 29.023438 21.96875 29.058594 22.394531 C 29.09375 22.816406 29.046875 23.230469 28.917969 23.632812 C 28.785156 24.039062 28.582031 24.402344 28.308594 24.726562 C 28.035156 25.050781 27.707031 25.3125 27.328125 25.503906 C 26.949219 25.699219 26.550781 25.8125 26.125 25.847656 C 25.703125 25.882812 25.289062 25.835938 24.882812 25.703125 C 24.480469 25.574219 24.113281 25.371094 23.789062 25.097656 C 23.46875 24.824219 23.207031 24.496094 23.011719 24.117188 C 22.820312 23.738281 22.703125 23.339844 22.671875 22.914062 C 22.636719 22.492188 22.683594 22.078125 22.8125 21.675781 C 22.941406 21.269531 23.144531 20.90625 23.421875 20.582031 C 23.695312 20.257812 24.023438 19.996094 24.402344 19.804688 C 24.777344 19.609375 25.179688 19.496094 25.601562 19.460938 C 26.027344 19.425781 26.441406 19.472656 26.84375 19.601562 C 27.25 19.734375 27.613281 19.9375 27.9375 20.210938 Z M 27.9375 20.210938 " fill-opacity="1" fill-rule="nonzero"/><path fill="rgb(28.239441%, 43.139648%, 38.42926%)" d="M 39.242188 25.855469 C 39.628906 25.488281 39.648438 24.875 39.285156 24.484375 C 38.917969 24.09375 38.304688 24.074219 37.914062 24.441406 L 33.964844 28.144531 L 28.679688 28.035156 C 28.144531 28.023438 27.703125 28.449219 27.691406 28.984375 C 27.679688 29.519531 28.105469 29.960938 28.640625 29.972656 L 34.320312 30.09375 C 34.378906 30.09375 34.433594 30.089844 34.488281 30.082031 C 34.679688 30.050781 34.863281 29.964844 35.003906 29.828125 Z M 39.242188 25.855469 " fill-opacity="1" fill-rule="nonzero"/><g clip-path="url(#clip-2)"><path fill="rgb(28.239441%, 43.139648%, 38.42926%)" d="M 24.175781 70.445312 L 19.171875 70.511719 L 21.851562 71.703125 L 25.425781 71.304688 L 33.019531 71.769531 L 36.472656 71.480469 L 36.949219 70.777344 L 32.484375 71.171875 L 25.554688 70.566406 L 24.738281 70.496094 Z M 24.175781 70.445312 " fill-opacity="1" fill-rule="nonzero"/></g><g clip-path="url(#clip-3)"><path fill="rgb(28.239441%, 43.139648%, 38.42926%)" d="M 41.390625 73.703125 L 41.734375 73.195312 L 38.539062 73.480469 L 32.59375 72.960938 L 29.015625 73.007812 L 30.933594 73.859375 L 33.488281 73.574219 L 38.921875 73.90625 Z M 41.390625 73.703125 " fill-opacity="1" fill-rule="nonzero"/></g></svg>