<?xml version="1.0" encoding="UTF-8"?><svg xmlns="http://www.w3.org/2000/svg" xmlns:xlink="http://www.w3.org/1999/xlink" width="75" zoomAndPan="magnify" viewBox="0 0 75 74.999997" height="74.999997" preserveAspectRatio="xMidYMid meet" version="1.0"><defs><clipPath id="clip-0"><path d="M 38 54 L 73.941406 54 L 73.941406 70.433594 L 38 70.433594 Z M 38 54 " clip-rule="nonzero"/></clipPath><clipPath id="clip-1"><path d="M 1.191406 5.183594 L 58 5.183594 L 58 70.433594 L 1.191406 70.433594 Z M 1.191406 5.183594 " clip-rule="nonzero"/></clipPath></defs><path fill="rgb(44.309998%, 59.999084%, 54.899597%)" d="M 55.125 55.574219 C 45.390625 55.574219 37.5 58.597656 37.5 62.324219 C 37.5 66.054688 45.390625 69.074219 55.125 69.074219 C 64.859375 69.074219 72.75 66.054688 72.75 62.324219 C 72.75 58.597656 64.859375 55.574219 55.125 55.574219 Z M 55.125 55.574219 " fill-opacity="1" fill-rule="nonzero"/><g clip-path="url(#clip-0)"><path fill="rgb(28.239441%, 43.139648%, 38.42926%)" d="M 53.414062 54.179688 C 47.921875 54.179688 42.261719 55.035156 38.300781 56.6875 C 38.582031 57.429688 38.867188 58.113281 39.207031 58.796875 C 42.320312 57.488281 47.1875 56.460938 53.414062 56.460938 C 64.621094 56.460938 71.523438 59.769531 71.523438 62.164062 C 71.523438 64.558594 64.621094 67.867188 53.414062 67.867188 C 50.527344 67.867188 47.921875 67.640625 45.601562 67.296875 C 46 68.039062 46.167969 68.835938 46 69.636719 C 48.375 69.976562 50.921875 70.148438 53.355469 70.148438 C 63.261719 70.148438 73.730469 67.355469 73.730469 62.164062 C 73.789062 56.972656 63.316406 54.179688 53.414062 54.179688 Z M 53.414062 54.179688 " fill-opacity="1" fill-rule="nonzero"/></g><g clip-path="url(#clip-1)"><path fill="rgb(28.239441%, 43.139648%, 38.42926%)" d="M 33.941406 43.683594 C 34.226562 43.511719 34.453125 43.339844 34.734375 43.171875 C 36.035156 46.136719 39.035156 48.132812 42.375 48.132812 C 46.960938 48.132812 50.640625 44.425781 50.753906 39.863281 C 54.828125 39.292969 57.996094 35.753906 57.996094 31.535156 C 57.996094 29.140625 56.976562 26.914062 55.222656 25.316406 C 55.675781 24.234375 55.960938 23.09375 55.960938 21.894531 C 55.960938 17.277344 52.222656 13.511719 47.582031 13.511719 C 47.527344 13.511719 47.46875 13.511719 47.46875 13.511719 C 46.902344 9.40625 43.394531 6.210938 39.207031 6.210938 C 37.847656 6.210938 36.488281 6.554688 35.246094 7.179688 C 33.714844 5.867188 31.847656 5.183594 29.8125 5.183594 C 27.828125 5.183594 25.960938 5.867188 24.433594 7.125 C 23.246094 6.496094 21.945312 6.152344 20.585938 6.152344 C 16.339844 6.152344 12.832031 9.347656 12.320312 13.453125 C 7.738281 13.511719 4.058594 17.277344 4.058594 21.839844 C 4.058594 23.152344 4.339844 24.40625 4.90625 25.546875 C 2.699219 27.085938 1.339844 29.59375 1.339844 32.390625 C 1.339844 36.953125 4.964844 40.71875 9.492188 40.773438 C 10.398438 44.480469 13.738281 47.105469 17.585938 47.105469 C 20.527344 47.105469 23.246094 45.507812 24.714844 43.054688 C 24.886719 43.171875 25.054688 43.339844 25.28125 43.457031 C 25.339844 54.347656 22.167969 62.621094 15.832031 68.152344 C 15.378906 68.550781 15.320312 69.292969 15.71875 69.75 C 16.113281 70.207031 16.847656 70.261719 17.300781 69.863281 C 24.320312 63.816406 27.773438 54.691406 27.601562 42.769531 C 27.601562 42.371094 27.375 41.972656 26.980469 41.800781 C 26.300781 41.460938 25.734375 41.003906 25.226562 40.433594 C 24.941406 40.148438 24.546875 39.976562 24.152344 40.089844 C 23.753906 40.148438 23.414062 40.433594 23.300781 40.832031 C 22.453125 43.285156 20.132812 44.882812 17.585938 44.882812 C 14.527344 44.882812 11.925781 42.542969 11.527344 39.519531 C 11.472656 38.894531 10.90625 38.4375 10.285156 38.550781 C 10.058594 38.550781 9.886719 38.609375 9.660156 38.609375 C 6.320312 38.550781 3.605469 35.753906 3.605469 32.390625 C 3.605469 30.050781 4.90625 28 6.945312 26.914062 C 7.226562 26.742188 7.453125 26.515625 7.511719 26.171875 C 7.566406 25.832031 7.511719 25.546875 7.339844 25.261719 C 6.660156 24.234375 6.265625 23.035156 6.265625 21.839844 C 6.265625 18.472656 8.980469 15.734375 12.378906 15.734375 C 12.605469 15.734375 12.886719 15.734375 13.171875 15.792969 C 13.511719 15.851562 13.851562 15.734375 14.074219 15.507812 C 14.300781 15.28125 14.472656 14.9375 14.472656 14.652344 L 14.472656 14.59375 C 14.472656 11.230469 17.1875 8.433594 20.585938 8.433594 C 21.773438 8.433594 22.960938 8.777344 23.980469 9.460938 C 24.433594 9.746094 25.054688 9.691406 25.453125 9.289062 C 26.640625 8.09375 28.167969 7.410156 29.867188 7.410156 C 31.566406 7.410156 33.148438 8.09375 34.28125 9.347656 C 34.679688 9.746094 35.300781 9.804688 35.753906 9.519531 C 36.773438 8.835938 37.960938 8.433594 39.207031 8.433594 C 42.546875 8.433594 45.320312 11.171875 45.320312 14.539062 C 45.320312 14.539062 45.320312 14.652344 45.320312 14.652344 C 45.320312 14.996094 45.433594 15.335938 45.714844 15.566406 C 46 15.792969 46.335938 15.90625 46.621094 15.851562 C 46.960938 15.792969 47.300781 15.734375 47.640625 15.734375 C 50.980469 15.734375 53.753906 18.472656 53.753906 21.839844 C 53.753906 22.921875 53.46875 24.007812 52.902344 24.976562 C 52.621094 25.488281 52.734375 26.171875 53.242188 26.515625 C 54.828125 27.65625 55.789062 29.539062 55.789062 31.535156 C 55.789062 34.898438 53.074219 37.636719 49.734375 37.636719 C 49.734375 37.636719 49.675781 37.636719 49.675781 37.636719 C 49.335938 37.636719 49.054688 37.75 48.828125 38.035156 C 48.601562 38.320312 48.488281 38.609375 48.546875 38.949219 C 48.601562 39.234375 48.601562 39.519531 48.601562 39.75 C 48.601562 43.113281 45.886719 45.90625 42.488281 45.90625 C 39.601562 45.90625 37.054688 43.855469 36.488281 41.003906 C 36.433594 40.546875 36.09375 40.261719 35.640625 40.148438 C 35.246094 40.035156 34.792969 40.203125 34.507812 40.488281 C 33.941406 41.175781 33.207031 41.6875 32.472656 42.085938 C 32.074219 42.257812 31.847656 42.65625 31.792969 43.113281 C 31.621094 54.921875 35.074219 63.988281 42.035156 70.035156 C 42.488281 70.433594 43.226562 70.375 43.621094 69.921875 C 44.015625 69.464844 43.960938 68.722656 43.507812 68.324219 C 37.113281 62.675781 33.941406 54.464844 33.941406 43.683594 Z M 33.941406 43.683594 " fill-opacity="1" fill-rule="nonzero"/></g><path fill="rgb(28.239441%, 43.139648%, 38.42926%)" d="M 30.886719 60.792969 C 30.773438 60.28125 30.320312 59.882812 29.753906 59.882812 L 29.414062 59.882812 C 28.90625 59.882812 28.453125 60.222656 28.339844 60.738281 C 28.339844 60.738281 27.828125 62.847656 25.792969 66.097656 C 25.054688 67.296875 26.925781 68.550781 27.714844 67.296875 C 28.566406 65.929688 29.1875 64.730469 29.585938 63.816406 C 30.035156 64.789062 30.601562 65.929688 31.453125 67.296875 C 31.792969 67.808594 32.472656 67.980469 33.035156 67.640625 C 33.546875 67.296875 33.714844 66.613281 33.375 66.042969 C 31.394531 62.847656 30.941406 60.792969 30.886719 60.792969 Z M 30.886719 60.792969 " fill-opacity="1" fill-rule="nonzero"/><path fill="rgb(28.239441%, 43.139648%, 38.42926%)" d="M 59.242188 62.21875 C 59.863281 62.105469 61.902344 61.992188 62.75 62.960938 C 63.148438 63.417969 63.882812 63.417969 64.335938 63.019531 C 64.789062 62.5625 64.789062 61.878906 64.394531 61.421875 C 62.582031 59.484375 59.242188 59.9375 58.847656 59.996094 C 58.222656 60.109375 57.828125 60.679688 57.941406 61.308594 C 58.054688 61.933594 58.621094 62.335938 59.242188 62.21875 Z M 59.242188 62.21875 " fill-opacity="1" fill-rule="nonzero"/><path fill="rgb(28.239441%, 43.139648%, 38.42926%)" d="M 18.09375 24.632812 C 17.527344 24.347656 16.847656 24.632812 16.566406 25.203125 C 15.320312 27.882812 16.398438 31.078125 18.945312 32.390625 C 19.507812 32.675781 20.1875 32.449219 20.472656 31.878906 C 20.753906 31.308594 20.527344 30.621094 19.960938 30.335938 C 18.492188 29.59375 17.867188 27.714844 18.605469 26.117188 C 18.886719 25.546875 18.660156 24.917969 18.09375 24.632812 Z M 18.09375 24.632812 " fill-opacity="1" fill-rule="nonzero"/><path fill="rgb(28.239441%, 43.139648%, 38.42926%)" d="M 39.320312 30.335938 C 38.753906 30.621094 38.527344 31.308594 38.808594 31.878906 C 39.09375 32.449219 39.773438 32.675781 40.339844 32.390625 C 42.886719 31.078125 43.960938 27.828125 42.714844 25.203125 C 42.433594 24.632812 41.753906 24.40625 41.1875 24.632812 C 40.621094 24.917969 40.394531 25.601562 40.621094 26.171875 C 41.355469 27.714844 40.789062 29.59375 39.320312 30.335938 Z M 39.320312 30.335938 " fill-opacity="1" fill-rule="nonzero"/><path fill="rgb(28.239441%, 43.139648%, 38.42926%)" d="M 31.734375 17.847656 C 32.1875 18.246094 32.921875 18.246094 33.320312 17.730469 C 33.714844 17.277344 33.714844 16.535156 33.207031 16.136719 C 31.167969 14.308594 27.941406 14.367188 26.019531 16.25 C 25.566406 16.707031 25.566406 17.390625 25.960938 17.847656 C 26.359375 18.246094 27.09375 18.300781 27.546875 17.902344 C 28.734375 16.875 30.546875 16.820312 31.734375 17.847656 Z M 31.734375 17.847656 " fill-opacity="1" fill-rule="nonzero"/></svg>