<svg width="100%" height="100%" id="svg" viewBox="0 0 1440 400" xmlns="http://www.w3.org/2000/svg" class="transition duration-300 ease-in-out delay-150"><path d="M 0,400 C 0,400 0,133 0,133 C 98.35406698564591,118.99043062200957 196.70813397129183,104.98086124401914 300,105 C 403.29186602870817,105.01913875598086 511.52153110047846,119.06698564593302 606,132 C 700.4784688995215,144.93301435406698 781.2057416267942,156.7511961722488 874,159 C 966.7942583732058,161.2488038277512 1071.6555023923445,153.92822966507177 1168,148 C 1264.3444976076555,142.07177033492823 1352.1722488038276,137.53588516746413 1440,133 C 1440,133 1440,400 1440,400 Z" stroke="none" stroke-width="0" fill="#486e6288" class="transition-all duration-300 ease-in-out delay-150 path-0"></path><path d="M 0,400 C 0,400 0,266 0,266 C 78.22009569377991,262.8421052631579 156.44019138755982,259.6842105263158 246,252 C 335.5598086124402,244.31578947368422 436.45933014354057,232.10526315789474 545,235 C 653.5406698564594,237.89473684210526 769.7224880382777,255.89473684210526 859,267 C 948.2775119617223,278.10526315789474 1010.6507177033491,282.3157894736842 1103,281 C 1195.349282296651,279.6842105263158 1317.6746411483255,272.8421052631579 1440,266 C 1440,266 1440,400 1440,400 Z" stroke="none" stroke-width="0" fill="#486e62ff" class="transition-all duration-300 ease-in-out delay-150 path-1"></path></svg>
