<?xml version="1.0" encoding="UTF-8"?><svg xmlns="http://www.w3.org/2000/svg" xmlns:xlink="http://www.w3.org/1999/xlink" width="45pt" zoomAndPan="magnify" viewBox="0 0 45 44.999999" height="44.999999pt" preserveAspectRatio="xMidYMid meet" version="1.2"><defs><clipPath xml:id="clip1" id="clip1"><path d="M 7.453125 0 L 37.453125 0 L 37.453125 45 L 7.453125 45 Z M 7.453125 0 "/></clipPath><clipPath xml:id="clip2" id="clip2"><path d="M 30 10 L 34.460938 10 L 34.460938 13 L 30 13 Z M 30 10 "/></clipPath><clipPath xml:id="clip3" id="clip3"><path d="M 10.460938 4.5 L 34.460938 4.5 L 34.460938 30 L 10.460938 30 Z M 10.460938 4.5 "/></clipPath></defs><g xml:id="surface1" id="surface1"><g clip-rule="nonzero" clip-path="url(#clip1)"><path style=" stroke:none;fill-rule:nonzero;fill:rgb(92.549133%,39.219666%,19.999695%);fill-opacity:1;" d="M 22.453125 0 C 14.191406 0 7.5 6.714844 7.5 15 C 7.496094 17.8125 8.269531 20.441406 9.609375 22.691406 L 22.449219 45 L 35.300781 22.675781 C 36.636719 20.429688 37.40625 17.804688 37.40625 15 C 37.40625 6.714844 30.710938 0 22.453125 0 Z M 22.453125 20.019531 C 19.6875 20.019531 17.449219 17.773438 17.449219 15 C 17.449219 12.226562 19.6875 9.980469 22.453125 9.980469 C 25.214844 9.980469 27.457031 12.226562 27.457031 15 C 27.457031 17.773438 25.214844 20.019531 22.453125 20.019531 Z M 22.453125 20.019531 "/></g><path style=" stroke:none;fill-rule:nonzero;fill:rgb(92.549133%,39.219666%,19.999695%);fill-opacity:1;" d="M 22.351562 4.5 C 21.660156 4.5 20.976562 4.566406 20.300781 4.703125 C 19.625 4.835938 18.96875 5.035156 18.332031 5.300781 C 17.695312 5.5625 17.089844 5.886719 16.515625 6.269531 C 15.941406 6.652344 15.414062 7.085938 14.925781 7.574219 C 14.4375 8.0625 14.003906 8.59375 13.621094 9.167969 C 13.238281 9.738281 12.914062 10.34375 12.648438 10.980469 C 12.386719 11.617188 12.1875 12.273438 12.050781 12.953125 C 11.917969 13.628906 11.851562 14.3125 11.851562 15 C 11.851562 15.6875 11.917969 16.371094 12.050781 17.046875 C 12.1875 17.726562 12.386719 18.382812 12.648438 19.019531 C 12.914062 19.65625 13.238281 20.261719 13.621094 20.832031 C 14.003906 21.40625 14.4375 21.9375 14.925781 22.425781 C 15.414062 22.914062 15.941406 23.347656 16.515625 23.730469 C 17.089844 24.113281 17.695312 24.4375 18.332031 24.699219 C 18.96875 24.964844 19.625 25.164062 20.300781 25.296875 C 20.976562 25.433594 21.660156 25.5 22.351562 25.5 C 23.039062 25.5 23.722656 25.433594 24.398438 25.296875 C 25.074219 25.164062 25.730469 24.964844 26.367188 24.699219 C 27.003906 24.4375 27.609375 24.113281 28.183594 23.730469 C 28.757812 23.347656 29.289062 22.914062 29.773438 22.425781 C 30.261719 21.9375 30.699219 21.40625 31.082031 20.832031 C 31.464844 20.261719 31.785156 19.65625 32.050781 19.019531 C 32.316406 18.382812 32.515625 17.726562 32.648438 17.046875 C 32.78125 16.371094 32.851562 15.6875 32.851562 15 C 32.851562 14.3125 32.78125 13.628906 32.648438 12.953125 C 32.515625 12.273438 32.316406 11.617188 32.050781 10.980469 C 31.785156 10.34375 31.464844 9.738281 31.082031 9.167969 C 30.699219 8.59375 30.261719 8.0625 29.773438 7.574219 C 29.289062 7.085938 28.757812 6.652344 28.183594 6.269531 C 27.609375 5.886719 27.003906 5.5625 26.367188 5.300781 C 25.730469 5.035156 25.074219 4.835938 24.398438 4.703125 C 23.722656 4.566406 23.039062 4.5 22.351562 4.5 Z M 22.351562 4.5 "/><path style=" stroke:none;fill-rule:nonzero;fill:rgb(100%,100%,100%);fill-opacity:1;" d="M 16.859375 10.527344 C 18.355469 8.925781 16.492188 7.550781 16.492188 7.550781 C 16.492188 7.550781 15.019531 9.328125 16.859375 10.527344 Z M 16.859375 10.527344 "/><path style=" stroke:none;fill-rule:nonzero;fill:rgb(100%,100%,100%);fill-opacity:1;" d="M 19.480469 8.839844 C 20.195312 6.777344 17.933594 6.261719 17.933594 6.261719 C 17.933594 6.261719 17.3125 8.476562 19.480469 8.839844 Z M 19.480469 8.839844 "/><path style=" stroke:none;fill-rule:nonzero;fill:rgb(100%,100%,100%);fill-opacity:1;" d="M 20.644531 8.765625 C 22.179688 7.203125 20.355469 5.78125 20.355469 5.78125 C 20.355469 5.78125 18.835938 7.523438 20.644531 8.765625 Z M 20.644531 8.765625 "/><g clip-rule="nonzero" clip-path="url(#clip2)"><path style=" stroke:none;fill-rule:nonzero;fill:rgb(100%,100%,100%);fill-opacity:1;" d="M 30.996094 11.625 C 32.421875 13.289062 34.027344 11.625 34.027344 11.625 C 34.027344 11.625 32.421875 9.964844 30.996094 11.625 Z M 30.996094 11.625 "/></g><g clip-rule="nonzero" clip-path="url(#clip3)"><path style=" stroke:none;fill-rule:nonzero;fill:rgb(100%,100%,100%);fill-opacity:1;" d="M 34.453125 14.476562 C 34.453125 14.476562 33.425781 12.503906 31.644531 13.570312 C 31.058594 13.425781 30.265625 13.269531 29.253906 13.164062 C 29.253906 13.164062 29.914062 12.335938 30.265625 12.1875 C 30.265625 12.1875 30.894531 11.691406 31.109375 11.207031 C 31.109375 11.207031 31.394531 10.90625 31.695312 10.691406 C 33.800781 11.167969 34.105469 8.914062 34.105469 8.914062 C 34.105469 8.914062 31.824219 8.511719 31.65625 10.671875 C 31.453125 10.808594 31.195312 10.996094 31.050781 11.183594 C 31.050781 11.183594 31.09375 10.3125 31.421875 9.894531 L 31.363281 9.894531 C 31.363281 9.894531 30.996094 10.417969 30.949219 11.171875 C 30.949219 11.171875 30.367188 11.96875 30.179688 12.050781 C 30.179688 12.050781 29.195312 12.75 29.066406 13.136719 C 29.066406 13.136719 28.871094 13.25 28.613281 13.390625 C 29.511719 12.394531 28.660156 11.011719 28.660156 11.011719 C 28.660156 11.011719 26.707031 12.078125 27.8125 13.804688 C 27.695312 13.863281 27.59375 13.902344 27.535156 13.917969 C 27.535156 13.917969 26.410156 13.863281 26.222656 13.96875 C 26.222656 13.96875 26.398438 13.410156 26.503906 12.828125 C 28.28125 11.800781 27.050781 9.964844 27.050781 9.964844 C 27.050781 9.964844 25.140625 11.101562 26.304688 12.785156 C 26.027344 13.519531 25.335938 15.117188 24.339844 15.984375 C 24.339844 15.984375 24.15625 16.078125 24.210938 15.71875 C 24.210938 15.71875 24.226562 15.550781 24.222656 15.324219 C 24.417969 15.234375 24.53125 15.234375 24.53125 15.234375 L 24.507812 15.164062 C 24.417969 15.148438 24.320312 15.164062 24.222656 15.195312 C 24.207031 14.816406 24.136719 14.34375 23.886719 14.164062 L 23.824219 14.195312 C 23.824219 14.195312 24.082031 14.460938 24.078125 15.253906 C 23.605469 15.484375 23.125 16.046875 23.125 16.046875 C 22.898438 16.347656 22.835938 16.148438 22.835938 16.148438 C 22.792969 15.390625 22.988281 14.539062 23.230469 13.808594 C 23.332031 13.734375 23.5 13.605469 23.5625 13.503906 C 23.5625 13.503906 23.621094 13.46875 23.785156 13.492188 L 23.984375 13.546875 C 23.984375 13.546875 24.019531 13.5625 24.101562 13.53125 L 24.394531 13.449219 C 24.394531 13.449219 25.003906 13.605469 25.40625 13.867188 L 25.425781 13.855469 C 25.425781 13.855469 25.15625 13.628906 24.53125 13.386719 C 24.53125 13.386719 24.765625 13.214844 24.867188 13.199219 C 24.867188 13.199219 25.070312 13.117188 25.164062 13.003906 C 25.164062 13.003906 25.335938 12.898438 25.445312 12.886719 L 25.441406 12.875 C 25.441406 12.875 25.246094 12.921875 25.148438 12.992188 C 25.148438 12.992188 25.222656 12.765625 25.339844 12.679688 L 25.324219 12.675781 C 25.324219 12.675781 25.191406 12.789062 25.121094 12.984375 C 25.121094 12.984375 24.910156 13.148438 24.855469 13.160156 C 24.855469 13.160156 24.546875 13.273438 24.484375 13.363281 C 24.484375 13.363281 24.109375 13.460938 24.023438 13.460938 C 24.023438 13.460938 23.734375 13.363281 23.675781 13.378906 C 23.675781 13.378906 23.8125 13.167969 23.882812 12.988281 L 23.851562 12.980469 C 23.851562 12.980469 23.613281 13.34375 23.300781 13.597656 C 23.484375 13.082031 23.679688 12.640625 23.808594 12.359375 C 25.855469 12.238281 25.597656 10.054688 25.597656 10.054688 C 25.597656 10.054688 23.359375 10.210938 23.648438 12.253906 C 23.277344 12.761719 22.96875 13.332031 22.96875 13.332031 C 22.925781 13.171875 22.4375 12.695312 22.195312 12.46875 C 22.363281 12.238281 22.886719 11.539062 23.179688 11.269531 C 23.179688 11.269531 23.777344 10.566406 23.898438 10.160156 C 23.898438 10.160156 24.011719 10.039062 24.402344 9.988281 L 24.894531 9.984375 C 24.894531 9.984375 24.976562 9.992188 25.148438 9.875 L 25.765625 9.492188 C 25.765625 9.492188 26.652344 9.464844 27.554688 9.605469 C 28.109375 11.628906 30.242188 10.875 30.242188 10.875 C 30.242188 10.875 29.910156 9.792969 29.007812 9.441406 C 28.90625 9.351562 28.765625 9.234375 28.570312 9.105469 C 29.992188 9.574219 30.875 8.039062 30.875 8.039062 C 30.875 8.039062 28.984375 6.867188 27.996094 8.660156 C 27.878906 8.765625 27.53125 9.058594 27.203125 9.140625 C 27.203125 9.140625 27.152344 9.140625 27.203125 9.070312 C 27.203125 9.070312 27.367188 8.824219 27.308594 8.710938 L 27.292969 8.710938 C 27.292969 8.710938 27.324219 8.824219 27.171875 9.046875 C 27.171875 9.046875 27.136719 9.097656 27.066406 9.136719 L 26.761719 9.339844 C 26.542969 9.308594 26.296875 9.277344 26.03125 9.253906 C 26.03125 9.253906 26.453125 8.710938 26.679688 8.613281 C 26.679688 8.613281 27.085938 8.285156 27.21875 7.96875 C 27.21875 7.96875 27.546875 7.613281 27.785156 7.519531 L 27.769531 7.492188 C 27.769531 7.492188 27.351562 7.726562 27.183594 7.953125 C 27.183594 7.953125 27.191406 7.683594 27.265625 7.425781 C 29.40625 7.070312 28.8125 4.867188 28.8125 4.867188 C 28.8125 4.867188 26.558594 5.355469 27.230469 7.40625 C 27.175781 7.550781 27.125 7.734375 27.117188 7.949219 C 27.117188 7.949219 26.742188 8.46875 26.621094 8.523438 C 26.621094 8.523438 25.992188 8.984375 25.910156 9.238281 C 25.910156 9.238281 25.117188 9.703125 24.921875 9.757812 C 24.921875 9.757812 24.191406 9.730469 24.074219 9.800781 C 24.074219 9.800781 24.160156 9.503906 24.222656 9.171875 C 26.246094 8.765625 25.671875 6.632812 25.671875 6.632812 C 25.671875 6.632812 23.445312 7.117188 24.078125 9.136719 C 23.878906 9.648438 23.460938 10.589844 22.867188 11.121094 C 22.867188 11.121094 22.75 11.1875 22.78125 10.949219 C 22.78125 10.949219 22.8125 10.578125 22.738281 10.273438 C 24.476562 9.097656 23.066406 7.351562 23.066406 7.351562 C 23.066406 7.351562 21.1875 8.707031 22.660156 10.324219 C 22.691406 10.472656 22.703125 10.671875 22.675781 10.9375 C 22.675781 10.9375 22.648438 11.105469 22.535156 11.292969 L 22.023438 12.273438 C 21.851562 11.882812 21.53125 10.671875 21.53125 10.671875 C 21.726562 10.296875 21.535156 9.085938 21.535156 9.085938 C 21.464844 8.890625 21.628906 7.894531 21.628906 7.894531 C 21.894531 7.601562 22.058594 7.289062 22.152344 7.054688 C 24.285156 6.699219 23.695312 4.5 23.695312 4.5 C 23.695312 4.5 21.453125 4.988281 22.105469 7.023438 C 21.90625 7.445312 21.546875 7.828125 21.546875 7.828125 C 21.609375 7.382812 21.40625 6.664062 21.40625 6.664062 L 21.359375 6.671875 C 21.519531 7.042969 21.488281 7.804688 21.488281 7.804688 C 21.285156 8.304688 21.371094 9.121094 21.371094 9.121094 C 21.515625 9.484375 21.378906 10.558594 21.378906 10.558594 C 21.3125 10.5 21.242188 10.445312 21.175781 10.390625 C 21.140625 9.457031 20.269531 8.777344 20.269531 8.777344 C 20.269531 8.777344 20.039062 9.042969 19.867188 9.4375 C 18.804688 8.738281 18.179688 8.503906 18.179688 8.503906 L 18.175781 8.597656 C 18.734375 8.882812 19.289062 9.269531 19.78125 9.660156 C 19.582031 10.253906 19.582031 11.050781 20.492188 11.71875 C 20.460938 11.949219 20.429688 12.21875 20.410156 12.53125 C 20.410156 12.53125 19.984375 12.230469 19.902344 12.0625 C 19.902344 12.0625 19.640625 11.765625 19.398438 11.671875 C 19.398438 11.671875 19.117188 11.4375 19.039062 11.261719 L 19.019531 11.273438 C 19.019531 11.273438 19.207031 11.578125 19.386719 11.703125 C 19.386719 11.703125 18.953125 11.703125 18.738281 11.550781 L 18.742188 11.582031 C 18.742188 11.582031 19.007812 11.746094 19.382812 11.753906 C 19.382812 11.753906 19.792969 12.019531 19.835938 12.105469 C 19.835938 12.105469 20.207031 12.570312 20.402344 12.621094 C 20.402344 12.621094 20.777344 13.207031 20.824219 13.351562 C 20.824219 13.351562 20.820312 13.898438 20.878906 13.988281 C 20.878906 13.988281 20.433594 13.875 20.085938 13.859375 L 20.09375 13.914062 C 20.09375 13.914062 21.136719 14.195312 21.769531 14.722656 C 21.5625 15.128906 21.367188 15.257812 21.367188 15.257812 C 20.832031 14.441406 19.503906 13.839844 19.503906 13.839844 C 18.628906 13.402344 18.023438 12.710938 18.023438 12.710938 C 17.683594 11.835938 18.492188 11.214844 18.492188 11.214844 L 18.363281 11.132812 C 18.042969 11.183594 17.757812 11.613281 17.757812 11.613281 C 17.671875 11.117188 17.808594 9.835938 17.808594 9.835938 L 17.707031 9.769531 C 17.085938 11.664062 17.773438 12.695312 17.773438 12.695312 C 16.679688 12.046875 15.992188 10.199219 15.992188 10.199219 L 15.824219 10.199219 C 16.121094 11.273438 16.722656 12.109375 17.339844 12.734375 C 17.324219 12.785156 17.304688 12.875 17.28125 12.992188 C 17.152344 13.023438 17.03125 13.0625 16.945312 13.109375 C 16.945312 13.109375 16.808594 13.113281 16.546875 12.917969 L 16.257812 12.636719 C 16.257812 12.636719 16.210938 12.582031 16.042969 12.554688 L 15.457031 12.417969 C 15.457031 12.417969 14.554688 11.582031 14.117188 10.75 L 14.066406 10.75 C 14.066406 10.75 14.3125 11.394531 15.160156 12.402344 C 15.160156 12.402344 14.589844 12.476562 14.398438 12.402344 C 14.398438 12.402344 13.96875 12.359375 13.703125 12.464844 C 13.703125 12.464844 13.390625 12.480469 13.179688 12.425781 C 11.851562 11.300781 10.464844 12.722656 10.464844 12.722656 C 10.464844 12.722656 12.058594 14.394531 13.492188 12.742188 C 13.488281 12.738281 13.488281 12.734375 13.484375 12.730469 C 13.570312 12.683594 13.664062 12.621094 13.753906 12.539062 C 13.753906 12.539062 14.277344 12.453125 14.382812 12.488281 C 14.382812 12.488281 15.023438 12.585938 15.21875 12.484375 C 15.21875 12.484375 15.960938 12.667969 16.105469 12.75 C 16.105469 12.75 16.515625 13.191406 16.628906 13.21875 C 16.628906 13.21875 16.574219 13.25 16.492188 13.296875 C 14.601562 12.328125 13.722656 14.40625 13.722656 14.40625 C 13.722656 14.40625 15.707031 15.332031 16.488281 13.496094 C 16.703125 13.410156 16.96875 13.316406 17.25 13.246094 C 17.222656 13.546875 17.234375 13.929688 17.386719 14.289062 C 17.222656 14.351562 17.007812 14.421875 16.808594 14.445312 L 16.800781 14.464844 C 16.800781 14.464844 17.019531 14.464844 17.410156 14.347656 C 17.441406 14.410156 17.472656 14.472656 17.511719 14.535156 C 17.503906 14.550781 17.496094 14.566406 17.488281 14.574219 C 17.488281 14.574219 17.410156 14.730469 17.414062 14.847656 C 17.414062 14.847656 17.363281 15 17.304688 15.066406 L 17.3125 15.070312 C 17.3125 15.070312 17.40625 14.941406 17.425781 14.847656 C 17.425781 14.847656 17.5 15.023438 17.476562 15.136719 L 17.488281 15.128906 C 17.488281 15.128906 17.511719 14.992188 17.449219 14.839844 C 17.449219 14.839844 17.488281 14.628906 17.519531 14.59375 C 17.519531 14.59375 17.523438 14.582031 17.53125 14.566406 C 17.75 14.890625 18.113281 15.167969 18.707031 15.3125 C 19.003906 15.746094 19.367188 16.144531 19.367188 16.144531 C 19.183594 16.128906 18.335938 16.570312 18.335938 16.570312 C 18.226562 16.589844 17.953125 16.582031 17.667969 16.566406 C 17.125 15.15625 15.351562 15.484375 15.351562 15.484375 C 15.351562 15.484375 15.386719 15.730469 15.507812 16.039062 C 15.242188 15.953125 14.703125 15.652344 14.703125 15.652344 C 14.390625 15.085938 13.921875 14.8125 13.921875 14.8125 L 13.875 14.832031 C 14.277344 15.039062 14.628906 15.699219 14.628906 15.699219 C 14.40625 15.585938 14.0625 15.527344 13.851562 15.5 C 12.417969 13.90625 10.847656 15.5625 10.847656 15.5625 C 10.847656 15.5625 12.46875 17.207031 13.875 15.535156 C 14.203125 15.582031 14.589844 15.738281 14.589844 15.738281 C 14.890625 16 15.449219 16.15625 15.574219 16.191406 C 15.695312 16.453125 15.875 16.738281 16.148438 16.957031 C 16.113281 16.976562 16.082031 17 16.050781 17.019531 C 15.921875 17.046875 15.691406 17.105469 15.578125 17.175781 C 15.578125 17.175781 15.507812 17.1875 15.359375 17.09375 L 15.1875 16.957031 C 15.1875 16.957031 15.164062 16.929688 15.070312 16.921875 L 14.75 16.878906 C 14.75 16.878906 14.226562 16.472656 13.953125 16.050781 L 13.925781 16.054688 C 13.925781 16.054688 14.089844 16.386719 14.589844 16.886719 C 14.589844 16.886719 14.292969 16.953125 14.1875 16.921875 C 14.1875 16.921875 13.953125 16.917969 13.816406 16.988281 C 13.816406 16.988281 13.691406 17.003906 13.582031 16.996094 C 11.886719 15.925781 10.785156 17.804688 10.785156 17.804688 C 10.785156 17.804688 12.710938 19.027344 13.707031 17.144531 C 13.753906 17.113281 13.800781 17.074219 13.847656 17.027344 C 13.847656 17.027344 14.121094 16.953125 14.179688 16.96875 C 14.179688 16.96875 14.527344 16.988281 14.628906 16.925781 C 14.628906 16.925781 15.03125 16.988281 15.113281 17.027344 C 15.113281 17.027344 15.355469 17.242188 15.417969 17.25 C 15.417969 17.25 15.191406 17.398438 15.050781 17.542969 L 15.078125 17.5625 C 15.078125 17.5625 15.363281 17.375 15.707031 17.25 C 14.996094 17.742188 14.566406 18.136719 14.363281 18.339844 C 12.28125 18.820312 12.980469 20.96875 12.980469 20.96875 C 12.980469 20.96875 15.179688 20.371094 14.441406 18.386719 C 15.050781 17.867188 15.820312 17.417969 16.386719 17.117188 C 16.734375 17.304688 17.195312 17.386719 17.796875 17.238281 C 17.90625 17.351562 18.101562 17.539062 18.410156 17.773438 C 18.375 17.980469 18.375 18.179688 18.386719 18.355469 C 18.382812 18.355469 18.378906 18.355469 18.375 18.355469 C 18.375 18.355469 18.023438 18.425781 17.839844 18.574219 C 17.839844 18.574219 17.527344 18.683594 17.351562 18.667969 L 17.351562 18.6875 C 17.351562 18.6875 17.679688 18.679688 17.855469 18.59375 C 17.855469 18.59375 17.769531 18.746094 17.644531 18.878906 C 17.644531 18.867188 17.640625 18.855469 17.636719 18.84375 C 15.441406 19.007812 15.855469 21.273438 15.855469 21.273438 C 15.855469 21.273438 18.113281 20.96875 17.652344 18.910156 C 17.730469 18.839844 17.820312 18.746094 17.894531 18.617188 C 17.894531 18.617188 18.289062 18.421875 18.378906 18.425781 C 18.378906 18.425781 18.382812 18.421875 18.390625 18.421875 C 18.421875 18.746094 18.5 18.976562 18.5 18.976562 C 18.5 18.976562 19.242188 18.769531 19.714844 18.203125 C 19.753906 18.203125 19.789062 18.207031 19.808594 18.210938 C 19.808594 18.210938 20.242188 18.460938 20.335938 18.453125 C 20.335938 18.453125 20.144531 18.648438 19.984375 18.867188 C 18.019531 19.726562 19.125 21.707031 19.125 21.707031 C 19.125 21.707031 21.164062 20.710938 20.066406 18.902344 C 20.28125 18.710938 20.714844 18.351562 21.171875 18.148438 C 21.191406 18.375 21.230469 18.710938 21.316406 18.867188 C 21.316406 18.867188 21.875 25.074219 21.316406 27.648438 C 21.316406 27.648438 20.84375 29.335938 20.84375 30 L 23.621094 30 C 23.621094 29.335938 23.152344 27.648438 23.152344 27.648438 C 22.59375 25.078125 23.152344 18.867188 23.152344 18.867188 C 23.199219 18.785156 23.230469 18.652344 23.253906 18.511719 C 23.578125 18.417969 23.953125 18.300781 24.164062 18.207031 C 24.164062 18.207031 24.957031 18.296875 25.632812 18.984375 C 25.632812 18.984375 26.601562 19.964844 28.039062 20.253906 C 29.542969 21.652344 30.96875 19.957031 30.96875 19.957031 C 30.96875 19.957031 29.304688 18.457031 28.007812 20.082031 C 27.640625 20 27.253906 19.863281 26.980469 19.640625 C 26.980469 19.640625 27.839844 19.84375 28.96875 18.972656 L 28.898438 18.921875 C 28.898438 18.921875 28.066406 19.324219 27.710938 19.390625 C 27.710938 19.390625 27.933594 19.09375 27.890625 18.871094 L 27.800781 18.804688 C 27.800781 18.804688 27.582031 19.488281 26.90625 19.480469 C 26.90625 19.480469 26.660156 19.386719 26.355469 19.199219 C 26.515625 19.039062 26.804688 18.734375 26.898438 18.523438 C 26.898438 18.523438 26.996094 18.441406 27.300781 18.4375 L 27.679688 18.476562 C 27.679688 18.476562 27.746094 18.492188 27.886719 18.417969 L 28.398438 18.179688 C 28.398438 18.179688 28.867188 18.222656 29.417969 18.34375 C 30.207031 20.277344 32.234375 19.289062 32.234375 19.289062 C 32.234375 19.289062 31.316406 17.21875 29.441406 18.230469 C 29.210938 18.160156 28.941406 18.085938 28.625 18.019531 C 28.625 18.019531 29 17.640625 29.183594 17.585938 C 29.183594 17.585938 29.503906 17.382812 29.644531 17.160156 C 31.023438 18.800781 32.648438 17.195312 32.648438 17.195312 C 32.648438 17.195312 31.089844 15.507812 29.632812 17.109375 C 29.648438 17.035156 29.71875 16.671875 29.886719 16.5 L 29.855469 16.5 C 29.855469 16.5 29.644531 16.738281 29.578125 17.113281 C 29.578125 17.113281 29.246094 17.480469 29.148438 17.515625 C 29.148438 17.515625 28.617188 17.808594 28.53125 17.996094 C 28.53125 17.996094 27.878906 18.28125 27.722656 18.304688 C 27.722656 18.304688 27.164062 18.21875 27.066406 18.261719 C 27.066406 18.261719 27.25 17.835938 27.320312 17.488281 L 27.261719 17.488281 C 27.261719 17.488281 26.800781 18.523438 26.148438 19.066406 C 26.027344 18.984375 25.902344 18.886719 25.785156 18.777344 C 25.785156 18.777344 25.058594 18.046875 24.375 17.890625 C 24.375 17.890625 24.464844 17.535156 25.125 17.09375 C 26.5 17.410156 27.109375 16.527344 27.363281 15.90625 C 27.554688 16.269531 27.984375 16.914062 28.757812 17.195312 L 28.765625 17.128906 C 28.765625 17.128906 28.023438 16.785156 27.792969 16.320312 C 27.792969 16.320312 28.195312 16.632812 29.003906 16.445312 L 28.976562 16.402344 C 28.976562 16.402344 28.441406 16.414062 28.238281 16.363281 C 28.238281 16.363281 28.429688 16.261719 28.460938 16.132812 L 28.429688 16.078125 C 28.429688 16.078125 28.144531 16.382812 27.792969 16.214844 C 27.792969 16.214844 27.589844 16.007812 27.4375 15.707031 C 27.503906 15.5 27.527344 15.359375 27.527344 15.359375 C 27.527344 15.359375 27.425781 15.335938 27.265625 15.324219 C 27.175781 15.144531 27.035156 14.910156 26.855469 14.769531 C 26.855469 14.769531 27.0625 14.511719 27.84375 14.5 L 27.855469 14.433594 C 27.855469 14.433594 27.015625 14.417969 26.699219 14.640625 C 26.699219 14.640625 26.316406 14.578125 26.027344 14.464844 C 26.128906 14.402344 26.339844 14.3125 26.726562 14.265625 L 27.484375 14.265625 C 27.484375 14.265625 27.613281 14.28125 27.878906 14.101562 L 28.839844 13.527344 C 28.839844 13.527344 30.203125 13.503906 31.597656 13.738281 C 32.519531 15.582031 34.457031 14.480469 34.457031 14.480469 Z M 27.949219 8.78125 C 28.121094 8.902344 28.289062 8.996094 28.449219 9.058594 C 28.351562 9.0625 28.152344 9.066406 28.097656 9.054688 C 28.097656 9.054688 27.867188 8.921875 27.816406 8.921875 C 27.820312 8.921875 27.878906 8.863281 27.949219 8.78125 Z M 27.277344 9.238281 C 27.277344 9.238281 27.589844 9.117188 27.699219 9.007812 C 27.699219 9.007812 27.757812 8.988281 27.890625 9.039062 L 28.046875 9.121094 C 28.046875 9.121094 28.074219 9.136719 28.148438 9.128906 L 28.414062 9.113281 C 28.414062 9.113281 28.644531 9.230469 28.882812 9.398438 C 28.535156 9.292969 28.113281 9.300781 27.601562 9.5 C 27.414062 9.457031 27.195312 9.410156 26.9375 9.367188 C 27.054688 9.316406 27.191406 9.261719 27.277344 9.238281 Z M 13.457031 12.699219 C 13.375 12.605469 13.292969 12.523438 13.210938 12.453125 C 13.34375 12.480469 13.5625 12.519531 13.71875 12.496094 C 13.71875 12.496094 13.605469 12.601562 13.457031 12.699219 Z M 13.726562 17.097656 C 13.683594 17.066406 13.640625 17.039062 13.601562 17.011719 C 13.671875 17.015625 13.757812 17.019531 13.824219 17.003906 C 13.824219 17.003906 13.785156 17.046875 13.726562 17.097656 Z M 23.019531 16.703125 C 23.101562 16.367188 23.257812 16.148438 23.257812 16.148438 C 23.578125 15.757812 23.859375 15.535156 24.070312 15.40625 C 24.066406 15.496094 24.058594 15.59375 24.046875 15.695312 C 24.046875 15.695312 24.003906 15.953125 23.824219 16.238281 L 22.925781 17.910156 L 22.636719 17.910156 Z M 21.160156 14.109375 C 21.160156 14.109375 21.0625 14.027344 21.015625 13.738281 L 20.996094 13.367188 C 20.996094 13.367188 21 13.304688 20.90625 13.179688 L 20.601562 12.726562 C 20.601562 12.726562 20.570312 12.265625 20.609375 11.714844 C 20.890625 11.414062 21.050781 11.117188 21.125 10.835938 C 21.304688 11.011719 21.410156 11.121094 21.410156 11.121094 L 21.675781 12.226562 C 21.734375 12.546875 21.839844 12.632812 21.839844 12.632812 L 22.226562 13.019531 C 22.152344 13.6875 22.011719 14.167969 21.871094 14.507812 C 21.683594 14.371094 21.367188 14.164062 21.15625 14.109375 Z M 22.371094 13.167969 L 22.386719 13.183594 C 22.769531 13.667969 22.757812 13.929688 22.757812 13.929688 C 22.4375 14.515625 22.320312 15.964844 22.320312 15.964844 C 22.339844 16.40625 22.246094 17.214844 22.164062 17.808594 C 21.773438 17.160156 21.652344 15.65625 21.652344 15.65625 C 22.132812 15.09375 22.316406 13.722656 22.371094 13.167969 Z M 18.824219 15.207031 C 19.011719 14.675781 18.984375 14.246094 18.847656 13.898438 C 19.125 14.0625 19.300781 14.140625 19.300781 14.140625 C 20.546875 14.691406 21.050781 15.691406 21.050781 15.691406 C 21.027344 15.972656 21.046875 16.429688 21.074219 16.855469 C 20.113281 16.417969 19.207031 15.585938 18.824219 15.207031 Z M 17.808594 17.183594 C 17.792969 17.042969 17.769531 16.910156 17.738281 16.789062 L 18.136719 16.835938 C 18.40625 16.878906 18.5 16.820312 18.5 16.820312 L 19.085938 16.550781 C 19.238281 16.503906 19.363281 16.476562 19.464844 16.464844 C 18.816406 16.734375 18.535156 17.199219 18.433594 17.660156 C 18.21875 17.523438 17.996094 17.359375 17.808594 17.183594 Z M 20.558594 18.289062 C 20.558594 18.289062 20.453125 18.328125 20.199219 18.238281 L 19.898438 18.085938 C 19.898438 18.085938 19.875 18.070312 19.820312 18.066406 C 20.050781 17.726562 20.179688 17.28125 20.039062 16.699219 C 20.378906 16.949219 20.859375 17.191406 21.105469 17.308594 C 21.132812 17.65625 21.160156 17.910156 21.160156 17.910156 C 21.160156 17.910156 21.160156 17.917969 21.160156 17.929688 C 20.96875 18.015625 20.6875 18.160156 20.558594 18.289062 Z M 27.082031 15.316406 C 26.421875 15.308594 25.242188 15.503906 25.050781 16.972656 C 24.664062 17.195312 24.214844 17.496094 24.039062 17.800781 C 24.039062 17.800781 23.722656 17.886719 23.351562 17.949219 C 23.671875 17.523438 24.402344 16.589844 24.820312 16.214844 C 24.820312 16.214844 25.527344 15.402344 25.839844 14.78125 C 26.027344 14.8125 26.457031 14.882812 26.664062 14.886719 C 26.664062 14.886719 26.890625 15.023438 27.082031 15.316406 Z M 27.082031 15.316406 "/></g><path style=" stroke:none;fill-rule:nonzero;fill:rgb(100%,100%,100%);fill-opacity:1;" d="M 30.808594 13.765625 C 29.855469 15.730469 32.042969 16.507812 32.042969 16.507812 C 32.042969 16.507812 32.921875 14.375 30.808594 13.765625 Z M 30.808594 13.765625 "/><path style=" stroke:none;fill-rule:nonzero;fill:rgb(100%,100%,100%);fill-opacity:1;" d="M 29.480469 16.636719 C 29.480469 16.636719 31.109375 14.996094 29.386719 13.636719 C 27.753906 15.097656 29.480469 16.636719 29.480469 16.636719 Z M 29.480469 16.636719 "/><path style=" stroke:none;fill-rule:nonzero;fill:rgb(100%,100%,100%);fill-opacity:1;" d="M 26.71875 19.953125 C 25.125 21.453125 26.894531 22.949219 26.894531 22.949219 C 26.894531 22.949219 28.476562 21.265625 26.71875 19.953125 Z M 26.71875 19.953125 "/><path style=" stroke:none;fill-rule:nonzero;fill:rgb(100%,100%,100%);fill-opacity:1;" d="M 24.417969 21.773438 C 24.417969 21.773438 26.476562 20.707031 25.257812 18.890625 C 23.25 19.789062 24.417969 21.773438 24.417969 21.773438 Z M 24.417969 21.773438 "/><path style=" stroke:none;fill-rule:nonzero;fill:rgb(100%,100%,100%);fill-opacity:1;" d="M 13.707031 12.316406 C 14.613281 10.332031 12.40625 9.609375 12.40625 9.609375 C 12.40625 9.609375 11.582031 11.757812 13.707031 12.316406 Z M 13.707031 12.316406 "/><path style=" stroke:none;fill-rule:nonzero;fill:rgb(100%,100%,100%);fill-opacity:1;" d="M 14.757812 7.800781 C 14.757812 7.800781 12.808594 9.054688 14.195312 10.75 C 16.109375 9.671875 14.757812 7.800781 14.757812 7.800781 Z M 14.757812 7.800781 "/></g></svg>