<?xml version="1.0" encoding="UTF-8"?><svg xmlns="http://www.w3.org/2000/svg" xmlns:xlink="http://www.w3.org/1999/xlink" width="37.5pt" zoomAndPan="magnify" viewBox="0 0 37.5 44.999999" height="44.999999pt" preserveAspectRatio="xMidYMid meet" version="1.2"><defs><clipPath xml:id="clip1" id="clip1"><path d="M 6.664062 1.820312 L 30.664062 1.820312 L 30.664062 25.820312 L 6.664062 25.820312 Z M 6.664062 1.820312 "/></clipPath><clipPath xml:id="clip2" id="clip2"><path d="M 4.917969 0.296875 L 32.667969 0.296875 L 32.667969 44.703125 L 4.917969 44.703125 Z M 4.917969 0.296875 "/></clipPath><clipPath xml:id="clip3" id="clip3"><path d="M 7.835938 2.996094 L 29.585938 2.996094 L 29.585938 24.746094 L 7.835938 24.746094 Z M 7.835938 2.996094 "/></clipPath><clipPath xml:id="clip4" id="clip4"><path d="M 11.25 6.703125 L 26.25 6.703125 L 26.25 22.453125 L 11.25 22.453125 Z M 11.25 6.703125 "/></clipPath><clipPath xml:id="clip5" id="clip5"><path d="M 7.335938 2.492188 L 29.835938 2.492188 L 29.835938 24.992188 L 7.335938 24.992188 Z M 7.335938 2.492188 "/></clipPath></defs><g xml:id="surface1" id="surface1"><g clip-rule="nonzero" clip-path="url(#clip1)"><path style=" stroke:none;fill-rule:nonzero;fill:rgb(100%,100%,100%);fill-opacity:1;" d="M 18.664062 1.820312 C 12.046875 1.820312 6.664062 7.203125 6.664062 13.820312 C 6.664062 20.4375 12.046875 25.820312 18.664062 25.820312 C 25.277344 25.820312 30.664062 20.4375 30.664062 13.820312 C 30.664062 7.203125 25.277344 1.820312 18.664062 1.820312 Z M 18.664062 24.222656 C 12.925781 24.222656 8.261719 19.554688 8.261719 13.820312 C 8.261719 8.085938 12.925781 3.421875 18.664062 3.421875 C 24.398438 3.421875 29.0625 8.085938 29.0625 13.820312 C 29.0625 19.554688 24.398438 24.222656 18.664062 24.222656 Z M 18.664062 24.222656 "/></g><g clip-rule="nonzero" clip-path="url(#clip2)"><path style=" stroke:none;fill-rule:evenodd;fill:rgb(28.239441%,43.139648%,38.42926%);fill-opacity:1;" d="M 18.839844 45.289062 C 17.816406 40.277344 16.007812 36.105469 13.820312 32.238281 C 12.199219 29.371094 10.316406 26.726562 8.578125 23.945312 C 7.996094 23.015625 7.496094 22.035156 6.9375 21.070312 C 5.824219 19.144531 4.917969 16.910156 4.976562 14.011719 C 5.03125 11.183594 5.851562 8.910156 7.039062 7.054688 C 8.984375 4 12.25 1.496094 16.628906 0.839844 C 20.210938 0.300781 23.566406 1.210938 25.945312 2.597656 C 27.890625 3.730469 29.398438 5.246094 30.542969 7.03125 C 31.738281 8.894531 32.5625 11.09375 32.632812 13.964844 C 32.667969 15.433594 32.425781 16.796875 32.085938 17.925781 C 31.738281 19.070312 31.1875 20.027344 30.691406 21.046875 C 29.730469 23.039062 28.523438 24.867188 27.3125 26.691406 C 23.707031 32.136719 20.324219 37.683594 18.839844 45.289062 Z M 18.839844 45.289062 "/></g><path style=" stroke:none;fill-rule:nonzero;fill:rgb(28.239441%,43.139648%,38.42926%);fill-opacity:1;" d="M 23.648438 13.980469 C 23.648438 14.300781 23.617188 14.613281 23.554688 14.925781 C 23.492188 15.234375 23.402344 15.539062 23.28125 15.832031 C 23.160156 16.125 23.007812 16.402344 22.832031 16.664062 C 22.65625 16.929688 22.453125 17.171875 22.230469 17.398438 C 22.003906 17.621094 21.761719 17.820312 21.496094 17.996094 C 21.230469 18.171875 20.953125 18.324219 20.65625 18.445312 C 20.363281 18.566406 20.0625 18.65625 19.75 18.71875 C 19.4375 18.78125 19.121094 18.8125 18.804688 18.8125 C 18.484375 18.8125 18.171875 18.78125 17.859375 18.71875 C 17.546875 18.65625 17.242188 18.566406 16.949219 18.445312 C 16.65625 18.324219 16.375 18.171875 16.113281 17.996094 C 15.847656 17.820312 15.601562 17.621094 15.378906 17.398438 C 15.152344 17.171875 14.953125 16.929688 14.773438 16.664062 C 14.597656 16.402344 14.449219 16.125 14.328125 15.832031 C 14.207031 15.539062 14.113281 15.234375 14.050781 14.925781 C 13.988281 14.613281 13.957031 14.300781 13.957031 13.980469 C 13.957031 13.664062 13.988281 13.351562 14.050781 13.039062 C 14.113281 12.730469 14.207031 12.425781 14.328125 12.132812 C 14.449219 11.839844 14.597656 11.5625 14.773438 11.300781 C 14.953125 11.035156 15.152344 10.792969 15.378906 10.566406 C 15.601562 10.34375 15.847656 10.144531 16.113281 9.964844 C 16.375 9.789062 16.65625 9.640625 16.949219 9.519531 C 17.242188 9.398438 17.546875 9.308594 17.859375 9.246094 C 18.171875 9.183594 18.484375 9.152344 18.804688 9.152344 C 19.121094 9.152344 19.4375 9.183594 19.75 9.246094 C 20.0625 9.308594 20.363281 9.398438 20.65625 9.519531 C 20.953125 9.640625 21.230469 9.789062 21.496094 9.964844 C 21.761719 10.144531 22.003906 10.34375 22.230469 10.566406 C 22.453125 10.792969 22.65625 11.035156 22.832031 11.300781 C 23.007812 11.5625 23.160156 11.839844 23.28125 12.132812 C 23.402344 12.425781 23.492188 12.730469 23.554688 13.039062 C 23.617188 13.351562 23.648438 13.664062 23.648438 13.980469 Z M 23.648438 13.980469 "/><g clip-rule="nonzero" clip-path="url(#clip3)"><path style=" stroke:none;fill-rule:nonzero;fill:rgb(100%,100%,100%);fill-opacity:1;" d="M 18.710938 2.996094 C 12.710938 2.996094 7.835938 7.871094 7.835938 13.871094 C 7.835938 19.871094 12.710938 24.746094 18.710938 24.746094 C 24.710938 24.746094 29.585938 19.871094 29.585938 13.871094 C 29.585938 7.871094 24.710938 2.996094 18.710938 2.996094 Z M 18.710938 3.46875 C 24.464844 3.46875 29.113281 8.121094 29.113281 13.871094 C 29.113281 19.621094 24.464844 24.273438 18.710938 24.273438 C 12.960938 24.273438 8.308594 19.621094 8.308594 13.871094 C 8.308594 8.121094 12.960938 3.46875 18.710938 3.46875 Z M 18.710938 3.46875 "/></g><path style=" stroke:none;fill-rule:nonzero;fill:rgb(100%,100%,100%);fill-opacity:1;" d="M 15.25 10.425781 C 16.183594 9.4375 15.023438 8.585938 15.023438 8.585938 C 15.023438 8.585938 14.101562 9.6875 15.25 10.425781 Z M 15.25 10.425781 "/><path style=" stroke:none;fill-rule:nonzero;fill:rgb(100%,100%,100%);fill-opacity:1;" d="M 16.890625 9.382812 C 17.335938 8.109375 15.921875 7.789062 15.921875 7.789062 C 15.921875 7.789062 15.53125 9.160156 16.890625 9.382812 Z M 16.890625 9.382812 "/><path style=" stroke:none;fill-rule:nonzero;fill:rgb(100%,100%,100%);fill-opacity:1;" d="M 17.617188 9.339844 C 18.574219 8.375 17.433594 7.492188 17.433594 7.492188 C 17.433594 7.492188 16.484375 8.570312 17.617188 9.339844 Z M 17.617188 9.339844 "/><path style=" stroke:none;fill-rule:nonzero;fill:rgb(100%,100%,100%);fill-opacity:1;" d="M 24.082031 11.105469 C 24.972656 12.132812 25.976562 11.105469 25.976562 11.105469 C 25.976562 11.105469 24.972656 10.078125 24.082031 11.105469 Z M 24.082031 11.105469 "/><g clip-rule="nonzero" clip-path="url(#clip4)"><path style=" stroke:none;fill-rule:nonzero;fill:rgb(100%,100%,100%);fill-opacity:1;" d="M 26.242188 12.863281 C 26.242188 12.863281 25.601562 11.644531 24.488281 12.304688 C 24.121094 12.214844 23.625 12.121094 22.992188 12.054688 C 22.992188 12.054688 23.40625 11.542969 23.625 11.453125 C 23.625 11.453125 24.019531 11.144531 24.15625 10.847656 C 24.15625 10.847656 24.332031 10.660156 24.519531 10.527344 C 25.835938 10.820312 26.023438 9.429688 26.023438 9.429688 C 26.023438 9.429688 24.601562 9.179688 24.496094 10.515625 C 24.367188 10.597656 24.207031 10.714844 24.117188 10.832031 C 24.117188 10.832031 24.144531 10.292969 24.347656 10.035156 L 24.3125 10.035156 C 24.3125 10.035156 24.082031 10.359375 24.054688 10.824219 C 24.054688 10.824219 23.6875 11.316406 23.574219 11.367188 C 23.574219 11.367188 22.957031 11.796875 22.878906 12.039062 C 22.878906 12.039062 22.753906 12.109375 22.59375 12.195312 C 23.15625 11.578125 22.625 10.726562 22.625 10.726562 C 22.625 10.726562 21.402344 11.382812 22.09375 12.449219 C 22.019531 12.484375 21.957031 12.511719 21.921875 12.519531 C 21.921875 12.519531 21.21875 12.484375 21.101562 12.550781 C 21.101562 12.550781 21.210938 12.207031 21.273438 11.847656 C 22.386719 11.214844 21.617188 10.078125 21.617188 10.078125 C 21.617188 10.078125 20.421875 10.78125 21.152344 11.820312 C 20.976562 12.273438 20.546875 13.261719 19.921875 13.796875 C 19.921875 13.796875 19.808594 13.855469 19.84375 13.632812 C 19.84375 13.632812 19.851562 13.527344 19.851562 13.390625 C 19.972656 13.332031 20.042969 13.332031 20.042969 13.332031 L 20.027344 13.289062 C 19.972656 13.28125 19.910156 13.289062 19.851562 13.308594 C 19.839844 13.074219 19.796875 12.785156 19.640625 12.671875 L 19.601562 12.691406 C 19.601562 12.691406 19.765625 12.855469 19.757812 13.34375 C 19.464844 13.488281 19.167969 13.835938 19.167969 13.835938 C 19.023438 14.019531 18.984375 13.898438 18.984375 13.898438 C 18.957031 13.429688 19.082031 12.902344 19.230469 12.453125 C 19.296875 12.40625 19.398438 12.328125 19.4375 12.265625 C 19.4375 12.265625 19.476562 12.242188 19.578125 12.257812 L 19.703125 12.292969 C 19.703125 12.292969 19.722656 12.300781 19.773438 12.28125 L 19.960938 12.230469 C 19.960938 12.230469 20.339844 12.328125 20.589844 12.488281 L 20.601562 12.480469 C 20.601562 12.480469 20.433594 12.339844 20.042969 12.191406 C 20.042969 12.191406 20.191406 12.085938 20.253906 12.078125 C 20.253906 12.078125 20.382812 12.023438 20.4375 11.957031 C 20.4375 11.957031 20.546875 11.890625 20.613281 11.882812 L 20.613281 11.875 C 20.613281 11.875 20.488281 11.90625 20.429688 11.949219 C 20.429688 11.949219 20.476562 11.808594 20.550781 11.757812 L 20.539062 11.753906 C 20.539062 11.753906 20.457031 11.820312 20.414062 11.941406 C 20.414062 11.941406 20.28125 12.046875 20.246094 12.050781 C 20.246094 12.050781 20.054688 12.121094 20.015625 12.179688 C 20.015625 12.179688 19.78125 12.238281 19.726562 12.238281 C 19.726562 12.238281 19.546875 12.179688 19.507812 12.1875 C 19.507812 12.1875 19.59375 12.054688 19.636719 11.945312 L 19.617188 11.941406 C 19.617188 11.941406 19.46875 12.164062 19.277344 12.320312 C 19.390625 12.003906 19.511719 11.730469 19.59375 11.558594 C 20.871094 11.484375 20.710938 10.132812 20.710938 10.132812 C 20.710938 10.132812 19.3125 10.230469 19.492188 11.492188 C 19.257812 11.808594 19.066406 12.15625 19.066406 12.15625 C 19.042969 12.058594 18.734375 11.765625 18.582031 11.625 C 18.691406 11.484375 19.015625 11.050781 19.199219 10.882812 C 19.199219 10.882812 19.574219 10.449219 19.648438 10.199219 C 19.648438 10.199219 19.71875 10.125 19.960938 10.09375 L 20.269531 10.089844 C 20.269531 10.089844 20.320312 10.09375 20.429688 10.023438 L 20.816406 9.785156 C 20.816406 9.785156 21.367188 9.769531 21.933594 9.855469 C 22.277344 11.105469 23.613281 10.640625 23.613281 10.640625 C 23.613281 10.640625 23.402344 9.972656 22.839844 9.753906 C 22.777344 9.699219 22.6875 9.625 22.566406 9.546875 C 23.457031 9.835938 24.007812 8.886719 24.007812 8.886719 C 24.007812 8.886719 22.824219 8.164062 22.207031 9.269531 C 22.132812 9.339844 21.917969 9.519531 21.710938 9.566406 C 21.710938 9.566406 21.683594 9.566406 21.714844 9.523438 C 21.714844 9.523438 21.816406 9.375 21.777344 9.304688 L 21.769531 9.304688 C 21.769531 9.304688 21.789062 9.375 21.695312 9.511719 C 21.695312 9.511719 21.671875 9.542969 21.628906 9.566406 L 21.4375 9.691406 C 21.300781 9.671875 21.148438 9.652344 20.980469 9.640625 C 20.980469 9.640625 21.246094 9.304688 21.386719 9.242188 C 21.386719 9.242188 21.640625 9.039062 21.722656 8.847656 C 21.722656 8.847656 21.929688 8.625 22.078125 8.566406 L 22.066406 8.550781 C 22.066406 8.550781 21.808594 8.695312 21.699219 8.835938 C 21.699219 8.835938 21.707031 8.667969 21.753906 8.507812 C 23.089844 8.289062 22.71875 6.929688 22.71875 6.929688 C 22.71875 6.929688 21.3125 7.230469 21.730469 8.5 C 21.695312 8.585938 21.664062 8.699219 21.660156 8.832031 C 21.660156 8.832031 21.425781 9.152344 21.351562 9.1875 C 21.351562 9.1875 20.957031 9.472656 20.90625 9.628906 C 20.90625 9.628906 20.410156 9.917969 20.289062 9.949219 C 20.289062 9.949219 19.832031 9.933594 19.757812 9.976562 C 19.757812 9.976562 19.8125 9.792969 19.851562 9.589844 C 21.117188 9.339844 20.757812 8.019531 20.757812 8.019531 C 20.757812 8.019531 19.363281 8.320312 19.761719 9.566406 C 19.636719 9.882812 19.375 10.464844 19.003906 10.792969 C 19.003906 10.792969 18.929688 10.832031 18.949219 10.6875 C 18.949219 10.6875 18.96875 10.457031 18.925781 10.269531 C 20.007812 9.542969 19.128906 8.464844 19.128906 8.464844 C 19.128906 8.464844 17.953125 9.300781 18.875 10.300781 C 18.894531 10.390625 18.902344 10.515625 18.882812 10.679688 C 18.882812 10.679688 18.867188 10.78125 18.796875 10.898438 L 18.476562 11.503906 C 18.371094 11.261719 18.171875 10.515625 18.171875 10.515625 C 18.292969 10.285156 18.171875 9.535156 18.171875 9.535156 C 18.125 9.414062 18.230469 8.800781 18.230469 8.800781 C 18.398438 8.617188 18.5 8.425781 18.558594 8.28125 C 19.890625 8.0625 19.519531 6.703125 19.519531 6.703125 C 19.519531 6.703125 18.121094 7.003906 18.527344 8.261719 C 18.402344 8.523438 18.179688 8.757812 18.179688 8.757812 C 18.21875 8.484375 18.089844 8.039062 18.089844 8.039062 L 18.0625 8.042969 C 18.160156 8.273438 18.140625 8.742188 18.140625 8.742188 C 18.015625 9.054688 18.070312 9.558594 18.070312 9.558594 C 18.160156 9.78125 18.074219 10.445312 18.074219 10.445312 C 18.03125 10.410156 17.988281 10.375 17.945312 10.34375 C 17.925781 9.765625 17.382812 9.347656 17.382812 9.347656 C 17.382812 9.347656 17.238281 9.507812 17.128906 9.753906 C 16.464844 9.320312 16.074219 9.175781 16.074219 9.175781 L 16.074219 9.234375 C 16.421875 9.410156 16.769531 9.648438 17.078125 9.890625 C 16.953125 10.257812 16.949219 10.75 17.519531 11.160156 C 17.5 11.304688 17.480469 11.472656 17.46875 11.664062 C 17.46875 11.664062 17.203125 11.476562 17.152344 11.375 C 17.152344 11.375 16.988281 11.191406 16.835938 11.132812 C 16.835938 11.132812 16.660156 10.988281 16.613281 10.878906 L 16.601562 10.886719 C 16.601562 10.886719 16.71875 11.074219 16.828125 11.152344 C 16.828125 11.152344 16.558594 11.152344 16.425781 11.058594 L 16.425781 11.078125 C 16.425781 11.078125 16.59375 11.179688 16.828125 11.183594 C 16.828125 11.183594 17.082031 11.347656 17.109375 11.402344 C 17.109375 11.402344 17.339844 11.6875 17.464844 11.71875 C 17.464844 11.71875 17.699219 12.082031 17.726562 12.171875 C 17.726562 12.171875 17.726562 12.507812 17.761719 12.5625 C 17.761719 12.5625 17.484375 12.492188 17.265625 12.484375 L 17.269531 12.519531 C 17.269531 12.519531 17.921875 12.691406 18.320312 13.015625 C 18.1875 13.265625 18.066406 13.347656 18.066406 13.347656 C 17.730469 12.84375 16.902344 12.472656 16.902344 12.472656 C 16.355469 12.203125 15.980469 11.773438 15.980469 11.773438 C 15.765625 11.234375 16.269531 10.851562 16.269531 10.851562 L 16.1875 10.800781 C 15.988281 10.832031 15.8125 11.097656 15.8125 11.097656 C 15.757812 10.789062 15.84375 9.996094 15.84375 9.996094 L 15.78125 9.957031 C 15.390625 11.128906 15.820312 11.765625 15.820312 11.765625 C 15.140625 11.363281 14.707031 10.222656 14.707031 10.222656 L 14.605469 10.222656 C 14.789062 10.886719 15.164062 11.402344 15.550781 11.789062 C 15.542969 11.820312 15.527344 11.875 15.515625 11.949219 C 15.433594 11.96875 15.359375 11.992188 15.304688 12.019531 C 15.304688 12.019531 15.21875 12.023438 15.054688 11.902344 L 14.875 11.726562 C 14.875 11.726562 14.847656 11.695312 14.742188 11.675781 L 14.375 11.59375 C 14.375 11.59375 13.808594 11.078125 13.535156 10.5625 L 13.503906 10.5625 C 13.503906 10.5625 13.660156 10.960938 14.1875 11.585938 C 14.1875 11.585938 13.832031 11.628906 13.714844 11.585938 C 13.714844 11.585938 13.445312 11.558594 13.277344 11.625 C 13.277344 11.625 13.082031 11.632812 12.953125 11.597656 C 12.121094 10.90625 11.253906 11.78125 11.253906 11.78125 C 11.253906 11.78125 12.25 12.816406 13.148438 11.792969 C 13.144531 11.792969 13.144531 11.789062 13.140625 11.785156 C 13.195312 11.757812 13.253906 11.71875 13.308594 11.667969 C 13.308594 11.667969 13.636719 11.613281 13.703125 11.636719 C 13.703125 11.636719 14.101562 11.695312 14.226562 11.632812 C 14.226562 11.632812 14.6875 11.75 14.78125 11.800781 C 14.78125 11.800781 15.035156 12.070312 15.105469 12.089844 C 15.105469 12.089844 15.074219 12.105469 15.019531 12.136719 C 13.839844 11.539062 13.292969 12.820312 13.292969 12.820312 C 13.292969 12.820312 14.53125 13.394531 15.019531 12.261719 C 15.152344 12.207031 15.320312 12.148438 15.492188 12.105469 C 15.476562 12.292969 15.484375 12.527344 15.578125 12.75 C 15.476562 12.789062 15.34375 12.832031 15.21875 12.847656 L 15.214844 12.859375 C 15.214844 12.859375 15.347656 12.855469 15.59375 12.785156 C 15.613281 12.824219 15.632812 12.863281 15.660156 12.902344 C 15.652344 12.910156 15.648438 12.917969 15.644531 12.925781 C 15.644531 12.925781 15.59375 13.023438 15.597656 13.09375 C 15.597656 13.09375 15.566406 13.1875 15.527344 13.226562 L 15.535156 13.230469 C 15.535156 13.230469 15.59375 13.152344 15.605469 13.09375 C 15.605469 13.09375 15.652344 13.203125 15.636719 13.273438 L 15.644531 13.269531 C 15.644531 13.269531 15.65625 13.183594 15.617188 13.089844 C 15.617188 13.089844 15.644531 12.957031 15.660156 12.9375 C 15.660156 12.9375 15.664062 12.929688 15.671875 12.917969 C 15.808594 13.121094 16.035156 13.292969 16.402344 13.378906 C 16.589844 13.648438 16.816406 13.894531 16.816406 13.894531 C 16.703125 13.886719 16.171875 14.15625 16.171875 14.15625 C 16.105469 14.167969 15.933594 14.164062 15.757812 14.15625 C 15.417969 13.285156 14.308594 13.488281 14.308594 13.488281 C 14.308594 13.488281 14.332031 13.636719 14.40625 13.828125 C 14.238281 13.777344 13.902344 13.59375 13.902344 13.59375 C 13.707031 13.242188 13.414062 13.074219 13.414062 13.074219 L 13.386719 13.085938 C 13.636719 13.210938 13.855469 13.621094 13.855469 13.621094 C 13.71875 13.550781 13.503906 13.515625 13.371094 13.496094 C 12.476562 12.511719 11.496094 13.535156 11.496094 13.535156 C 11.496094 13.535156 12.507812 14.550781 13.386719 13.519531 C 13.589844 13.546875 13.832031 13.644531 13.832031 13.644531 C 14.019531 13.808594 14.367188 13.902344 14.445312 13.921875 C 14.523438 14.085938 14.636719 14.261719 14.804688 14.398438 C 14.785156 14.410156 14.765625 14.421875 14.746094 14.4375 C 14.664062 14.453125 14.519531 14.488281 14.449219 14.53125 C 14.449219 14.53125 14.40625 14.539062 14.3125 14.480469 L 14.207031 14.398438 C 14.207031 14.398438 14.191406 14.382812 14.132812 14.375 L 13.933594 14.347656 C 13.933594 14.347656 13.605469 14.097656 13.433594 13.835938 L 13.417969 13.839844 C 13.417969 13.839844 13.519531 14.046875 13.832031 14.351562 C 13.832031 14.351562 13.644531 14.394531 13.578125 14.375 C 13.578125 14.375 13.433594 14.375 13.347656 14.417969 C 13.347656 14.417969 13.269531 14.425781 13.203125 14.421875 C 12.144531 13.761719 11.457031 14.921875 11.457031 14.921875 C 11.457031 14.921875 12.660156 15.675781 13.28125 14.511719 C 13.308594 14.492188 13.339844 14.46875 13.367188 14.4375 C 13.367188 14.4375 13.539062 14.394531 13.578125 14.402344 C 13.578125 14.402344 13.792969 14.417969 13.855469 14.378906 C 13.855469 14.378906 14.109375 14.417969 14.160156 14.441406 C 14.160156 14.441406 14.3125 14.574219 14.347656 14.578125 C 14.347656 14.578125 14.210938 14.667969 14.121094 14.757812 L 14.136719 14.769531 C 14.136719 14.769531 14.316406 14.65625 14.53125 14.578125 C 14.085938 14.882812 13.820312 15.125 13.691406 15.253906 C 12.390625 15.546875 12.828125 16.875 12.828125 16.875 C 12.828125 16.875 14.199219 16.503906 13.742188 15.28125 C 14.121094 14.957031 14.601562 14.679688 14.957031 14.496094 C 15.171875 14.613281 15.460938 14.660156 15.835938 14.570312 C 15.902344 14.640625 16.027344 14.757812 16.21875 14.902344 C 16.199219 15.027344 16.195312 15.152344 16.203125 15.261719 C 16.203125 15.261719 16.199219 15.261719 16.195312 15.257812 C 16.195312 15.257812 15.976562 15.304688 15.863281 15.394531 C 15.863281 15.394531 15.667969 15.464844 15.558594 15.453125 L 15.558594 15.464844 C 15.558594 15.464844 15.761719 15.460938 15.875 15.410156 C 15.875 15.410156 15.820312 15.503906 15.742188 15.582031 C 15.738281 15.578125 15.738281 15.570312 15.738281 15.5625 C 14.363281 15.664062 14.625 17.0625 14.625 17.0625 C 14.625 17.0625 16.03125 16.875 15.746094 15.605469 C 15.792969 15.5625 15.851562 15.5 15.898438 15.421875 C 15.898438 15.421875 16.144531 15.300781 16.199219 15.304688 C 16.199219 15.304688 16.203125 15.304688 16.207031 15.300781 C 16.226562 15.503906 16.277344 15.644531 16.277344 15.644531 C 16.277344 15.644531 16.738281 15.515625 17.035156 15.167969 C 17.058594 15.167969 17.078125 15.167969 17.09375 15.171875 C 17.09375 15.171875 17.363281 15.324219 17.421875 15.320312 C 17.421875 15.320312 17.304688 15.441406 17.203125 15.574219 C 15.976562 16.105469 16.667969 17.332031 16.667969 17.332031 C 16.667969 17.332031 17.941406 16.714844 17.253906 15.597656 C 17.386719 15.480469 17.660156 15.257812 17.945312 15.132812 C 17.957031 15.273438 17.980469 15.480469 18.035156 15.574219 C 18.035156 15.574219 18.382812 19.410156 18.035156 21 C 18.035156 21 17.742188 22.042969 17.742188 22.453125 L 19.476562 22.453125 C 19.476562 22.042969 19.183594 21 19.183594 21 C 18.832031 19.410156 19.183594 15.574219 19.183594 15.574219 C 19.210938 15.527344 19.230469 15.445312 19.246094 15.355469 C 19.449219 15.300781 19.683594 15.226562 19.8125 15.167969 C 19.8125 15.167969 20.3125 15.226562 20.730469 15.648438 C 20.730469 15.648438 21.335938 16.253906 22.234375 16.433594 C 23.171875 17.296875 24.066406 16.25 24.066406 16.25 C 24.066406 16.25 23.027344 15.324219 22.214844 16.328125 C 21.988281 16.277344 21.746094 16.191406 21.574219 16.054688 C 21.574219 16.054688 22.113281 16.179688 22.816406 15.640625 L 22.773438 15.609375 C 22.773438 15.609375 22.253906 15.859375 22.03125 15.898438 C 22.03125 15.898438 22.167969 15.71875 22.140625 15.578125 L 22.085938 15.539062 C 22.085938 15.539062 21.949219 15.960938 21.527344 15.953125 C 21.527344 15.953125 21.375 15.898438 21.183594 15.78125 C 21.285156 15.683594 21.464844 15.496094 21.523438 15.363281 C 21.523438 15.363281 21.582031 15.3125 21.773438 15.3125 L 22.011719 15.335938 C 22.011719 15.335938 22.050781 15.34375 22.140625 15.296875 L 22.460938 15.152344 C 22.460938 15.152344 22.753906 15.179688 23.097656 15.253906 C 23.589844 16.449219 24.855469 15.835938 24.855469 15.835938 C 24.855469 15.835938 24.285156 14.558594 23.109375 15.183594 C 22.96875 15.140625 22.796875 15.09375 22.601562 15.054688 C 22.601562 15.054688 22.835938 14.820312 22.949219 14.785156 C 22.949219 14.785156 23.152344 14.660156 23.238281 14.523438 C 24.101562 15.535156 25.113281 14.546875 25.113281 14.546875 C 25.113281 14.546875 24.140625 13.503906 23.230469 14.492188 C 23.238281 14.445312 23.285156 14.21875 23.390625 14.117188 L 23.371094 14.113281 C 23.371094 14.113281 23.238281 14.261719 23.199219 14.496094 C 23.199219 14.496094 22.988281 14.722656 22.925781 14.742188 C 22.925781 14.742188 22.597656 14.921875 22.542969 15.039062 C 22.542969 15.039062 22.136719 15.214844 22.039062 15.230469 C 22.039062 15.230469 21.6875 15.175781 21.628906 15.203125 C 21.628906 15.203125 21.742188 14.941406 21.789062 14.726562 L 21.75 14.722656 C 21.75 14.722656 21.460938 15.363281 21.054688 15.699219 C 20.976562 15.648438 20.902344 15.589844 20.828125 15.523438 C 20.828125 15.523438 20.371094 15.070312 19.945312 14.972656 C 19.945312 14.972656 20.003906 14.753906 20.414062 14.480469 C 21.273438 14.679688 21.65625 14.132812 21.8125 13.75 C 21.933594 13.972656 22.203125 14.371094 22.683594 14.542969 L 22.6875 14.503906 C 22.6875 14.503906 22.226562 14.289062 22.082031 14.003906 C 22.082031 14.003906 22.332031 14.199219 22.835938 14.082031 L 22.820312 14.054688 C 22.820312 14.054688 22.488281 14.0625 22.359375 14.03125 C 22.359375 14.03125 22.476562 13.96875 22.5 13.886719 L 22.480469 13.855469 C 22.480469 13.855469 22.300781 14.042969 22.082031 13.9375 C 22.082031 13.9375 21.953125 13.8125 21.859375 13.625 C 21.902344 13.496094 21.914062 13.410156 21.914062 13.410156 C 21.914062 13.410156 21.851562 13.398438 21.753906 13.390625 C 21.695312 13.277344 21.605469 13.132812 21.496094 13.046875 C 21.496094 13.046875 21.625 12.886719 22.113281 12.878906 L 22.121094 12.839844 C 22.121094 12.839844 21.597656 12.828125 21.398438 12.96875 C 21.398438 12.96875 21.15625 12.929688 20.976562 12.855469 C 21.042969 12.820312 21.171875 12.761719 21.414062 12.734375 L 21.890625 12.734375 C 21.890625 12.734375 21.96875 12.742188 22.136719 12.632812 L 22.734375 12.28125 C 22.734375 12.28125 23.589844 12.261719 24.460938 12.410156 C 25.035156 13.550781 26.246094 12.867188 26.246094 12.867188 Z M 22.179688 9.347656 C 22.285156 9.421875 22.390625 9.480469 22.492188 9.519531 C 22.429688 9.519531 22.304688 9.523438 22.273438 9.515625 C 22.273438 9.515625 22.128906 9.433594 22.097656 9.433594 C 22.097656 9.433594 22.136719 9.398438 22.179688 9.347656 Z M 21.757812 9.628906 C 21.757812 9.628906 21.953125 9.554688 22.023438 9.488281 C 22.023438 9.488281 22.058594 9.476562 22.140625 9.507812 L 22.242188 9.558594 C 22.242188 9.558594 22.257812 9.566406 22.304688 9.5625 L 22.46875 9.554688 C 22.46875 9.554688 22.613281 9.625 22.761719 9.726562 C 22.546875 9.664062 22.28125 9.667969 21.960938 9.792969 C 21.84375 9.765625 21.707031 9.734375 21.546875 9.710938 C 21.621094 9.679688 21.707031 9.644531 21.757812 9.628906 Z M 13.125 11.765625 C 13.074219 11.710938 13.023438 11.660156 12.972656 11.617188 C 13.054688 11.632812 13.191406 11.65625 13.289062 11.644531 C 13.289062 11.644531 13.21875 11.707031 13.125 11.765625 Z M 13.292969 14.484375 C 13.265625 14.464844 13.242188 14.445312 13.214844 14.429688 C 13.257812 14.433594 13.3125 14.4375 13.355469 14.425781 C 13.355469 14.425781 13.328125 14.453125 13.292969 14.484375 Z M 19.097656 14.242188 C 19.148438 14.03125 19.25 13.898438 19.25 13.898438 C 19.449219 13.65625 19.621094 13.519531 19.757812 13.4375 C 19.753906 13.496094 19.75 13.554688 19.742188 13.617188 C 19.742188 13.617188 19.714844 13.777344 19.601562 13.953125 L 19.039062 14.988281 L 18.859375 14.988281 Z M 17.9375 12.636719 C 17.9375 12.636719 17.875 12.589844 17.847656 12.410156 L 17.835938 12.179688 C 17.835938 12.179688 17.839844 12.140625 17.78125 12.0625 L 17.585938 11.785156 C 17.585938 11.785156 17.570312 11.5 17.59375 11.160156 C 17.769531 10.972656 17.871094 10.789062 17.914062 10.617188 C 18.027344 10.726562 18.09375 10.792969 18.09375 10.792969 L 18.261719 11.476562 C 18.296875 11.675781 18.363281 11.726562 18.363281 11.726562 L 18.601562 11.964844 C 18.554688 12.378906 18.46875 12.671875 18.382812 12.882812 C 18.265625 12.800781 18.066406 12.671875 17.9375 12.636719 Z M 18.695312 12.054688 L 18.703125 12.066406 C 18.941406 12.367188 18.9375 12.527344 18.9375 12.527344 C 18.734375 12.890625 18.664062 13.785156 18.664062 13.785156 C 18.671875 14.054688 18.613281 14.554688 18.566406 14.921875 C 18.320312 14.523438 18.246094 13.59375 18.246094 13.59375 C 18.546875 13.246094 18.660156 12.398438 18.695312 12.054688 Z M 16.476562 13.316406 C 16.59375 12.988281 16.578125 12.722656 16.492188 12.507812 C 16.664062 12.609375 16.777344 12.660156 16.777344 12.660156 C 17.554688 12.996094 17.867188 13.613281 17.867188 13.613281 C 17.855469 13.789062 17.867188 14.070312 17.882812 14.332031 C 17.285156 14.0625 16.71875 13.550781 16.476562 13.316406 Z M 15.84375 14.539062 C 15.835938 14.449219 15.820312 14.367188 15.800781 14.292969 L 16.046875 14.320312 C 16.214844 14.347656 16.273438 14.3125 16.273438 14.3125 L 16.640625 14.148438 C 16.738281 14.117188 16.816406 14.101562 16.878906 14.09375 C 16.472656 14.257812 16.296875 14.546875 16.234375 14.832031 C 16.101562 14.746094 15.960938 14.644531 15.84375 14.535156 Z M 17.5625 15.222656 C 17.5625 15.222656 17.496094 15.246094 17.335938 15.1875 L 17.148438 15.09375 C 17.148438 15.09375 17.136719 15.085938 17.101562 15.082031 C 17.246094 14.875 17.324219 14.597656 17.238281 14.238281 C 17.449219 14.390625 17.75 14.542969 17.902344 14.613281 C 17.921875 14.828125 17.9375 14.988281 17.9375 14.988281 C 17.9375 14.988281 17.9375 14.992188 17.9375 14.996094 C 17.816406 15.050781 17.640625 15.140625 17.5625 15.21875 Z M 21.636719 13.382812 C 21.226562 13.378906 20.488281 13.5 20.367188 14.40625 C 20.125 14.542969 19.84375 14.730469 19.734375 14.917969 C 19.734375 14.917969 19.539062 14.972656 19.308594 15.007812 C 19.507812 14.746094 19.960938 14.171875 20.222656 13.9375 C 20.222656 13.9375 20.667969 13.4375 20.859375 13.054688 C 20.976562 13.074219 21.246094 13.117188 21.375 13.117188 C 21.375 13.117188 21.519531 13.203125 21.636719 13.382812 Z M 21.636719 13.382812 "/></g><path style=" stroke:none;fill-rule:nonzero;fill:rgb(100%,100%,100%);fill-opacity:1;" d="M 23.964844 12.425781 C 23.371094 13.640625 24.738281 14.117188 24.738281 14.117188 C 24.738281 14.117188 25.285156 12.804688 23.964844 12.425781 Z M 23.964844 12.425781 "/><path style=" stroke:none;fill-rule:nonzero;fill:rgb(100%,100%,100%);fill-opacity:1;" d="M 23.136719 14.199219 C 23.136719 14.199219 24.152344 13.183594 23.078125 12.347656 C 22.054688 13.246094 23.136719 14.199219 23.136719 14.199219 Z M 23.136719 14.199219 "/><path style=" stroke:none;fill-rule:nonzero;fill:rgb(100%,100%,100%);fill-opacity:1;" d="M 21.410156 16.246094 C 20.414062 17.175781 21.519531 18.097656 21.519531 18.097656 C 21.519531 18.097656 22.511719 17.058594 21.410156 16.246094 Z M 21.410156 16.246094 "/><path style=" stroke:none;fill-rule:nonzero;fill:rgb(100%,100%,100%);fill-opacity:1;" d="M 19.972656 17.371094 C 19.972656 17.371094 21.257812 16.710938 20.496094 15.589844 C 19.242188 16.144531 19.972656 17.371094 19.972656 17.371094 Z M 19.972656 17.371094 "/><path style=" stroke:none;fill-rule:nonzero;fill:rgb(100%,100%,100%);fill-opacity:1;" d="M 13.28125 11.53125 C 13.847656 10.304688 12.46875 9.859375 12.46875 9.859375 C 12.46875 9.859375 11.953125 11.1875 13.28125 11.53125 Z M 13.28125 11.53125 "/><path style=" stroke:none;fill-rule:nonzero;fill:rgb(100%,100%,100%);fill-opacity:1;" d="M 13.9375 8.742188 C 13.9375 8.742188 12.71875 9.515625 13.585938 10.5625 C 14.78125 9.898438 13.9375 8.742188 13.9375 8.742188 Z M 13.9375 8.742188 "/><g clip-rule="nonzero" clip-path="url(#clip5)"><path style=" stroke:none;fill-rule:nonzero;fill:rgb(100%,100%,100%);fill-opacity:1;" d="M 18.585938 2.492188 C 12.386719 2.492188 7.34375 7.539062 7.34375 13.742188 C 7.34375 19.945312 12.386719 24.992188 18.585938 24.992188 C 24.785156 24.992188 29.828125 19.945312 29.828125 13.742188 C 29.828125 7.539062 24.785156 2.492188 18.585938 2.492188 Z M 25.972656 21.132812 C 25.011719 22.089844 23.894531 22.84375 22.652344 23.371094 C 21.363281 23.914062 19.996094 24.191406 18.585938 24.191406 C 17.175781 24.191406 15.808594 23.914062 14.519531 23.371094 C 13.277344 22.84375 12.160156 22.089844 11.203125 21.132812 C 10.242188 20.171875 9.488281 19.054688 8.960938 17.808594 C 8.417969 16.523438 8.140625 15.15625 8.140625 13.742188 C 8.140625 12.332031 8.417969 10.960938 8.960938 9.675781 C 9.488281 8.429688 10.242188 7.3125 11.203125 6.355469 C 12.160156 5.394531 13.277344 4.640625 14.519531 4.113281 C 17.089844 3.027344 20.082031 3.027344 22.652344 4.113281 C 23.894531 4.640625 25.011719 5.394531 25.972656 6.355469 C 26.929688 7.3125 27.683594 8.429688 28.210938 9.675781 C 28.753906 10.960938 29.03125 12.332031 29.03125 13.742188 C 29.03125 15.152344 28.753906 16.523438 28.210938 17.808594 C 27.683594 19.054688 26.929688 20.171875 25.972656 21.132812 Z M 25.972656 21.132812 "/></g></g></svg>