<?xml version="1.0" encoding="UTF-8"?><svg xmlns="http://www.w3.org/2000/svg" xmlns:xlink="http://www.w3.org/1999/xlink" width="37.5pt" zoomAndPan="magnify" viewBox="0 0 37.5 44.999999" height="44.999999pt" preserveAspectRatio="xMidYMid meet" version="1.2"><defs><clipPath xml:id="clip1" id="clip1"><path d="M 4.917969 0.296875 L 32.667969 0.296875 L 32.667969 44.703125 L 4.917969 44.703125 Z M 4.917969 0.296875 "/></clipPath><clipPath xml:id="clip2" id="clip2"><path d="M 8.097656 6.117188 L 29.097656 6.117188 L 29.097656 28.617188 L 8.097656 28.617188 Z M 8.097656 6.117188 "/></clipPath></defs><g xml:id="surface1" id="surface1"><g clip-rule="nonzero" clip-path="url(#clip1)"><path style=" stroke:none;fill-rule:evenodd;fill:rgb(28.239441%,43.139648%,38.42926%);fill-opacity:1;" d="M 18.839844 45.289062 C 17.816406 40.277344 16.007812 36.105469 13.820312 32.238281 C 12.199219 29.371094 10.316406 26.726562 8.578125 23.945312 C 7.996094 23.015625 7.496094 22.035156 6.9375 21.070312 C 5.824219 19.144531 4.917969 16.910156 4.976562 14.011719 C 5.03125 11.183594 5.851562 8.910156 7.039062 7.054688 C 8.984375 4 12.25 1.496094 16.628906 0.839844 C 20.210938 0.300781 23.566406 1.210938 25.945312 2.597656 C 27.890625 3.730469 29.398438 5.246094 30.542969 7.03125 C 31.738281 8.894531 32.5625 11.09375 32.632812 13.964844 C 32.667969 15.433594 32.425781 16.796875 32.085938 17.925781 C 31.738281 19.070312 31.1875 20.027344 30.691406 21.046875 C 29.730469 23.039062 28.523438 24.867188 27.3125 26.691406 C 23.707031 32.136719 20.324219 37.683594 18.839844 45.289062 Z M 18.839844 45.289062 "/></g><path style=" stroke:none;fill-rule:nonzero;fill:rgb(28.239441%,43.139648%,38.42926%);fill-opacity:1;" d="M 23.648438 13.980469 C 23.648438 14.300781 23.617188 14.613281 23.554688 14.925781 C 23.492188 15.234375 23.402344 15.539062 23.28125 15.832031 C 23.160156 16.125 23.007812 16.402344 22.832031 16.664062 C 22.65625 16.929688 22.453125 17.171875 22.230469 17.398438 C 22.003906 17.621094 21.761719 17.820312 21.496094 17.996094 C 21.230469 18.171875 20.953125 18.324219 20.65625 18.445312 C 20.363281 18.566406 20.0625 18.65625 19.75 18.71875 C 19.4375 18.78125 19.121094 18.8125 18.804688 18.8125 C 18.484375 18.8125 18.171875 18.78125 17.859375 18.71875 C 17.546875 18.65625 17.242188 18.566406 16.949219 18.445312 C 16.65625 18.324219 16.375 18.171875 16.113281 17.996094 C 15.847656 17.820312 15.601562 17.621094 15.378906 17.398438 C 15.152344 17.171875 14.953125 16.929688 14.773438 16.664062 C 14.597656 16.402344 14.449219 16.125 14.328125 15.832031 C 14.207031 15.539062 14.113281 15.234375 14.050781 14.925781 C 13.988281 14.613281 13.957031 14.300781 13.957031 13.980469 C 13.957031 13.664062 13.988281 13.351562 14.050781 13.039062 C 14.113281 12.730469 14.207031 12.425781 14.328125 12.132812 C 14.449219 11.839844 14.597656 11.5625 14.773438 11.300781 C 14.953125 11.035156 15.152344 10.792969 15.378906 10.566406 C 15.601562 10.34375 15.847656 10.144531 16.113281 9.964844 C 16.375 9.789062 16.65625 9.640625 16.949219 9.519531 C 17.242188 9.398438 17.546875 9.308594 17.859375 9.246094 C 18.171875 9.183594 18.484375 9.152344 18.804688 9.152344 C 19.121094 9.152344 19.4375 9.183594 19.75 9.246094 C 20.0625 9.308594 20.363281 9.398438 20.65625 9.519531 C 20.953125 9.640625 21.230469 9.789062 21.496094 9.964844 C 21.761719 10.144531 22.003906 10.34375 22.230469 10.566406 C 22.453125 10.792969 22.65625 11.035156 22.832031 11.300781 C 23.007812 11.5625 23.160156 11.839844 23.28125 12.132812 C 23.402344 12.425781 23.492188 12.730469 23.554688 13.039062 C 23.617188 13.351562 23.648438 13.664062 23.648438 13.980469 Z M 23.648438 13.980469 "/><path style=" stroke:none;fill-rule:nonzero;fill:rgb(100%,100%,100%);fill-opacity:1;" d="M 13.699219 11.433594 C 15.003906 10.023438 13.378906 8.808594 13.378906 8.808594 C 13.378906 8.808594 12.089844 10.378906 13.699219 11.433594 Z M 13.699219 11.433594 "/><path style=" stroke:none;fill-rule:nonzero;fill:rgb(100%,100%,100%);fill-opacity:1;" d="M 15.992188 9.945312 C 16.617188 8.125 14.636719 7.667969 14.636719 7.667969 C 14.636719 7.667969 14.09375 9.625 15.992188 9.945312 Z M 15.992188 9.945312 "/><path style=" stroke:none;fill-rule:nonzero;fill:rgb(100%,100%,100%);fill-opacity:1;" d="M 17.007812 9.882812 C 18.351562 8.503906 16.753906 7.246094 16.753906 7.246094 C 16.753906 7.246094 15.425781 8.785156 17.007812 9.882812 Z M 17.007812 9.882812 "/><path style=" stroke:none;fill-rule:nonzero;fill:rgb(100%,100%,100%);fill-opacity:1;" d="M 26.0625 12.40625 C 27.308594 13.871094 28.714844 12.402344 28.714844 12.402344 C 28.714844 12.402344 27.308594 10.9375 26.0625 12.40625 Z M 26.0625 12.40625 "/><g clip-rule="nonzero" clip-path="url(#clip2)"><path style=" stroke:none;fill-rule:nonzero;fill:rgb(100%,100%,100%);fill-opacity:1;" d="M 29.085938 14.917969 C 29.085938 14.917969 28.1875 13.175781 26.628906 14.117188 C 26.117188 13.992188 25.421875 13.855469 24.535156 13.761719 C 24.535156 13.761719 25.117188 13.03125 25.421875 12.898438 C 25.421875 12.898438 25.972656 12.460938 26.164062 12.035156 C 26.164062 12.035156 26.410156 11.769531 26.671875 11.582031 C 28.515625 12 28.78125 10.011719 28.78125 10.011719 C 28.78125 10.011719 26.785156 9.65625 26.640625 11.5625 C 26.460938 11.679688 26.238281 11.847656 26.109375 12.011719 C 26.109375 12.011719 26.148438 11.242188 26.433594 10.878906 L 26.382812 10.878906 C 26.382812 10.878906 26.0625 11.335938 26.019531 12.003906 C 26.019531 12.003906 25.511719 12.707031 25.347656 12.78125 C 25.347656 12.78125 24.488281 13.394531 24.375 13.738281 C 24.375 13.738281 24.203125 13.835938 23.980469 13.960938 C 24.765625 13.082031 24.019531 11.863281 24.019531 11.863281 C 24.019531 11.863281 22.308594 12.804688 23.277344 14.328125 C 23.171875 14.375 23.085938 14.414062 23.035156 14.425781 C 23.035156 14.425781 22.050781 14.375 21.886719 14.472656 C 21.886719 14.472656 22.039062 13.976562 22.132812 13.464844 C 23.6875 12.558594 22.609375 10.9375 22.609375 10.9375 C 22.609375 10.9375 20.941406 11.941406 21.960938 13.425781 C 21.714844 14.074219 21.109375 15.484375 20.238281 16.25 C 20.238281 16.25 20.078125 16.332031 20.125 16.015625 C 20.125 16.015625 20.140625 15.867188 20.140625 15.667969 C 20.308594 15.585938 20.40625 15.585938 20.40625 15.585938 L 20.386719 15.523438 C 20.308594 15.511719 20.222656 15.523438 20.136719 15.554688 C 20.125 15.21875 20.0625 14.800781 19.84375 14.644531 L 19.789062 14.671875 C 19.789062 14.671875 20.015625 14.90625 20.011719 15.605469 C 19.597656 15.808594 19.179688 16.304688 19.179688 16.304688 C 18.980469 16.570312 18.925781 16.394531 18.925781 16.394531 C 18.886719 15.726562 19.058594 14.972656 19.269531 14.328125 C 19.359375 14.261719 19.503906 14.148438 19.5625 14.0625 C 19.5625 14.0625 19.613281 14.03125 19.757812 14.050781 L 19.929688 14.097656 C 19.929688 14.097656 19.960938 14.109375 20.03125 14.085938 L 20.289062 14.015625 C 20.289062 14.015625 20.820312 14.148438 21.171875 14.382812 L 21.191406 14.371094 C 21.191406 14.371094 20.953125 14.171875 20.40625 13.957031 C 20.40625 13.957031 20.613281 13.804688 20.703125 13.792969 C 20.703125 13.792969 20.878906 13.71875 20.960938 13.621094 C 20.960938 13.621094 21.113281 13.527344 21.207031 13.515625 L 21.203125 13.507812 C 21.203125 13.507812 21.03125 13.546875 20.949219 13.609375 C 20.949219 13.609375 21.011719 13.410156 21.117188 13.335938 L 21.101562 13.332031 C 21.101562 13.332031 20.984375 13.429688 20.925781 13.601562 C 20.925781 13.601562 20.738281 13.75 20.691406 13.757812 C 20.691406 13.757812 20.421875 13.855469 20.367188 13.9375 C 20.367188 13.9375 20.039062 14.023438 19.964844 14.023438 C 19.964844 14.023438 19.710938 13.9375 19.660156 13.949219 C 19.660156 13.949219 19.78125 13.765625 19.839844 13.605469 L 19.8125 13.601562 C 19.8125 13.601562 19.605469 13.917969 19.332031 14.144531 C 19.492188 13.6875 19.660156 13.296875 19.777344 13.050781 C 21.566406 12.945312 21.339844 11.015625 21.339844 11.015625 C 21.339844 11.015625 19.382812 11.15625 19.636719 12.957031 C 19.308594 13.40625 19.039062 13.90625 19.039062 13.90625 C 19.003906 13.769531 18.574219 13.347656 18.363281 13.148438 C 18.511719 12.945312 18.96875 12.324219 19.226562 12.085938 C 19.226562 12.085938 19.75 11.46875 19.855469 11.109375 C 19.855469 11.109375 19.953125 11.003906 20.292969 10.960938 L 20.722656 10.953125 C 20.722656 10.953125 20.796875 10.960938 20.945312 10.859375 L 21.488281 10.523438 C 21.488281 10.523438 22.261719 10.496094 23.054688 10.621094 C 23.535156 12.40625 25.402344 11.742188 25.402344 11.742188 C 25.402344 11.742188 25.109375 10.785156 24.324219 10.476562 C 24.234375 10.394531 24.109375 10.292969 23.941406 10.179688 C 25.183594 10.59375 25.953125 9.238281 25.953125 9.238281 C 25.953125 9.238281 24.300781 8.203125 23.4375 9.785156 C 23.332031 9.878906 23.03125 10.140625 22.742188 10.210938 C 22.742188 10.210938 22.699219 10.210938 22.746094 10.148438 C 22.746094 10.148438 22.886719 9.933594 22.835938 9.832031 L 22.824219 9.832031 C 22.824219 9.832031 22.851562 9.929688 22.71875 10.128906 C 22.71875 10.128906 22.6875 10.171875 22.625 10.207031 L 22.359375 10.386719 C 22.167969 10.359375 21.953125 10.332031 21.71875 10.3125 C 21.71875 10.3125 22.089844 9.832031 22.285156 9.742188 C 22.285156 9.742188 22.640625 9.457031 22.757812 9.175781 C 22.757812 9.175781 23.046875 8.863281 23.253906 8.777344 L 23.238281 8.757812 C 23.238281 8.757812 22.875 8.964844 22.726562 9.164062 C 22.726562 9.164062 22.734375 8.921875 22.800781 8.695312 C 24.671875 8.382812 24.152344 6.441406 24.152344 6.441406 C 24.152344 6.441406 22.183594 6.871094 22.769531 8.683594 C 22.722656 8.804688 22.675781 8.96875 22.667969 9.160156 C 22.667969 9.160156 22.34375 9.617188 22.238281 9.667969 C 22.238281 9.667969 21.683594 10.074219 21.613281 10.296875 C 21.613281 10.296875 20.921875 10.707031 20.75 10.753906 C 20.75 10.753906 20.113281 10.730469 20.007812 10.792969 C 20.007812 10.792969 20.082031 10.53125 20.140625 10.238281 C 21.910156 9.882812 21.40625 7.996094 21.40625 7.996094 C 21.40625 7.996094 19.457031 8.425781 20.011719 10.207031 C 19.839844 10.660156 19.472656 11.492188 18.953125 11.960938 C 18.953125 11.960938 18.847656 12.015625 18.875 11.808594 C 18.875 11.808594 18.902344 11.476562 18.839844 11.210938 C 20.359375 10.175781 19.125 8.632812 19.125 8.632812 C 19.125 8.632812 17.484375 9.828125 18.773438 11.257812 C 18.796875 11.386719 18.808594 11.5625 18.785156 11.796875 C 18.785156 11.796875 18.761719 11.945312 18.660156 12.109375 L 18.214844 12.972656 C 18.0625 12.632812 17.785156 11.5625 17.785156 11.5625 C 17.957031 11.234375 17.785156 10.164062 17.785156 10.164062 C 17.722656 9.988281 17.871094 9.113281 17.871094 9.113281 C 18.101562 8.851562 18.246094 8.578125 18.328125 8.371094 C 20.191406 8.054688 19.675781 6.117188 19.675781 6.117188 C 19.675781 6.117188 17.714844 6.546875 18.285156 8.34375 C 18.109375 8.714844 17.796875 9.054688 17.796875 9.054688 C 17.851562 8.660156 17.671875 8.027344 17.671875 8.027344 L 17.632812 8.03125 C 17.773438 8.359375 17.746094 9.03125 17.746094 9.03125 C 17.570312 9.476562 17.644531 10.195312 17.644531 10.195312 C 17.769531 10.511719 17.652344 11.460938 17.652344 11.460938 C 17.589844 11.410156 17.53125 11.363281 17.472656 11.316406 C 17.441406 10.492188 16.679688 9.890625 16.679688 9.890625 C 16.679688 9.890625 16.480469 10.125 16.328125 10.472656 C 15.398438 9.855469 14.851562 9.652344 14.851562 9.652344 L 14.851562 9.734375 C 15.335938 9.984375 15.824219 10.328125 16.253906 10.667969 C 16.078125 11.195312 16.078125 11.898438 16.875 12.484375 C 16.847656 12.6875 16.820312 12.925781 16.804688 13.203125 C 16.804688 13.203125 16.429688 12.9375 16.359375 12.789062 C 16.359375 12.789062 16.132812 12.527344 15.917969 12.445312 C 15.917969 12.445312 15.671875 12.238281 15.601562 12.082031 L 15.585938 12.09375 C 15.585938 12.09375 15.753906 12.363281 15.90625 12.472656 C 15.90625 12.472656 15.527344 12.46875 15.339844 12.339844 L 15.34375 12.363281 C 15.34375 12.363281 15.574219 12.511719 15.90625 12.515625 C 15.90625 12.515625 16.261719 12.75 16.300781 12.828125 C 16.300781 12.828125 16.625 13.234375 16.796875 13.285156 C 16.796875 13.285156 17.125 13.796875 17.164062 13.925781 C 17.164062 13.925781 17.164062 14.410156 17.210938 14.488281 C 17.210938 14.488281 16.824219 14.386719 16.519531 14.375 L 16.527344 14.425781 C 16.527344 14.425781 17.441406 14.667969 17.992188 15.136719 C 17.808594 15.492188 17.640625 15.609375 17.640625 15.609375 C 17.171875 14.890625 16.011719 14.359375 16.011719 14.359375 C 15.246094 13.972656 14.71875 13.363281 14.71875 13.363281 C 14.417969 12.585938 15.125 12.042969 15.125 12.042969 L 15.011719 11.96875 C 14.730469 12.011719 14.480469 12.394531 14.480469 12.394531 C 14.410156 11.953125 14.527344 10.824219 14.527344 10.824219 L 14.4375 10.765625 C 13.894531 12.4375 14.496094 13.347656 14.496094 13.347656 C 13.542969 12.773438 12.9375 11.144531 12.9375 11.144531 L 12.792969 11.144531 C 13.050781 12.089844 13.578125 12.832031 14.117188 13.378906 C 14.105469 13.425781 14.085938 13.507812 14.066406 13.609375 C 13.953125 13.636719 13.847656 13.671875 13.773438 13.710938 C 13.773438 13.710938 13.652344 13.71875 13.425781 13.542969 L 13.171875 13.296875 C 13.171875 13.296875 13.132812 13.25 12.984375 13.222656 L 12.46875 13.101562 C 12.46875 13.101562 11.679688 12.363281 11.296875 11.632812 L 11.253906 11.632812 C 11.253906 11.632812 11.46875 12.199219 12.210938 13.089844 C 12.210938 13.089844 11.714844 13.15625 11.546875 13.089844 C 11.546875 13.089844 11.167969 13.050781 10.9375 13.144531 C 10.9375 13.144531 10.664062 13.160156 10.480469 13.109375 C 9.320312 12.117188 8.101562 13.371094 8.101562 13.371094 C 8.101562 13.371094 9.5 14.847656 10.753906 13.390625 C 10.75 13.386719 10.746094 13.382812 10.746094 13.378906 C 10.820312 13.335938 10.902344 13.28125 10.980469 13.210938 C 10.980469 13.210938 11.441406 13.132812 11.53125 13.164062 C 11.53125 13.164062 12.089844 13.25 12.265625 13.160156 C 12.265625 13.160156 12.910156 13.324219 13.039062 13.398438 C 13.039062 13.398438 13.398438 13.785156 13.496094 13.808594 C 13.496094 13.808594 13.449219 13.835938 13.375 13.878906 C 11.722656 13.023438 10.957031 14.859375 10.957031 14.859375 C 10.957031 14.859375 12.691406 15.675781 13.371094 14.054688 C 13.5625 13.976562 13.792969 13.894531 14.039062 13.835938 C 14.015625 14.101562 14.027344 14.4375 14.15625 14.753906 C 14.015625 14.808594 13.824219 14.871094 13.652344 14.894531 L 13.648438 14.910156 C 13.648438 14.910156 13.835938 14.90625 14.179688 14.804688 C 14.207031 14.859375 14.234375 14.917969 14.269531 14.972656 C 14.261719 14.984375 14.253906 14.996094 14.246094 15.003906 C 14.246094 15.003906 14.179688 15.144531 14.183594 15.246094 C 14.183594 15.246094 14.136719 15.382812 14.085938 15.4375 L 14.09375 15.441406 C 14.09375 15.441406 14.175781 15.328125 14.195312 15.246094 C 14.195312 15.246094 14.257812 15.402344 14.238281 15.5 L 14.246094 15.496094 C 14.246094 15.496094 14.265625 15.375 14.210938 15.238281 C 14.210938 15.238281 14.25 15.050781 14.273438 15.023438 C 14.273438 15.023438 14.277344 15.011719 14.285156 14.996094 C 14.476562 15.285156 14.792969 15.527344 15.3125 15.65625 C 15.574219 16.039062 15.890625 16.390625 15.890625 16.390625 C 15.730469 16.375 14.988281 16.765625 14.988281 16.765625 C 14.894531 16.78125 14.652344 16.777344 14.40625 16.761719 C 13.929688 15.519531 12.378906 15.808594 12.378906 15.808594 C 12.378906 15.808594 12.410156 16.023438 12.515625 16.296875 C 12.28125 16.222656 11.8125 15.957031 11.8125 15.957031 C 11.539062 15.457031 11.128906 15.214844 11.128906 15.214844 L 11.085938 15.234375 C 11.441406 15.414062 11.746094 15.996094 11.746094 15.996094 C 11.554688 15.898438 11.25 15.847656 11.066406 15.824219 C 9.8125 14.414062 8.441406 15.878906 8.441406 15.878906 C 8.441406 15.878906 9.859375 17.328125 11.089844 15.851562 C 11.375 15.894531 11.710938 16.03125 11.710938 16.03125 C 11.976562 16.265625 12.464844 16.402344 12.570312 16.429688 C 12.679688 16.664062 12.835938 16.914062 13.074219 17.105469 C 13.046875 17.125 13.015625 17.144531 12.988281 17.164062 C 12.875 17.1875 12.675781 17.238281 12.578125 17.300781 C 12.578125 17.300781 12.515625 17.308594 12.386719 17.230469 L 12.238281 17.109375 C 12.238281 17.109375 12.214844 17.085938 12.132812 17.078125 L 11.851562 17.039062 C 11.851562 17.039062 11.394531 16.683594 11.15625 16.308594 L 11.132812 16.3125 C 11.132812 16.3125 11.273438 16.605469 11.714844 17.042969 C 11.714844 17.042969 11.453125 17.101562 11.359375 17.078125 C 11.359375 17.078125 11.15625 17.074219 11.035156 17.136719 C 11.035156 17.136719 10.925781 17.152344 10.832031 17.144531 C 9.347656 16.199219 8.386719 17.855469 8.386719 17.855469 C 8.386719 17.855469 10.070312 18.933594 10.941406 17.273438 C 10.980469 17.246094 11.023438 17.210938 11.0625 17.167969 C 11.0625 17.167969 11.304688 17.105469 11.355469 17.117188 C 11.355469 17.117188 11.65625 17.136719 11.746094 17.078125 C 11.746094 17.078125 12.097656 17.136719 12.171875 17.167969 C 12.171875 17.167969 12.382812 17.359375 12.433594 17.367188 C 12.433594 17.367188 12.238281 17.496094 12.113281 17.625 L 12.140625 17.640625 C 12.140625 17.640625 12.390625 17.476562 12.6875 17.367188 C 12.070312 17.800781 11.691406 18.148438 11.511719 18.328125 C 9.691406 18.75 10.304688 20.648438 10.304688 20.648438 C 10.304688 20.648438 12.226562 20.121094 11.582031 18.367188 C 12.117188 17.910156 12.789062 17.511719 13.285156 17.25 C 13.589844 17.414062 13.988281 17.484375 14.519531 17.355469 C 14.613281 17.453125 14.785156 17.621094 15.054688 17.828125 C 15.023438 18.007812 15.023438 18.183594 15.03125 18.339844 C 15.027344 18.339844 15.023438 18.339844 15.023438 18.339844 C 15.023438 18.339844 14.714844 18.402344 14.554688 18.535156 C 14.554688 18.535156 14.28125 18.632812 14.125 18.617188 L 14.128906 18.636719 C 14.128906 18.636719 14.414062 18.625 14.570312 18.550781 C 14.570312 18.550781 14.492188 18.6875 14.382812 18.804688 C 14.382812 18.792969 14.378906 18.785156 14.378906 18.773438 C 12.457031 18.917969 12.820312 20.914062 12.820312 20.914062 C 12.820312 20.914062 14.792969 20.648438 14.390625 18.832031 C 14.460938 18.769531 14.539062 18.683594 14.605469 18.574219 C 14.605469 18.574219 14.949219 18.398438 15.027344 18.402344 C 15.027344 18.402344 15.03125 18.402344 15.039062 18.402344 C 15.066406 18.6875 15.132812 18.890625 15.132812 18.890625 C 15.132812 18.890625 15.78125 18.707031 16.195312 18.207031 C 16.230469 18.207031 16.257812 18.210938 16.277344 18.214844 C 16.277344 18.214844 16.65625 18.433594 16.738281 18.429688 C 16.738281 18.429688 16.570312 18.601562 16.429688 18.792969 C 14.714844 19.550781 15.679688 21.300781 15.679688 21.300781 C 15.679688 21.300781 17.460938 20.417969 16.503906 18.824219 C 16.691406 18.65625 17.066406 18.339844 17.46875 18.15625 C 17.484375 18.359375 17.519531 18.65625 17.59375 18.792969 C 17.59375 18.792969 18.085938 24.273438 17.59375 26.542969 C 17.59375 26.542969 17.183594 28.027344 17.183594 28.617188 L 19.613281 28.617188 C 19.613281 28.027344 19.203125 26.542969 19.203125 26.542969 C 18.710938 24.273438 19.203125 18.792969 19.203125 18.792969 C 19.242188 18.71875 19.269531 18.601562 19.289062 18.480469 C 19.574219 18.398438 19.902344 18.292969 20.085938 18.210938 C 20.085938 18.210938 20.78125 18.289062 21.371094 18.898438 C 21.371094 18.898438 22.214844 19.761719 23.476562 20.015625 C 24.789062 21.253906 26.039062 19.753906 26.039062 19.753906 C 26.039062 19.753906 24.582031 18.429688 23.449219 19.863281 C 23.128906 19.792969 22.789062 19.671875 22.546875 19.476562 C 22.546875 19.476562 23.304688 19.65625 24.289062 18.886719 L 24.226562 18.839844 C 24.226562 18.839844 23.5 19.195312 23.1875 19.253906 C 23.1875 19.253906 23.382812 18.996094 23.34375 18.796875 L 23.269531 18.738281 C 23.269531 18.738281 23.074219 19.34375 22.484375 19.332031 C 22.484375 19.332031 22.269531 19.253906 22 19.085938 C 22.144531 18.945312 22.398438 18.675781 22.476562 18.488281 C 22.476562 18.488281 22.5625 18.417969 22.828125 18.414062 L 23.160156 18.449219 C 23.160156 18.449219 23.21875 18.460938 23.34375 18.394531 L 23.789062 18.1875 C 23.789062 18.1875 24.203125 18.222656 24.683594 18.332031 C 25.371094 20.035156 27.144531 19.164062 27.144531 19.164062 C 27.144531 19.164062 26.34375 17.339844 24.699219 18.230469 C 24.5 18.167969 24.261719 18.105469 23.988281 18.046875 C 23.988281 18.046875 24.316406 17.710938 24.476562 17.664062 C 24.476562 17.664062 24.757812 17.484375 24.882812 17.289062 C 26.085938 18.734375 27.507812 17.320312 27.507812 17.320312 C 27.507812 17.320312 26.144531 15.832031 24.871094 17.242188 C 24.882812 17.175781 24.945312 16.855469 25.089844 16.707031 L 25.066406 16.703125 C 25.066406 16.703125 24.878906 16.917969 24.824219 17.246094 C 24.824219 17.246094 24.53125 17.570312 24.445312 17.597656 C 24.445312 17.597656 23.984375 17.859375 23.90625 18.027344 C 23.90625 18.027344 23.335938 18.277344 23.199219 18.296875 C 23.199219 18.296875 22.710938 18.21875 22.625 18.257812 C 22.625 18.257812 22.789062 17.882812 22.847656 17.578125 L 22.796875 17.574219 C 22.796875 17.574219 22.394531 18.488281 21.820312 18.96875 C 21.714844 18.894531 21.609375 18.808594 21.503906 18.714844 C 21.503906 18.714844 20.867188 18.070312 20.273438 17.933594 C 20.273438 17.933594 20.351562 17.617188 20.929688 17.226562 C 22.128906 17.507812 22.664062 16.726562 22.882812 16.179688 C 23.050781 16.5 23.429688 17.070312 24.105469 17.320312 L 24.109375 17.257812 C 24.109375 17.257812 23.460938 16.957031 23.261719 16.542969 C 23.261719 16.542969 23.613281 16.824219 24.316406 16.65625 L 24.296875 16.621094 C 24.296875 16.621094 23.828125 16.628906 23.652344 16.582031 C 23.652344 16.582031 23.816406 16.496094 23.84375 16.382812 L 23.816406 16.332031 C 23.816406 16.332031 23.570312 16.601562 23.261719 16.453125 C 23.261719 16.453125 23.082031 16.269531 22.949219 16.003906 C 23.007812 15.824219 23.027344 15.695312 23.027344 15.695312 C 23.027344 15.695312 22.941406 15.679688 22.800781 15.667969 C 22.71875 15.507812 22.597656 15.300781 22.441406 15.179688 C 22.441406 15.179688 22.621094 14.953125 23.304688 14.9375 L 23.3125 14.882812 C 23.3125 14.882812 22.582031 14.867188 22.304688 15.066406 C 22.304688 15.066406 21.96875 15.007812 21.714844 14.90625 C 21.804688 14.855469 21.988281 14.773438 22.328125 14.734375 L 22.992188 14.734375 C 22.992188 14.734375 23.101562 14.746094 23.335938 14.589844 L 24.175781 14.082031 C 24.175781 14.082031 25.371094 14.058594 26.589844 14.269531 C 27.394531 15.894531 29.089844 14.921875 29.089844 14.921875 Z M 23.394531 9.894531 C 23.546875 10.003906 23.695312 10.082031 23.835938 10.140625 C 23.75 10.140625 23.574219 10.144531 23.527344 10.136719 C 23.527344 10.136719 23.328125 10.015625 23.28125 10.019531 C 23.28125 10.019531 23.335938 9.964844 23.394531 9.894531 Z M 22.808594 10.296875 C 22.808594 10.296875 23.082031 10.191406 23.179688 10.09375 C 23.179688 10.09375 23.230469 10.078125 23.34375 10.121094 L 23.484375 10.195312 C 23.484375 10.195312 23.507812 10.210938 23.570312 10.203125 L 23.804688 10.1875 C 23.804688 10.1875 24.003906 10.289062 24.214844 10.4375 C 23.910156 10.347656 23.539062 10.351562 23.09375 10.527344 C 22.929688 10.488281 22.738281 10.449219 22.511719 10.414062 C 22.617188 10.367188 22.734375 10.316406 22.808594 10.296875 Z M 10.71875 13.351562 C 10.648438 13.269531 10.578125 13.195312 10.507812 13.132812 C 10.621094 13.160156 10.8125 13.191406 10.949219 13.171875 C 10.949219 13.171875 10.851562 13.265625 10.71875 13.351562 Z M 10.957031 17.230469 C 10.921875 17.203125 10.882812 17.179688 10.847656 17.15625 C 10.90625 17.160156 10.984375 17.164062 11.042969 17.148438 C 11.042969 17.148438 11.007812 17.1875 10.957031 17.230469 Z M 19.085938 16.886719 C 19.15625 16.585938 19.292969 16.394531 19.292969 16.394531 C 19.574219 16.050781 19.820312 15.851562 20.007812 15.738281 C 20.003906 15.820312 19.996094 15.90625 19.984375 15.996094 C 19.984375 15.996094 19.949219 16.222656 19.789062 16.472656 L 19.003906 17.949219 L 18.75 17.949219 Z M 17.457031 14.59375 C 17.457031 14.59375 17.375 14.523438 17.332031 14.265625 L 17.316406 13.941406 C 17.316406 13.941406 17.320312 13.886719 17.238281 13.773438 L 16.96875 13.375 C 16.96875 13.375 16.941406 12.96875 16.976562 12.484375 C 17.226562 12.21875 17.363281 11.957031 17.429688 11.707031 C 17.585938 11.863281 17.675781 11.957031 17.675781 11.957031 L 17.910156 12.933594 C 17.960938 13.21875 18.054688 13.292969 18.054688 13.292969 L 18.390625 13.632812 C 18.324219 14.222656 18.207031 14.644531 18.082031 14.945312 C 17.917969 14.828125 17.640625 14.640625 17.457031 14.59375 Z M 18.519531 13.765625 L 18.53125 13.777344 C 18.867188 14.207031 18.855469 14.4375 18.855469 14.4375 C 18.578125 14.957031 18.476562 16.234375 18.476562 16.234375 C 18.488281 16.621094 18.40625 17.335938 18.335938 17.859375 C 17.996094 17.289062 17.890625 15.960938 17.890625 15.960938 C 18.308594 15.464844 18.46875 14.253906 18.519531 13.765625 Z M 15.414062 15.5625 C 15.578125 15.09375 15.554688 14.714844 15.433594 14.410156 C 15.679688 14.554688 15.832031 14.625 15.832031 14.625 C 16.921875 15.109375 17.363281 15.988281 17.363281 15.988281 C 17.34375 16.238281 17.359375 16.640625 17.382812 17.015625 C 16.542969 16.632812 15.753906 15.898438 15.414062 15.5625 Z M 14.527344 17.308594 C 14.515625 17.183594 14.496094 17.066406 14.46875 16.960938 L 14.8125 17 C 15.050781 17.039062 15.132812 16.988281 15.132812 16.988281 L 15.644531 16.75 C 15.777344 16.707031 15.886719 16.683594 15.976562 16.671875 C 15.410156 16.910156 15.164062 17.324219 15.074219 17.730469 C 14.886719 17.605469 14.691406 17.460938 14.527344 17.308594 Z M 16.933594 18.285156 C 16.933594 18.285156 16.839844 18.316406 16.617188 18.238281 L 16.355469 18.101562 C 16.355469 18.101562 16.335938 18.089844 16.285156 18.085938 C 16.488281 17.789062 16.601562 17.394531 16.476562 16.878906 C 16.773438 17.101562 17.195312 17.3125 17.410156 17.417969 C 17.433594 17.726562 17.457031 17.949219 17.457031 17.949219 C 17.457031 17.949219 17.457031 17.957031 17.457031 17.964844 C 17.292969 18.042969 17.046875 18.167969 16.933594 18.285156 Z M 22.640625 15.660156 C 22.0625 15.652344 21.027344 15.824219 20.863281 17.121094 C 20.523438 17.316406 20.128906 17.585938 19.976562 17.851562 C 19.976562 17.851562 19.699219 17.925781 19.375 17.980469 C 19.65625 17.609375 20.292969 16.785156 20.660156 16.453125 C 20.660156 16.453125 21.28125 15.734375 21.550781 15.1875 C 21.714844 15.214844 22.09375 15.277344 22.273438 15.28125 C 22.273438 15.28125 22.472656 15.402344 22.640625 15.660156 Z M 22.640625 15.660156 "/></g><path style=" stroke:none;fill-rule:nonzero;fill:rgb(100%,100%,100%);fill-opacity:1;" d="M 25.898438 14.292969 C 25.0625 16.027344 26.976562 16.710938 26.976562 16.710938 C 26.976562 16.710938 27.746094 14.832031 25.898438 14.292969 Z M 25.898438 14.292969 "/><path style=" stroke:none;fill-rule:nonzero;fill:rgb(100%,100%,100%);fill-opacity:1;" d="M 24.738281 16.824219 C 24.738281 16.824219 26.160156 15.375 24.65625 14.179688 C 23.226562 15.464844 24.738281 16.824219 24.738281 16.824219 Z M 24.738281 16.824219 "/><path style=" stroke:none;fill-rule:nonzero;fill:rgb(100%,100%,100%);fill-opacity:1;" d="M 22.320312 19.75 C 20.925781 21.078125 22.472656 22.394531 22.472656 22.394531 C 22.472656 22.394531 23.859375 20.90625 22.320312 19.75 Z M 22.320312 19.75 "/><path style=" stroke:none;fill-rule:nonzero;fill:rgb(100%,100%,100%);fill-opacity:1;" d="M 20.308594 21.359375 C 20.308594 21.359375 22.109375 20.414062 21.042969 18.816406 C 19.285156 19.605469 20.308594 21.359375 20.308594 21.359375 Z M 20.308594 21.359375 "/><path style=" stroke:none;fill-rule:nonzero;fill:rgb(100%,100%,100%);fill-opacity:1;" d="M 10.941406 13.015625 C 11.730469 11.261719 9.800781 10.625 9.800781 10.625 C 9.800781 10.625 9.078125 12.523438 10.941406 13.015625 Z M 10.941406 13.015625 "/><path style=" stroke:none;fill-rule:nonzero;fill:rgb(100%,100%,100%);fill-opacity:1;" d="M 11.859375 9.03125 C 11.859375 9.03125 10.15625 10.136719 11.367188 11.628906 C 13.042969 10.679688 11.859375 9.03125 11.859375 9.03125 Z M 11.859375 9.03125 "/></g></svg>