<svg xmlns="http://www.w3.org/2000/svg" xmlns:xlink="http://www.w3.org/1999/xlink" width="50" zoomAndPan="magnify" viewBox="0 0 37.5 44.999999" height="60" preserveAspectRatio="xMidYMid meet" version="1.0"><defs><clipPath id="f06a99b899"><path d="M 6.664062 1.820312 L 30.664062 1.820312 L 30.664062 25.820312 L 6.664062 25.820312 Z M 6.664062 1.820312 " clip-rule="nonzero"/></clipPath><clipPath id="a56886dcab"><path d="M 4.917969 0.296875 L 32.667969 0.296875 L 32.667969 44.703125 L 4.917969 44.703125 Z M 4.917969 0.296875 " clip-rule="nonzero"/></clipPath><clipPath id="dd29daf459"><path d="M 7.335938 2.492188 L 29.835938 2.492188 L 29.835938 24.992188 L 7.335938 24.992188 Z M 7.335938 2.492188 " clip-rule="nonzero"/></clipPath><clipPath id="97524240a1"><path d="M 7.835938 2.996094 L 29.585938 2.996094 L 29.585938 24.746094 L 7.835938 24.746094 Z M 7.835938 2.996094 " clip-rule="nonzero"/></clipPath><clipPath id="b41e3d57b0"><path d="M 13.203125 8.542969 L 24.453125 8.542969 L 24.453125 19.042969 L 13.203125 19.042969 Z M 13.203125 8.542969 " clip-rule="nonzero"/></clipPath></defs><g clip-path="url(#f06a99b899)"><path fill="#ffffff" d="M 18.664062 1.820312 C 12.046875 1.820312 6.664062 7.203125 6.664062 13.820312 C 6.664062 20.4375 12.046875 25.820312 18.664062 25.820312 C 25.277344 25.820312 30.664062 20.4375 30.664062 13.820312 C 30.664062 7.203125 25.277344 1.820312 18.664062 1.820312 Z M 18.664062 24.222656 C 12.925781 24.222656 8.261719 19.554688 8.261719 13.820312 C 8.261719 8.085938 12.925781 3.421875 18.664062 3.421875 C 24.398438 3.421875 29.0625 8.085938 29.0625 13.820312 C 29.0625 19.554688 24.398438 24.222656 18.664062 24.222656 Z M 18.664062 24.222656 " fill-opacity="1" fill-rule="nonzero"/></g><g clip-path="url(#a56886dcab)"><path fill="#ea4335" d="M 18.839844 45.289062 C 17.816406 40.277344 16.007812 36.105469 13.820312 32.238281 C 12.199219 29.371094 10.316406 26.726562 8.578125 23.945312 C 7.996094 23.015625 7.496094 22.035156 6.9375 21.070312 C 5.824219 19.144531 4.917969 16.910156 4.976562 14.011719 C 5.03125 11.183594 5.851562 8.910156 7.039062 7.054688 C 8.984375 4 12.25 1.496094 16.628906 0.839844 C 20.210938 0.300781 23.566406 1.210938 25.945312 2.597656 C 27.890625 3.730469 29.398438 5.246094 30.542969 7.03125 C 31.738281 8.894531 32.5625 11.09375 32.632812 13.964844 C 32.667969 15.433594 32.425781 16.796875 32.085938 17.925781 C 31.738281 19.070312 31.1875 20.027344 30.691406 21.046875 C 29.730469 23.039062 28.523438 24.867188 27.3125 26.691406 C 23.707031 32.136719 20.324219 37.683594 18.839844 45.289062 Z M 18.839844 45.289062 " fill-opacity="1" fill-rule="evenodd"/></g><path fill="#ea4335" d="M 23.648438 13.980469 C 23.648438 14.300781 23.617188 14.613281 23.554688 14.925781 C 23.492188 15.234375 23.402344 15.539062 23.28125 15.832031 C 23.160156 16.125 23.007812 16.402344 22.832031 16.664062 C 22.65625 16.929688 22.453125 17.171875 22.230469 17.398438 C 22.003906 17.621094 21.761719 17.820312 21.496094 17.996094 C 21.230469 18.171875 20.953125 18.324219 20.65625 18.445312 C 20.363281 18.566406 20.0625 18.65625 19.75 18.71875 C 19.4375 18.78125 19.121094 18.8125 18.804688 18.8125 C 18.484375 18.8125 18.171875 18.78125 17.859375 18.71875 C 17.546875 18.65625 17.242188 18.566406 16.949219 18.445312 C 16.65625 18.324219 16.375 18.171875 16.113281 17.996094 C 15.847656 17.820312 15.601562 17.621094 15.378906 17.398438 C 15.152344 17.171875 14.953125 16.929688 14.773438 16.664062 C 14.597656 16.402344 14.449219 16.125 14.328125 15.832031 C 14.207031 15.539062 14.113281 15.234375 14.050781 14.925781 C 13.988281 14.613281 13.957031 14.300781 13.957031 13.980469 C 13.957031 13.664062 13.988281 13.351562 14.050781 13.039062 C 14.113281 12.730469 14.207031 12.425781 14.328125 12.132812 C 14.449219 11.839844 14.597656 11.5625 14.773438 11.300781 C 14.953125 11.035156 15.152344 10.792969 15.378906 10.566406 C 15.601562 10.34375 15.847656 10.144531 16.113281 9.964844 C 16.375 9.789062 16.65625 9.640625 16.949219 9.519531 C 17.242188 9.398438 17.546875 9.308594 17.859375 9.246094 C 18.171875 9.183594 18.484375 9.152344 18.804688 9.152344 C 19.121094 9.152344 19.4375 9.183594 19.75 9.246094 C 20.0625 9.308594 20.363281 9.398438 20.65625 9.519531 C 20.953125 9.640625 21.230469 9.789062 21.496094 9.964844 C 21.761719 10.144531 22.003906 10.34375 22.230469 10.566406 C 22.453125 10.792969 22.65625 11.035156 22.832031 11.300781 C 23.007812 11.5625 23.160156 11.839844 23.28125 12.132812 C 23.402344 12.425781 23.492188 12.730469 23.554688 13.039062 C 23.617188 13.351562 23.648438 13.664062 23.648438 13.980469 Z M 23.648438 13.980469 " fill-opacity="1" fill-rule="nonzero"/><g clip-path="url(#dd29daf459)"><path fill="#ffffff" d="M 18.585938 2.492188 C 12.386719 2.492188 7.34375 7.539062 7.34375 13.742188 C 7.34375 19.945312 12.386719 24.992188 18.585938 24.992188 C 24.785156 24.992188 29.828125 19.945312 29.828125 13.742188 C 29.828125 7.539062 24.785156 2.492188 18.585938 2.492188 Z M 25.972656 21.132812 C 25.011719 22.089844 23.894531 22.84375 22.652344 23.371094 C 21.363281 23.914062 19.996094 24.191406 18.585938 24.191406 C 17.175781 24.191406 15.808594 23.914062 14.519531 23.371094 C 13.277344 22.84375 12.160156 22.089844 11.203125 21.132812 C 10.242188 20.171875 9.488281 19.054688 8.960938 17.808594 C 8.417969 16.523438 8.140625 15.15625 8.140625 13.742188 C 8.140625 12.332031 8.417969 10.960938 8.960938 9.675781 C 9.488281 8.429688 10.242188 7.3125 11.203125 6.355469 C 12.160156 5.394531 13.277344 4.640625 14.519531 4.113281 C 17.089844 3.027344 20.082031 3.027344 22.652344 4.113281 C 23.894531 4.640625 25.011719 5.394531 25.972656 6.355469 C 26.929688 7.3125 27.683594 8.429688 28.210938 9.675781 C 28.753906 10.960938 29.03125 12.332031 29.03125 13.742188 C 29.03125 15.152344 28.753906 16.523438 28.210938 17.808594 C 27.683594 19.054688 26.929688 20.171875 25.972656 21.132812 Z M 25.972656 21.132812 " fill-opacity="1" fill-rule="nonzero"/></g><g clip-path="url(#97524240a1)"><path fill="#ffffff" d="M 18.710938 2.996094 C 12.710938 2.996094 7.835938 7.871094 7.835938 13.871094 C 7.835938 19.871094 12.710938 24.746094 18.710938 24.746094 C 24.710938 24.746094 29.585938 19.871094 29.585938 13.871094 C 29.585938 7.871094 24.710938 2.996094 18.710938 2.996094 Z M 18.710938 3.46875 C 24.464844 3.46875 29.113281 8.121094 29.113281 13.871094 C 29.113281 19.621094 24.464844 24.273438 18.710938 24.273438 C 12.960938 24.273438 8.308594 19.621094 8.308594 13.871094 C 8.308594 8.121094 12.960938 3.46875 18.710938 3.46875 Z M 18.710938 3.46875 " fill-opacity="1" fill-rule="nonzero"/></g><g clip-path="url(#b41e3d57b0)"><path fill="#ffffff" d="M 20.351562 13.847656 L 23.902344 10.421875 C 24.320312 10.015625 24.320312 9.359375 23.902344 8.953125 C 23.480469 8.546875 22.796875 8.546875 22.378906 8.953125 L 18.828125 12.378906 L 15.277344 8.953125 C 14.859375 8.546875 14.175781 8.546875 13.753906 8.953125 C 13.335938 9.359375 13.335938 10.015625 13.753906 10.421875 L 17.304688 13.847656 L 13.746094 17.28125 C 13.324219 17.6875 13.324219 18.34375 13.746094 18.75 C 13.957031 18.953125 14.234375 19.054688 14.507812 19.054688 C 14.785156 19.054688 15.058594 18.953125 15.269531 18.75 L 18.828125 15.316406 L 22.375 18.742188 C 22.585938 18.945312 22.863281 19.046875 23.136719 19.046875 C 23.414062 19.046875 23.691406 18.945312 23.898438 18.742188 C 24.320312 18.335938 24.320312 17.679688 23.898438 17.273438 Z M 20.351562 13.847656 " fill-opacity="1" fill-rule="nonzero"/></g></svg>