<?xml version="1.0" encoding="UTF-8"?><svg xmlns="http://www.w3.org/2000/svg" xmlns:xlink="http://www.w3.org/1999/xlink" width="30pt" zoomAndPan="magnify" viewBox="0 0 30 30.000001" height="30.000001pt" preserveAspectRatio="xMidYMid meet" version="1.2"><defs><clipPath xml:id="clip1" id="clip1"><path d="M 23 7 L 27.589844 7 L 27.589844 10 L 23 10 Z M 23 7 "/></clipPath><clipPath xml:id="clip2" id="clip2"><path d="M 1.457031 0.871094 L 27.589844 0.871094 L 27.589844 29.03125 L 1.457031 29.03125 Z M 1.457031 0.871094 "/></clipPath></defs><g xml:id="surface1" id="surface1"><path style=" stroke:none;fill-rule:nonzero;fill:rgb(100%,100%,100%);fill-opacity:1;" d="M 8.425781 7.5625 C 10.054688 5.785156 8.027344 4.257812 8.027344 4.257812 C 8.027344 4.257812 6.421875 6.230469 8.425781 7.5625 Z M 8.425781 7.5625 "/><path style=" stroke:none;fill-rule:nonzero;fill:rgb(100%,100%,100%);fill-opacity:1;" d="M 11.28125 5.6875 C 12.058594 3.398438 9.59375 2.824219 9.59375 2.824219 C 9.59375 2.824219 8.917969 5.285156 11.28125 5.6875 Z M 11.28125 5.6875 "/><path style=" stroke:none;fill-rule:nonzero;fill:rgb(100%,100%,100%);fill-opacity:1;" d="M 12.546875 5.609375 C 14.21875 3.871094 12.230469 2.292969 12.230469 2.292969 C 12.230469 2.292969 10.578125 4.226562 12.546875 5.609375 Z M 12.546875 5.609375 "/><g clip-rule="nonzero" clip-path="url(#clip1)"><path style=" stroke:none;fill-rule:nonzero;fill:rgb(100%,100%,100%);fill-opacity:1;" d="M 23.816406 8.78125 C 25.367188 10.628906 27.117188 8.78125 27.117188 8.78125 C 27.117188 8.78125 25.367188 6.933594 23.816406 8.78125 Z M 23.816406 8.78125 "/></g><g clip-rule="nonzero" clip-path="url(#clip2)"><path style=" stroke:none;fill-rule:nonzero;fill:rgb(100%,100%,100%);fill-opacity:1;" d="M 27.582031 11.945312 C 27.582031 11.945312 26.460938 9.753906 24.519531 10.9375 C 23.882812 10.777344 23.019531 10.605469 21.917969 10.488281 C 21.917969 10.488281 22.636719 9.570312 23.019531 9.40625 C 23.019531 9.40625 23.707031 8.851562 23.941406 8.316406 C 23.941406 8.316406 24.25 7.980469 24.578125 7.746094 C 26.867188 8.273438 27.199219 5.773438 27.199219 5.773438 C 27.199219 5.773438 24.71875 5.324219 24.535156 7.722656 C 24.3125 7.871094 24.035156 8.082031 23.875 8.289062 C 23.875 8.289062 23.921875 7.320312 24.28125 6.859375 L 24.214844 6.859375 C 24.214844 6.859375 23.816406 7.4375 23.765625 8.277344 C 23.765625 8.277344 23.128906 9.160156 22.925781 9.253906 C 22.925781 9.253906 21.859375 10.027344 21.71875 10.460938 C 21.71875 10.460938 21.503906 10.585938 21.222656 10.738281 C 22.199219 9.632812 21.273438 8.101562 21.273438 8.101562 C 21.273438 8.101562 19.144531 9.285156 20.351562 11.203125 C 20.222656 11.261719 20.113281 11.308594 20.046875 11.328125 C 20.046875 11.328125 18.824219 11.261719 18.621094 11.382812 C 18.621094 11.382812 18.8125 10.761719 18.921875 10.113281 C 20.859375 8.976562 19.519531 6.9375 19.519531 6.9375 C 19.519531 6.9375 17.441406 8.199219 18.710938 10.066406 C 18.40625 10.882812 17.652344 12.65625 16.566406 13.617188 C 16.566406 13.617188 16.371094 13.726562 16.425781 13.324219 C 16.425781 13.324219 16.445312 13.136719 16.441406 12.886719 C 16.65625 12.785156 16.777344 12.785156 16.777344 12.785156 L 16.75 12.707031 C 16.652344 12.691406 16.546875 12.707031 16.441406 12.742188 C 16.425781 12.324219 16.347656 11.796875 16.078125 11.597656 L 16.007812 11.632812 C 16.007812 11.632812 16.289062 11.929688 16.28125 12.808594 C 15.769531 13.066406 15.25 13.691406 15.25 13.691406 C 15 14.023438 14.933594 13.800781 14.933594 13.800781 C 14.886719 12.960938 15.097656 12.015625 15.363281 11.203125 C 15.472656 11.121094 15.652344 10.976562 15.722656 10.867188 C 15.722656 10.867188 15.789062 10.828125 15.96875 10.855469 L 16.183594 10.914062 C 16.183594 10.914062 16.21875 10.929688 16.308594 10.898438 L 16.628906 10.808594 C 16.628906 10.808594 17.292969 10.976562 17.730469 11.269531 L 17.753906 11.253906 C 17.753906 11.253906 17.457031 11.003906 16.777344 10.734375 C 16.777344 10.734375 17.03125 10.542969 17.144531 10.53125 C 17.144531 10.53125 17.367188 10.433594 17.464844 10.3125 C 17.464844 10.3125 17.65625 10.195312 17.773438 10.179688 L 17.765625 10.167969 C 17.765625 10.167969 17.554688 10.21875 17.449219 10.300781 C 17.449219 10.300781 17.53125 10.046875 17.660156 9.953125 L 17.640625 9.949219 C 17.640625 9.949219 17.496094 10.070312 17.421875 10.289062 C 17.421875 10.289062 17.191406 10.472656 17.132812 10.484375 C 17.132812 10.484375 16.796875 10.609375 16.726562 10.710938 C 16.726562 10.710938 16.320312 10.816406 16.226562 10.816406 C 16.226562 10.816406 15.910156 10.710938 15.847656 10.726562 C 15.847656 10.726562 15.996094 10.492188 16.070312 10.292969 L 16.035156 10.285156 C 16.035156 10.285156 15.777344 10.6875 15.441406 10.96875 C 15.636719 10.394531 15.847656 9.90625 15.992188 9.597656 C 18.21875 9.460938 17.941406 7.035156 17.941406 7.035156 C 17.941406 7.035156 15.503906 7.210938 15.816406 9.480469 C 15.410156 10.042969 15.078125 10.671875 15.078125 10.671875 C 15.03125 10.496094 14.496094 9.96875 14.234375 9.71875 C 14.417969 9.460938 14.988281 8.683594 15.304688 8.382812 C 15.304688 8.382812 15.957031 7.605469 16.089844 7.15625 C 16.089844 7.15625 16.210938 7.019531 16.636719 6.964844 L 17.171875 6.957031 C 17.171875 6.957031 17.261719 6.964844 17.449219 6.835938 L 18.121094 6.414062 C 18.121094 6.414062 19.085938 6.382812 20.070312 6.539062 C 20.671875 8.78125 22.996094 7.949219 22.996094 7.949219 C 22.996094 7.949219 22.632812 6.746094 21.652344 6.355469 C 21.542969 6.253906 21.386719 6.125 21.175781 5.980469 C 22.726562 6.503906 23.683594 4.800781 23.683594 4.800781 C 23.683594 4.800781 21.625 3.496094 20.550781 5.488281 C 20.421875 5.605469 20.042969 5.933594 19.683594 6.019531 C 19.683594 6.019531 19.632812 6.019531 19.6875 5.941406 C 19.6875 5.941406 19.863281 5.671875 19.800781 5.542969 L 19.785156 5.542969 C 19.785156 5.542969 19.820312 5.671875 19.652344 5.917969 C 19.652344 5.917969 19.613281 5.972656 19.539062 6.015625 L 19.207031 6.246094 C 18.96875 6.207031 18.703125 6.175781 18.410156 6.148438 C 18.410156 6.148438 18.871094 5.546875 19.117188 5.433594 C 19.117188 5.433594 19.558594 5.070312 19.707031 4.722656 C 19.707031 4.722656 20.0625 4.328125 20.320312 4.222656 L 20.300781 4.195312 C 20.300781 4.195312 19.851562 4.453125 19.664062 4.703125 C 19.664062 4.703125 19.675781 4.402344 19.757812 4.117188 C 22.085938 3.722656 21.441406 1.277344 21.441406 1.277344 C 21.441406 1.277344 18.988281 1.820312 19.714844 4.097656 C 19.65625 4.253906 19.601562 4.460938 19.589844 4.699219 C 19.589844 4.699219 19.1875 5.277344 19.054688 5.339844 C 19.054688 5.339844 18.367188 5.847656 18.28125 6.128906 C 18.28125 6.128906 17.414062 6.648438 17.203125 6.707031 C 17.203125 6.707031 16.410156 6.675781 16.277344 6.753906 C 16.277344 6.753906 16.375 6.425781 16.441406 6.054688 C 18.644531 5.609375 18.019531 3.238281 18.019531 3.238281 C 18.019531 3.238281 15.59375 3.773438 16.285156 6.015625 C 16.070312 6.585938 15.613281 7.632812 14.964844 8.222656 C 14.964844 8.222656 14.835938 8.292969 14.871094 8.03125 C 14.871094 8.03125 14.90625 7.617188 14.828125 7.28125 C 16.714844 5.976562 15.183594 4.035156 15.183594 4.035156 C 15.183594 4.035156 13.136719 5.539062 14.742188 7.335938 C 14.773438 7.5 14.785156 7.722656 14.757812 8.019531 C 14.757812 8.019531 14.730469 8.203125 14.601562 8.410156 L 14.046875 9.5 C 13.859375 9.066406 13.511719 7.722656 13.511719 7.722656 C 13.726562 7.308594 13.515625 5.960938 13.515625 5.960938 C 13.4375 5.742188 13.617188 4.640625 13.617188 4.640625 C 13.910156 4.3125 14.085938 3.96875 14.1875 3.707031 C 16.511719 3.3125 15.867188 0.871094 15.867188 0.871094 C 15.867188 0.871094 13.425781 1.410156 14.136719 3.675781 C 13.917969 4.140625 13.53125 4.566406 13.53125 4.566406 C 13.597656 4.074219 13.375 3.273438 13.375 3.273438 L 13.324219 3.28125 C 13.5 3.695312 13.464844 4.539062 13.464844 4.539062 C 13.246094 5.097656 13.339844 6 13.339844 6 C 13.496094 6.402344 13.347656 7.59375 13.347656 7.59375 C 13.273438 7.53125 13.195312 7.472656 13.125 7.410156 C 13.085938 6.375 12.140625 5.621094 12.140625 5.621094 C 12.140625 5.621094 11.886719 5.914062 11.699219 6.351562 C 10.542969 5.574219 9.859375 5.316406 9.859375 5.316406 L 9.859375 5.421875 C 10.464844 5.734375 11.070312 6.167969 11.605469 6.597656 C 11.390625 7.257812 11.386719 8.144531 12.382812 8.882812 C 12.34375 9.136719 12.3125 9.441406 12.292969 9.789062 C 12.292969 9.789062 11.828125 9.453125 11.738281 9.265625 C 11.738281 9.265625 11.453125 8.9375 11.1875 8.832031 C 11.1875 8.832031 10.882812 8.570312 10.796875 8.375 L 10.777344 8.390625 C 10.777344 8.390625 10.984375 8.730469 11.175781 8.867188 C 11.175781 8.867188 10.703125 8.863281 10.472656 8.699219 L 10.472656 8.730469 C 10.472656 8.730469 10.765625 8.914062 11.171875 8.921875 C 11.171875 8.921875 11.617188 9.21875 11.667969 9.316406 C 11.667969 9.316406 12.066406 9.828125 12.28125 9.886719 C 12.28125 9.886719 12.691406 10.535156 12.742188 10.695312 C 12.742188 10.695312 12.738281 11.304688 12.800781 11.402344 C 12.800781 11.402344 12.320312 11.277344 11.9375 11.257812 L 11.945312 11.324219 C 11.945312 11.324219 13.082031 11.632812 13.773438 12.21875 C 13.542969 12.667969 13.335938 12.8125 13.335938 12.8125 C 12.75 11.90625 11.304688 11.238281 11.304688 11.238281 C 10.351562 10.753906 9.695312 9.988281 9.695312 9.988281 C 9.324219 9.011719 10.203125 8.324219 10.203125 8.324219 L 10.058594 8.234375 C 9.714844 8.289062 9.402344 8.769531 9.402344 8.769531 C 9.3125 8.214844 9.457031 6.792969 9.457031 6.792969 L 9.347656 6.71875 C 8.671875 8.824219 9.421875 9.96875 9.421875 9.96875 C 8.230469 9.25 7.480469 7.199219 7.480469 7.199219 L 7.296875 7.199219 C 7.621094 8.386719 8.277344 9.320312 8.949219 10.007812 C 8.933594 10.070312 8.910156 10.167969 8.886719 10.296875 C 8.746094 10.332031 8.613281 10.375 8.519531 10.425781 C 8.519531 10.425781 8.367188 10.433594 8.085938 10.214844 L 7.769531 9.902344 C 7.769531 9.902344 7.722656 9.84375 7.535156 9.808594 L 6.898438 9.660156 C 6.898438 9.660156 5.917969 8.730469 5.4375 7.808594 L 5.382812 7.808594 C 5.382812 7.808594 5.652344 8.527344 6.574219 9.644531 C 6.574219 9.644531 5.957031 9.726562 5.746094 9.644531 C 5.746094 9.644531 5.277344 9.597656 4.988281 9.714844 C 4.988281 9.714844 4.648438 9.730469 4.421875 9.671875 C 2.976562 8.421875 1.460938 10 1.460938 10 C 1.460938 10 3.199219 11.855469 4.761719 10.019531 C 4.757812 10.015625 4.753906 10.011719 4.75 10.007812 C 4.84375 9.953125 4.945312 9.886719 5.042969 9.796875 C 5.042969 9.796875 5.613281 9.699219 5.726562 9.738281 C 5.726562 9.738281 6.425781 9.84375 6.640625 9.730469 C 6.640625 9.730469 7.445312 9.941406 7.605469 10.03125 C 7.605469 10.03125 8.050781 10.519531 8.175781 10.550781 C 8.175781 10.550781 8.113281 10.582031 8.023438 10.636719 C 5.96875 9.5625 5.011719 11.867188 5.011719 11.867188 C 5.011719 11.867188 7.171875 12.894531 8.019531 10.859375 C 8.257812 10.761719 8.546875 10.65625 8.851562 10.582031 C 8.820312 10.914062 8.835938 11.339844 8.996094 11.734375 C 8.820312 11.804688 8.585938 11.886719 8.371094 11.914062 L 8.363281 11.933594 C 8.363281 11.933594 8.597656 11.933594 9.027344 11.800781 C 9.058594 11.871094 9.09375 11.941406 9.136719 12.011719 C 9.128906 12.027344 9.117188 12.042969 9.109375 12.054688 C 9.109375 12.054688 9.023438 12.226562 9.027344 12.355469 C 9.027344 12.355469 8.972656 12.527344 8.910156 12.597656 L 8.917969 12.605469 C 8.917969 12.605469 9.019531 12.460938 9.042969 12.355469 C 9.042969 12.355469 9.125 12.550781 9.097656 12.675781 L 9.109375 12.671875 C 9.109375 12.671875 9.132812 12.519531 9.066406 12.347656 C 9.066406 12.347656 9.109375 12.113281 9.140625 12.074219 C 9.140625 12.074219 9.148438 12.0625 9.160156 12.042969 C 9.394531 12.402344 9.789062 12.714844 10.4375 12.871094 C 10.757812 13.351562 11.15625 13.796875 11.15625 13.796875 C 10.957031 13.777344 10.03125 14.269531 10.03125 14.269531 C 9.914062 14.289062 9.613281 14.28125 9.304688 14.265625 C 8.714844 12.699219 6.785156 13.066406 6.785156 13.066406 C 6.785156 13.066406 6.820312 13.335938 6.953125 13.679688 C 6.664062 13.582031 6.078125 13.253906 6.078125 13.253906 C 5.738281 12.621094 5.226562 12.316406 5.226562 12.316406 L 5.175781 12.339844 C 5.617188 12.570312 5.996094 13.300781 5.996094 13.300781 C 5.757812 13.175781 5.378906 13.113281 5.148438 13.082031 C 3.589844 11.3125 1.878906 13.152344 1.878906 13.152344 C 1.878906 13.152344 3.648438 14.976562 5.175781 13.121094 C 5.535156 13.171875 5.953125 13.347656 5.953125 13.347656 C 6.28125 13.636719 6.890625 13.8125 7.023438 13.847656 C 7.15625 14.140625 7.355469 14.457031 7.648438 14.699219 C 7.613281 14.722656 7.578125 14.746094 7.542969 14.769531 C 7.402344 14.800781 7.152344 14.863281 7.03125 14.941406 C 7.03125 14.941406 6.953125 14.953125 6.792969 14.851562 L 6.605469 14.699219 C 6.605469 14.699219 6.578125 14.667969 6.476562 14.660156 L 6.128906 14.613281 C 6.128906 14.613281 5.5625 14.164062 5.261719 13.695312 L 5.230469 13.695312 C 5.230469 13.695312 5.410156 14.066406 5.957031 14.621094 C 5.957031 14.621094 5.628906 14.691406 5.515625 14.660156 C 5.515625 14.660156 5.261719 14.65625 5.113281 14.734375 C 5.113281 14.734375 4.972656 14.753906 4.855469 14.746094 C 3.011719 13.554688 1.8125 15.640625 1.8125 15.640625 C 1.8125 15.640625 3.910156 16.996094 4.992188 14.90625 C 5.042969 14.871094 5.09375 14.828125 5.144531 14.773438 C 5.144531 14.773438 5.445312 14.695312 5.507812 14.710938 C 5.507812 14.710938 5.886719 14.734375 5.996094 14.664062 C 5.996094 14.664062 6.4375 14.734375 6.523438 14.777344 C 6.523438 14.777344 6.789062 15.015625 6.855469 15.023438 C 6.855469 15.023438 6.609375 15.1875 6.457031 15.351562 L 6.484375 15.371094 C 6.484375 15.371094 6.796875 15.164062 7.171875 15.027344 C 6.398438 15.574219 5.929688 16.007812 5.707031 16.234375 C 3.4375 16.765625 4.203125 19.152344 4.203125 19.152344 C 4.203125 19.152344 6.597656 18.488281 5.792969 16.285156 C 6.457031 15.707031 7.292969 15.210938 7.914062 14.878906 C 8.289062 15.085938 8.789062 15.175781 9.445312 15.011719 C 9.5625 15.136719 9.777344 15.34375 10.113281 15.605469 C 10.078125 15.832031 10.074219 16.054688 10.089844 16.25 C 10.082031 16.25 10.078125 16.25 10.074219 16.25 C 10.074219 16.25 9.691406 16.328125 9.492188 16.492188 C 9.492188 16.492188 9.152344 16.617188 8.960938 16.597656 L 8.960938 16.621094 C 8.960938 16.621094 9.320312 16.609375 9.511719 16.515625 C 9.511719 16.515625 9.414062 16.6875 9.28125 16.832031 C 9.277344 16.820312 9.273438 16.808594 9.273438 16.796875 C 6.882812 16.976562 7.332031 19.488281 7.332031 19.488281 C 7.332031 19.488281 9.789062 19.152344 9.289062 16.867188 C 9.375 16.789062 9.472656 16.683594 9.554688 16.542969 C 9.554688 16.542969 9.980469 16.324219 10.082031 16.328125 C 10.082031 16.328125 10.085938 16.328125 10.09375 16.324219 C 10.128906 16.6875 10.210938 16.941406 10.210938 16.941406 C 10.210938 16.941406 11.019531 16.710938 11.535156 16.082031 C 11.578125 16.085938 11.613281 16.085938 11.636719 16.09375 C 11.636719 16.09375 12.109375 16.367188 12.210938 16.363281 C 12.210938 16.363281 12.003906 16.578125 11.828125 16.816406 C 9.691406 17.773438 10.894531 19.972656 10.894531 19.972656 C 10.894531 19.972656 13.113281 18.863281 11.917969 16.859375 C 12.148438 16.648438 12.621094 16.246094 13.121094 16.019531 C 13.140625 16.273438 13.183594 16.648438 13.277344 16.816406 C 13.277344 16.816406 13.886719 23.710938 13.277344 26.566406 C 13.277344 26.566406 12.765625 28.4375 12.765625 29.175781 L 15.789062 29.175781 C 15.789062 28.4375 15.277344 26.566406 15.277344 26.566406 C 14.667969 23.710938 15.277344 16.816406 15.277344 16.816406 C 15.324219 16.726562 15.359375 16.582031 15.386719 16.421875 C 15.738281 16.320312 16.148438 16.191406 16.378906 16.085938 C 16.378906 16.085938 17.242188 16.1875 17.976562 16.949219 C 17.976562 16.949219 19.03125 18.039062 20.597656 18.359375 C 22.230469 19.914062 23.785156 18.027344 23.785156 18.027344 C 23.785156 18.027344 21.976562 16.363281 20.5625 18.167969 C 20.164062 18.074219 19.742188 17.925781 19.441406 17.679688 C 19.441406 17.679688 20.382812 17.90625 21.609375 16.9375 L 21.53125 16.878906 C 21.53125 16.878906 20.628906 17.324219 20.238281 17.398438 C 20.238281 17.398438 20.480469 17.074219 20.433594 16.824219 L 20.335938 16.75 C 20.335938 16.75 20.097656 17.511719 19.363281 17.5 C 19.363281 17.5 19.097656 17.398438 18.761719 17.191406 C 18.9375 17.011719 19.253906 16.671875 19.355469 16.4375 C 19.355469 16.4375 19.460938 16.34375 19.792969 16.339844 L 20.207031 16.386719 C 20.207031 16.386719 20.277344 16.402344 20.429688 16.320312 L 20.988281 16.058594 C 20.988281 16.058594 21.5 16.101562 22.101562 16.238281 C 22.957031 18.382812 25.164062 17.285156 25.164062 17.285156 C 25.164062 17.285156 24.164062 14.992188 22.121094 16.113281 C 21.871094 16.035156 21.578125 15.953125 21.234375 15.878906 C 21.234375 15.878906 21.640625 15.457031 21.84375 15.398438 C 21.84375 15.398438 22.191406 15.171875 22.347656 14.925781 C 23.847656 16.746094 25.613281 14.964844 25.613281 14.964844 C 25.613281 14.964844 23.917969 13.089844 22.332031 14.871094 C 22.347656 14.785156 22.425781 14.382812 22.605469 14.195312 L 22.574219 14.191406 C 22.574219 14.191406 22.34375 14.457031 22.273438 14.875 C 22.273438 14.875 21.910156 15.28125 21.804688 15.316406 C 21.804688 15.316406 21.226562 15.644531 21.132812 15.855469 C 21.132812 15.855469 20.421875 16.171875 20.253906 16.195312 C 20.253906 16.195312 19.644531 16.097656 19.539062 16.144531 C 19.539062 16.144531 19.738281 15.675781 19.816406 15.289062 L 19.75 15.289062 C 19.75 15.289062 19.25 16.4375 18.535156 17.039062 C 18.40625 16.949219 18.273438 16.839844 18.144531 16.71875 C 18.144531 16.71875 17.351562 15.910156 16.609375 15.734375 C 16.609375 15.734375 16.707031 15.339844 17.425781 14.847656 C 18.917969 15.203125 19.585938 14.222656 19.859375 13.53125 C 20.066406 13.933594 20.539062 14.652344 21.378906 14.964844 L 21.386719 14.886719 C 21.386719 14.886719 20.578125 14.507812 20.328125 13.992188 C 20.328125 13.992188 20.765625 14.339844 21.644531 14.132812 L 21.617188 14.085938 C 21.617188 14.085938 21.035156 14.097656 20.816406 14.039062 C 20.816406 14.039062 21.019531 13.925781 21.054688 13.785156 L 21.023438 13.722656 C 21.023438 13.722656 20.714844 14.0625 20.328125 13.875 C 20.328125 13.875 20.105469 13.644531 19.941406 13.3125 C 20.015625 13.082031 20.039062 12.921875 20.039062 12.921875 C 20.039062 12.921875 19.929688 12.902344 19.753906 12.886719 C 19.65625 12.6875 19.5 12.425781 19.308594 12.273438 C 19.308594 12.273438 19.535156 11.988281 20.382812 11.96875 L 20.394531 11.898438 C 20.394531 11.898438 19.484375 11.882812 19.136719 12.128906 C 19.136719 12.128906 18.71875 12.058594 18.40625 11.933594 C 18.515625 11.863281 18.746094 11.761719 19.164062 11.710938 L 19.992188 11.710938 C 19.992188 11.710938 20.132812 11.726562 20.421875 11.53125 L 21.46875 10.894531 C 21.46875 10.894531 22.953125 10.863281 24.472656 11.125 C 25.472656 13.175781 27.585938 11.949219 27.585938 11.949219 Z M 20.496094 5.625 C 20.6875 5.757812 20.867188 5.859375 21.042969 5.933594 C 20.9375 5.9375 20.71875 5.941406 20.660156 5.925781 C 20.660156 5.925781 20.410156 5.777344 20.355469 5.78125 C 20.355469 5.78125 20.421875 5.710938 20.496094 5.625 Z M 19.765625 6.132812 C 19.765625 6.132812 20.109375 5.996094 20.226562 5.875 C 20.226562 5.875 20.289062 5.855469 20.433594 5.910156 L 20.605469 6 C 20.605469 6 20.636719 6.019531 20.714844 6.011719 L 21.003906 5.992188 C 21.003906 5.992188 21.257812 6.121094 21.515625 6.308594 C 21.136719 6.191406 20.675781 6.199219 20.121094 6.421875 C 19.917969 6.371094 19.675781 6.324219 19.398438 6.277344 C 19.527344 6.21875 19.675781 6.15625 19.765625 6.132812 Z M 4.71875 9.972656 C 4.632812 9.871094 4.542969 9.777344 4.453125 9.699219 C 4.597656 9.730469 4.835938 9.773438 5.003906 9.75 C 5.003906 9.75 4.882812 9.863281 4.71875 9.972656 Z M 5.015625 14.855469 C 4.96875 14.820312 4.921875 14.789062 4.878906 14.757812 C 4.953125 14.765625 5.050781 14.769531 5.121094 14.75 C 5.121094 14.75 5.078125 14.800781 5.015625 14.855469 Z M 15.132812 14.417969 C 15.21875 14.042969 15.390625 13.804688 15.390625 13.804688 C 15.742188 13.371094 16.042969 13.121094 16.277344 12.976562 C 16.273438 13.078125 16.265625 13.183594 16.25 13.300781 C 16.25 13.300781 16.207031 13.582031 16.007812 13.902344 L 15.03125 15.757812 L 14.714844 15.757812 Z M 13.105469 11.539062 C 13.105469 11.539062 13.003906 11.449219 12.949219 11.125 L 12.929688 10.714844 C 12.929688 10.714844 12.933594 10.644531 12.832031 10.503906 L 12.496094 10 C 12.496094 10 12.464844 9.492188 12.507812 8.882812 C 12.816406 8.546875 12.988281 8.21875 13.070312 7.90625 C 13.265625 8.097656 13.378906 8.21875 13.378906 8.21875 L 13.667969 9.449219 C 13.734375 9.804688 13.847656 9.898438 13.847656 9.898438 L 14.265625 10.328125 C 14.1875 11.070312 14.035156 11.601562 13.878906 11.976562 C 13.675781 11.832031 13.332031 11.597656 13.105469 11.539062 Z M 14.425781 10.492188 L 14.441406 10.507812 C 14.859375 11.050781 14.847656 11.335938 14.847656 11.335938 C 14.5 11.992188 14.371094 13.597656 14.371094 13.597656 C 14.390625 14.085938 14.289062 14.984375 14.199219 15.644531 C 13.777344 14.925781 13.644531 13.253906 13.644531 13.253906 C 14.167969 12.628906 14.367188 11.109375 14.425781 10.492188 Z M 10.5625 12.753906 C 10.769531 12.164062 10.738281 11.6875 10.589844 11.304688 C 10.890625 11.488281 11.085938 11.574219 11.085938 11.574219 C 12.4375 12.183594 12.988281 13.292969 12.988281 13.292969 C 12.960938 13.605469 12.980469 14.113281 13.011719 14.585938 C 11.96875 14.101562 10.984375 13.179688 10.5625 12.753906 Z M 9.457031 14.949219 C 9.441406 14.792969 9.417969 14.648438 9.382812 14.515625 L 9.816406 14.5625 C 10.109375 14.609375 10.210938 14.546875 10.210938 14.546875 L 10.851562 14.25 C 11.015625 14.195312 11.152344 14.167969 11.261719 14.152344 C 10.554688 14.449219 10.25 14.96875 10.136719 15.480469 C 9.90625 15.328125 9.664062 15.144531 9.457031 14.949219 Z M 12.453125 16.179688 C 12.453125 16.179688 12.335938 16.222656 12.0625 16.117188 L 11.734375 15.949219 C 11.734375 15.949219 11.710938 15.933594 11.648438 15.929688 C 11.898438 15.554688 12.039062 15.058594 11.886719 14.410156 C 12.253906 14.6875 12.777344 14.957031 13.046875 15.089844 C 13.078125 15.476562 13.105469 15.757812 13.105469 15.757812 C 13.105469 15.757812 13.105469 15.765625 13.105469 15.777344 C 12.898438 15.875 12.59375 16.03125 12.453125 16.179688 Z M 19.554688 12.878906 C 18.835938 12.871094 17.550781 13.085938 17.34375 14.71875 C 16.921875 14.960938 16.433594 15.296875 16.242188 15.632812 C 16.242188 15.632812 15.898438 15.730469 15.492188 15.796875 C 15.84375 15.328125 16.636719 14.292969 17.089844 13.875 C 17.089844 13.875 17.863281 12.972656 18.203125 12.285156 C 18.40625 12.320312 18.875 12.398438 19.101562 12.398438 C 19.101562 12.398438 19.347656 12.550781 19.554688 12.878906 Z M 19.554688 12.878906 "/></g><path style=" stroke:none;fill-rule:nonzero;fill:rgb(100%,100%,100%);fill-opacity:1;" d="M 23.613281 11.15625 C 22.574219 13.335938 24.957031 14.199219 24.957031 14.199219 C 24.957031 14.199219 25.914062 11.835938 23.613281 11.15625 Z M 23.613281 11.15625 "/><path style=" stroke:none;fill-rule:nonzero;fill:rgb(100%,100%,100%);fill-opacity:1;" d="M 22.167969 14.34375 C 22.167969 14.34375 23.941406 12.519531 22.066406 11.011719 C 20.285156 12.632812 22.164062 14.34375 22.164062 14.34375 Z M 22.167969 14.34375 "/><path style=" stroke:none;fill-rule:nonzero;fill:rgb(100%,100%,100%);fill-opacity:1;" d="M 19.160156 18.023438 C 17.425781 19.691406 19.351562 21.347656 19.351562 21.347656 C 19.351562 21.347656 21.074219 19.480469 19.160156 18.023438 Z M 19.160156 18.023438 "/><path style=" stroke:none;fill-rule:nonzero;fill:rgb(100%,100%,100%);fill-opacity:1;" d="M 16.65625 20.046875 C 16.65625 20.046875 18.894531 18.859375 17.566406 16.847656 C 15.382812 17.839844 16.65625 20.046875 16.65625 20.046875 Z M 16.65625 20.046875 "/><path style=" stroke:none;fill-rule:nonzero;fill:rgb(100%,100%,100%);fill-opacity:1;" d="M 4.996094 9.550781 C 5.980469 7.34375 3.578125 6.542969 3.578125 6.542969 C 3.578125 6.542969 2.675781 8.929688 4.996094 9.550781 Z M 4.996094 9.550781 "/><path style=" stroke:none;fill-rule:nonzero;fill:rgb(100%,100%,100%);fill-opacity:1;" d="M 6.136719 4.535156 C 6.136719 4.535156 4.015625 5.929688 5.527344 7.808594 C 7.609375 6.613281 6.136719 4.535156 6.136719 4.535156 Z M 6.136719 4.535156 "/></g></svg>